<?xml version="1.0" encoding="UTF-8"?><svg id="a" xmlns="http://www.w3.org/2000/svg" viewBox="0 0 360 360"><defs><style>.b{fill:#ff0086;}.c{fill:#b2ff39;}</style></defs><path class="c" d="m207.39,287.22c8.63-8.3,2.05-25.87,6.91-27.33,4.2-1.26,7.47,12.27,19.9,17.95,10.77,4.92,25.48,2.6,35.43-5.82,6.4-5.42,13.83-15.9,11.93-26.34-1.81-9.94-10.87-13.18-9.31-18.01,1.97-6.11,16.62-1.23,28.26-9.44,13.82-9.75,18.63-33.82,10.84-41.85-6.63-6.84-20.75-.31-28.68-10.2-1.15-1.44-2.61-3.3-2.57-5.8.1-7.16,12.35-8.33,17.8-17.67,5.98-10.24-.21-23.51-.88-24.91-6.53-13.53-23.05-21.63-31.91-17.66-3.96,1.77-5.85,5.71-11.91,6.54-1.44.2-5.49.75-8.49-1.14-7.61-4.81.83-19.47-6.56-31.7-6.26-10.37-19.95-12.42-23.74-13.01-2.32-.36-19.29-3-28.75,6.91-8.41,8.81-4.14,20.45-12.15,23.98-4.02,1.77-9.45.74-12.41-2.02-2.89-2.7-2.12-5.84-3.66-10.27-2.58-7.44-9.77-13.04-16.17-15.12-11.36-3.7-25.29,2.05-31.37,12.62-.63,1.09-5.69,10.2-2.58,19.74,3.43,10.5,14.27,13.91,12.82,19.35-.83,3.09-5.1,4.42-6.82,4.96-11.56,3.6-17.69-7.12-30.01-6.74-11.03.33-22.42,9.43-26.07,20.82-.57,1.78-4.19,13.74,2.23,21.81,8.97,11.26,30.08,5.58,30.89,10.25.48,2.75-6.42,7.11-13.14,8.5-8.77,1.82-11.95-2.53-17.74-.49-7.85,2.76-12.79,14.55-11.63,24.61,1.09,9.46,7.72,18.64,16.35,21.56,12.65,4.27,25.65-6.22,30.92-.23,1.36,1.55,1.6,3.5,1.73,4.52.81,6.53-5.45,9.61-7.46,15.38-2.95,8.46,4.12,20.12,12.39,26.12,8.56,6.22,21.7,8.74,29.68,3.35,6.67-4.51,7.08-12.69,14.24-14.02,3.72-.69,6.89,1,7.77,1.51,7.19,4.18,4.9,13.61,9.3,21.12,7.77,13.26,34.73,17.71,44.64,8.18Z"/><rect class="b" x="126.85" y="121.91" width="114.92" height="109.71" rx="18.84" ry="18.84"/><ellipse class="c" cx="184.93" cy="185.12" rx="32.42" ry="29.95"/><ellipse class="b" cx="184.97" cy="185.31" rx="24.94" ry="23.1"/><ellipse class="c" cx="218.14" cy="148.58" rx="7.47" ry="6.96"/></svg>