<?xml version="1.0" encoding="UTF-8"?><svg id="a" xmlns="http://www.w3.org/2000/svg" viewBox="0 0 417.22 292.33"><defs><style>.d{fill:#EA580C;}.e{fill:#4D7C0F;}.f{fill:#0D9488;}</style></defs><g id="b"><path d="m252.56,156.25c-.84-.17.17-.17.34-.17h.5c.17.17.67.34.5.17-.34.17-1.17,0-1.34,0Z"/><path d="m252.22,156.08h-.34c.17-.17.34-.17.34,0,.17,0,.17-.17.17-.17.17,0,.84,0-.17.17Z"/><path d="m257.42,155.08h1.85c-.17,0-1.01.17-1.51,0h-.34Z"/><path d="m250.72,155.58c1.17,0,.84.17,1.68.17h1.01-.67c0-.17.5,0,.84,0h1.34-1.51c-.34-.17,2.85-.17,3.02-.17-.34-.17-2.52,0-3.19-.17,1.01,0,1.85,0,2.68-.17.67-.17,1.17-.17,1.17-.34-.5-.17-.17-.17,0-.34s.17-.17-.5-.34c.17-.17.5-.17.34-.34h.17-.17c.5,0,.17-.17-.17-.17-.17,0-.34-.17.17-.17h-.17c-.34-.17.34,0,.34,0-.5-.17-.17-.34-1.01-.34h.17s-.17,0-.17-.17h-.67.34c0-.17.17-.17.34-.34.34-.17.84-.17,1.51-.34,1.01,0,2.01-.17,2.18-.34.34,0,.67-.17.67-.17,0,0-.17-.17-.34-.17-.34-.17-.84-.17-.34-.17,1.01,0,.17.17,1.17.17h.5c.34,0,.67-.17-.5-.34h-1.34c-.34,0-.67,0-.84-.17-.17,0-.17-.17.5-.17.34,0,.17,0,.34.17.84,0,.5-.17.67-.17-1.51,0-2.52-.17-3.35,0l-.5-.17c-.84,0-1.01,0-1.34.17-.34,0-.84.17-1.68,0h-1.34c-.67,0-.67.17-.34.17-1.34,0-.34.34-2.18.34.67.17.5.17.17.17s-1.01.17-.67.17c.67.17,1.17,0,2.18.17,0,.17,1.01.17,1.34.34.17,0,0,.17-.34,0,.17,0,.17.17.17.17l.17.17c0,.17-.17.17-.34.34-.17,0-.17.17-.5.17s-.5.17-.67.17c-.67.17-1.17.17-1.51.34-1.01,0-1.17.17-1.51.17-.17,0-.67.17-1.85.17h2.18c-.34,0-.5.17-.5.17,1.34,0-.67.34,1.01.34-.5.17-.84.17-1.17.17s-.84,0-1.17.17c.34,0,.84.17,1.17.17s.67.17.84.34c.17,0-.5.17-.84.17.34,0,.84.17,1.17.34,1.34.17,1.85.17,1.85.17,0-.34.17-.5,0-.5Z"/><path d="m258.1,152.23c.34,0,1.01,0,1.51-.17h0c.5-.17-.34-.17-.84,0,.34.17-.34.17-.67.17Z"/><path d="m255.08,150.72c0,.17-.67.17-.34.34h1.17c.5-.17.84-.17.5-.34-1.01-.17-.34,0-1.34,0Z"/><path d="m253.06,150.88c-.5-.17,0-.17.17-.34.17,0,0,0,.34-.17.17,0,.17-.17.17-.17-.5,0-1.17.17-1.51.17-.34.17,0,.17-.67.34,0,0,.17.17.34.17.5.17,1.01,0,1.17,0Z"/><path d="m254.24,150.21s.17,0,0,0c.17,0,0,0,0,0-.17,0-.17.17,0,0Z"/><path class="e" d="m136.65,143.84c-2.01-1.01-2.35-1.51-2.68-1.85-.17-.34,0-.67-.5-1.17l1.85,1.01c.5.34,1.17.84,1.85,1.34.67.5,1.17.84,1.68,1.17.84.67,1.17,1.34.84,1.17,0-.17-.5-.34-1.01-.67-.34-.5-1.17-.67-2.01-1.01Z"/><path class="e" d="m140.68,145.85q-.17-.34-.34-.67c.17.34.5.67.5,1.01,0-.17-.17-.34-.17-.34Z"/><path class="e" d="m130.61,139.31l-1.68-1.01c-.34-.34.67.17.67,0l-1.68-1.51c2.35,2.01,2.85,1.34,2.68,2.52Z"/><path class="e" d="m113.67,119.01c-.67-1.51,1.68-.34,2.52-.34.84.84,1.17,2.18.17,2.01-1.34-1.17-2.01-1.17-2.68-1.68Z"/><path class="e" d="m120.71,133.1c1.34-.34,4.53,2.52,4.7,1.51.17-.34.17-.84-.17-1.34l-2.01-.84c-2.01-1.85-1.34-1.68-.5-1.51s1.85.5.84-1.01c-.67-.5-1.01-.67-1.34-.84-1.68-.67-1.51-.17-1.01.84-4.19-3.02-.67-4.36-2.85-6.04-3.19-2.18-2.68,1.01-3.86,1.01.67-.84-.17-2.52-1.68-4.7s-3.69-4.53-5.87-6.37c-2.35-1.34-4.36-3.35-6.71-5.2-2.18-2.01-4.53-4.03-7.55-5.37-2.01-1.85-4.53-4.36-7.38-6.54l.17-.17q-.17,0-.34.17c-.67-1.17-2.68-2.35-4.36-3.35s-3.02-2.01-3.02-2.68l-.67-.34c-2.68-1.68.34-.34-1.17-1.51-2.52-1.51-5.37-4.19-7.05-4.53-.17-.17.17,0,0-.17l-2.01-1.34c-.17,0-.67-.17-.5.17-.5-.34-.84-.5-1.51-1.01-1.51-1.34,0-.34-.5-1.01-3.86-3.19-8.05-7.05-10.9-11.24.67-.84-3.02-5.03-4.7-6.54-2.35-4.36-8.39-5.54-10.4-8.55,2.35.5,4.53,3.52,5.37,2.85l-.5-1.01c-1.51-1.68-3.86-4.19-5.54-4.03.67,1.17.34,1.51.34,2.18-1.01-.34-1.34-.17-2.35-.67-1.51-1.01-3.02-2.18-2.52-2.68,1.01.34,1.68,1.17,2.35,1.51.34-.17,0-.84-.67-1.34-.34-.34-.67-.67-1.01-.84-.17-.17-.34-.34-.5-.34-.17-.17-.34-.34-.5-.34.5,1.34-.67,1.17-1.34,1.34-.34,0-.5.17-.5.5,0,.17.17.5.34.67.17.34.5.67.84,1.17l-1.17-.67c-.34-.17-.84-.5-1.34-.67-1.34,0,.5,1.51,1.51,3.02,1.17,1.51,2.18,2.85-.34,2.01-.67,0-.5.84-2.01.17.34,1.01,1.68,2.18,2.35,2.35,0,1.85,5.03,4.53,4.03,6.04,4.36,1.68,4.53,5.03,8.05,7.38,4.53,2.85,2.18.17,4.03.34,2.01,1.68,4.7,2.52,6.21,3.19,1.17.84,1.68,1.51.84,1.17,4.36,3.19,8.72,6.54,12.58,10.23,3.86,3.86,7.21,8.22,10.74,12.41,1.17,2.01,2.52,3.69,4.03,5.2s2.85,3.19,3.69,5.54l-.34-.84c0-.17.5,0,.84.34-.17-.84-.5-1.51-.67-2.35.84,1.01,1.68,2.01,2.68,2.85,2.01-.17,5.37,5.03,7.72,4.86,2.52,2.52,3.02,3.52,3.69,4.36.5,1.01,1.17,2.01,3.69,4.36,3.35,1.85,7.72,3.86,11.41,6.37,1.34,1.01,2.18,2.35,1.68,2.35,1.85,1.01,4.19,2.35,6.04,3.35,4.19,1.68,4.19,1.17,3.02,0-.5-.84-3.02-2.85-4.36-3.86Z"/><path class="e" d="m58.31,73.39c.5,0-.84-2.01-1.01-2.68l-.67-.67c-1.51-1.85-2.01-1.34-1.34.17.5-.17,2.18,2.01,3.02,3.19Z"/><path class="e" d="m72.91,85.97l-.5.17c.84.5,1.68,1.01,2.52,1.51.17-.34-1.17-1.17-2.01-1.68Z"/><path class="e" d="m22.58,49.57c2.52,1.34,3.19,2.35,5.7,3.69,0-.5.17-.84.17-1.34-1.17-1.01-2.35-2.01-3.69-2.85-.67-.34-1.34-.84-2.01-1.17l-.84-.5c-.17,0-.34-.17-.5-.34-.34-.17-.5-.17-.5,0s.17.5.5.84l.17.17.34.17c.17.17.5.34.67.5.34.5.34.84,0,.84Z"/><path class="e" d="m26.78,54.43c-1.17-.5-2.35-1.01-3.35-1.68-.5-.34-1.17-.67-1.68-1.17l-.84-.67-.5-.34c-.17-.17-.34-.34-.5-.5-1.51-1.34-1.68-3.02-1.85-4.36s-.34-2.52-.5-3.35c-.17.34-.34,1.01-.5,2.01-.17,1.01-.17,2.18.17,3.69.17.84.67,1.68,1.34,2.52.34.34.84.84,1.17,1.01s.5.34.84.5c1.01.67,2.01,1.17,2.52,1.85,1.85,1.01,3.02,1.34,5.03,2.68,1.68.84-.34-1.51-1.34-2.18Z"/><path class="e" d="m17.55,41.18c0-.34-.17-.5-.34-.84q0-.17-.17-.34v-.34c0-.17,0,0-.17.17,0,.5.17.5.17.67s.17.34.17.34c.17.5.67,1.85.34.34Z"/><path class="e" d="m16.38,267.8c.34-2.52.67-3.19,1.01-3.52s.67-.34,1.17-1.51c0,.34-.17.5-.17.84s-.17.5-.17.67l-.17,1.17c-.5,1.51-1.01,3.52-1.17,5.03-.34,1.51-.34,2.52-.34,2.01-.17-.17-.34-2.52-.17-4.7Z"/><path class="e" d="m16.88,273.67q0-.5.17-1.01v1.34c-.17,0-.17-.17-.17-.34Z"/><path class="e" d="m21.07,258.74c.17,0,.5-.17.67-.17.5-.34.84-.5,1.17-.67.34-.17-.34.5-.34.5.67-.17,1.34-.5,1.85-.84-1.85,1.01-2.18,1.34-2.68,1.34-.17,0-.34,0-.67-.17Z"/><path class="e" d="m45.9,243.81c1.85-.67,0,1.85-.17,2.68-1.17.84-2.52,1.17-2.18,0,1.34-1.17,1.68-2.01,2.35-2.68Z"/><path class="e" d="m29.63,250.69c.17.67-.84,1.85-1.51,2.85-.67,1.01-1.34,1.85-.84,2.01.34.17.84.34,1.34,0,.5-.67.84-1.34,1.34-2.18,2.18-2.18,2.01-1.34,1.68-.5-.34,1.01-.84,2.01,1.01.84.67-.67.84-1.01,1.01-1.34,1.01-1.85.34-1.68-.84-1.17,3.86-4.36,4.7-.5,6.88-2.68,2.85-3.35-.5-2.85-.34-4.19.67.67,2.68,0,5.2-1.51s5.37-3.69,7.72-5.87c1.85-2.52,4.36-4.53,6.88-6.71s5.03-4.53,7.21-7.55c2.35-2.01,5.54-4.53,8.39-7.55l.17.17v-.34c1.34-.67,3.02-2.68,4.36-4.36,1.51-1.68,2.68-3.19,3.35-3.02l.34-.67c2.35-2.85.34.34,1.85-1.17,2.01-2.68,5.37-5.54,6.21-7.21.17-.17,0,.17.17,0l1.85-2.01c0-.17.34-.67-.17-.5.5-.5.67-1.01,1.34-1.51,1.68-1.51.34,0,1.01-.5,4.03-4.03,8.89-8.55,13.59-11.24.67.67,5.87-2.85,7.88-4.7,5.2-2.35,7.38-8.72,10.9-10.74-1.01,2.35-4.53,4.53-4.19,5.7l1.17-.5c2.01-1.51,5.03-3.86,5.37-5.7-1.34.67-1.68.34-2.35.34.5-1.01.34-1.34,1.17-2.52,1.34-1.51,2.85-3.02,3.35-2.52-.5,1.01-1.51,1.68-2.18,2.52.34.84,2.68-1.85,3.52-2.52-1.34.17-1.17-.84-1.17-1.51-.17-.67-.34-1.01-2.68.67l1.85-2.52c.34-1.34-1.68.17-3.52,1.34s-3.35,2.18-2.01-.34c0-.67-.84-.67.17-2.01-1.17.17-2.52,1.68-2.85,2.52-1.85,0-5.7,5.2-7.05,4.03-2.68,4.7-6.21,4.53-9.23,8.22-3.69,4.7-.67,2.35-1.17,4.19-2.18,2.01-3.52,5.03-4.53,6.54-1.01,1.34-1.85,1.85-1.34.84-4.03,4.53-8.22,9.06-12.92,12.92-4.7,4.03-10.06,7.38-15.1,10.74-2.35,1.01-4.36,2.52-6.21,4.03-1.85,1.51-3.86,2.85-6.54,3.69l.84-.17c.17,0-.17.5-.5.84.84-.17,1.85-.34,2.68-.67-1.17.84-2.52,1.68-3.52,2.52-.17,2.18-6.37,5.2-6.71,7.88-3.19,2.52-4.36,3.02-5.37,3.52-1.17.5-2.35,1.01-5.37,3.69-2.68,3.52-5.54,8.05-9.06,11.74-1.34,1.34-2.85,2.18-2.85,1.85-1.34,1.85-3.35,4.53-4.53,6.04-1.01,1.85-1.34,2.52-1.51,2.85,0,.34.34.34,1.01-.17.67-.34,1.68-1.17,2.52-2.01,1.17-1.01,2.18-2.01,2.85-2.68Z"/><path class="e" d="m104.61,187.28c0,.5,2.18-.84,3.02-1.01l.84-.67c2.18-1.51,1.85-2.18.17-1.34-.34.84-2.68,2.18-4.03,3.02Z"/><path class="e" d="m88.67,202.55v-.5c-.67.84-1.34,1.85-2.01,2.68.17.17,1.17-1.17,2.01-2.18Z"/><path class="e" d="m136.98,151.56c-2.35,2.18-3.69,2.68-5.87,5.2l1.34.5c2.68-2.01,5.54-4.03,7.88-7.05.5-1.17-.34-.5-1.34.34-.84.84-2.01,1.85-2.01,1.01Z"/><path class="e" d="m130.61,154.91c1.68-2.35,4.19-4.19,6.54-6.21,1.17-.84,2.35-2.01,3.86-2.85,1.34-.84,3.02-1.01,4.36-1.01-.34-.34-1.34-.5-2.68-.5s-3.02.67-4.19,1.68c-1.34,1.01-2.35,1.85-3.35,2.85-1.01.84-2.01,1.68-2.85,2.01-1.68,1.68-2.68,2.85-4.7,5.2-1.17,2.01,1.85-.34,3.02-1.17Z"/><path class="e" d="m146.88,145.35c.67,0,1.34-.17,1.68-.17.5,0-.84,0-1.34,0h-1.01c-.34,0-.17,0,.67.17Z"/><path class="e" d="m16.54,255.05c-.5-2.85-.34-3.69-.17-4.19.17-.5.5-.5.5-1.51l.5,2.68c0,.84.17,1.85.17,3.02.17,1.17.5,2.18.84,3.02.84,1.68,1.68,2.52,1.17,2.18-.17-.17-.67-.67-1.34-1.51-.67-1.01-1.34-2.35-1.68-3.69Z"/><path class="e" d="m20.74,260.76c-.34-.34-.34-.5-.67-.84l1.01,1.01c0-.17-.17-.17-.34-.17Z"/><path class="e" d="m16.21,245.32l-.34-2.52c0-.5.34.84.5.84l.17-2.85c-.17,3.86.67,3.69-.34,4.53Z"/><path class="e" d="m21.24,212.11c.84-1.85,1.34,1.51,1.85,2.18-.17,1.68-1.01,3.02-1.51,1.68.17-2.01-.34-2.85-.34-3.86Z"/><path class="e" d="m14.7,230.56c1.17,1.01.84,6.54,1.68,5.87.34-.17.67-.5,1.01-1.17l-.67-2.85c.17-3.52.5-2.68.84-1.68s.84,2.35,1.34,0c0-1.01,0-1.51-.17-2.01-.5-2.35-.84-1.68-1.34-.34-.34-6.71,2.85-4.19,3.02-7.72-.34-5.03-2.52-1.85-3.19-3.19,1.01,0,1.85-2.18,2.68-5.37.67-3.19,1.17-7.21,1.17-10.9-.5-3.35-.17-7.05,0-10.9s.17-7.72-.5-11.91c.17-3.52.5-8.05.34-12.58h.17c0-.17-.17-.17-.17-.17.5-1.68.17-4.53-.17-7.05-.17-2.52-.34-4.7.17-5.03l-.17-.84c-.5-4.03.34,0,.34-2.35-.5-3.86-.17-8.72-.84-10.74,0-.34,0,.17.17-.17l-.17-3.02c-.17-.17-.34-.84-.5-.34,0-.67-.17-1.34-.17-2.35,0-2.52.34-.34.34-1.17,0-6.37.34-13.76,1.85-19.96,1.01,0,2.01-7.05,2.18-10.06,2.01-5.87-1.01-12.75,0-17.28,1.01,2.68.17,7.21,1.17,7.72l.5-1.17c.34-2.68.84-7.21-.34-8.72-.5,1.51-1.01,1.68-1.34,2.18-.34-1.17-.67-1.51-1.01-3.02-.17-2.18-.17-4.7.5-4.7.34,1.17.17,2.52.34,3.69.84.34.67-3.52.67-4.86-.67,1.17-1.51.17-2.01-.34-.5-.5-1.01-.5-1.34,2.68l-.5-3.52c-.84-1.34-1.01,1.51-1.34,3.86s-.84,4.36-1.68,1.34c-.5-.67-1.01.17-1.34-1.85-.67,1.17-.67,3.35-.34,4.36-1.34,1.51-.34,8.72-2.18,8.89,1.51,5.87-1.01,8.55-.5,13.92.67,6.71,1.17,2.35,2.18,4.36,0,3.35,1.01,6.71,1.34,8.72.17,1.85,0,3.02-.34,1.68.34,6.88.5,13.92,0,20.8s-1.85,13.92-2.85,20.8c-.84,2.85-1.17,5.54-1.51,8.22-.34,2.68-.5,5.37-1.85,8.22l.5-.84c.17-.17.34.5.34,1.17.5-.84.84-1.85,1.34-2.68-.34,1.68-.5,3.35-.5,4.86,1.51,1.85-.67,9.39,1.01,11.57-.5,4.53-.84,5.87-1.17,7.21s-.84,2.68-1.17,7.21c.67,4.86,1.85,10.74,2.01,16.44.17,2.18-.34,4.03-.84,3.69.34,2.52.84,6.21,1.17,8.72,1.34,5.54,1.85,5.2,2.01,3.02-.17-2.18-.17-6.37-.17-8.39Z"/><path class="e" d="m21.74,120.02c.34.34,1.01-2.35,1.51-3.19l.17-1.17c.5-3.02-.17-3.19-.84-1.17.17.5-.34,3.69-.84,5.54Z"/><path class="e" d="m21.41,144.68l-.34-.34c.17,1.34.34,2.52.5,3.86.17-.17-.17-2.01-.17-3.52Z"/><path class="e" d="m18.89,65.17c0,3.52-.67,5.03-.34,8.72l1.17-.67c.5-3.69,1.01-7.55.5-11.91-1.01-2.85-.17,5.37-1.34,3.86Z"/><path class="e" d="m16.88,73.05c-.5-3.19,0-6.88.17-10.23.17-1.68.17-3.35.34-5.03,0-1.68.17-3.19.67-4.7-.34.34-1.01,1.17-1.34,2.52s-.67,2.85-.67,4.36c-.34,3.02-.17,6.54-.67,8.55,0,2.68.17,4.36.34,7.88.5,2.52,1.01-1.68,1.17-3.35Z"/><path class="e" d="m19.23,51.58c.34-.67.84-1.34,1.17-1.68s-.67.5-1.01,1.17c-.67.5-1.17,2.35-.17.5Z"/><path class="f" d="m385.92,254.89c-.67-2.01-.67-3.19-.17-3.69.34-.5.84-.67,1.17-1.68.34,1.01.67,1.85,1.01,2.68.17,1.68.34,3.69.17,5.03s-.5,2.35-.5,1.85c0-.17-.17-.84-.34-1.68-.34-.84-1.01-1.68-1.34-2.52Z"/><path class="f" d="m387.93,260.59c.17-.5.34-.5.5-1.01,0,.5-.17,1.01-.34,1.34,0,0-.17-.17-.17-.34Z"/><path class="f" d="m385.58,245.66l-.67-2.52c0-.5.67.84.84.84,0-1.01.17-1.85.34-2.85-.17,3.69,1.34,3.69-.5,4.53Z"/><path class="f" d="m395.98,212.28c1.68-1.85,2.52,1.51,3.69,2.18-.34,1.51-2.01,3.02-3.02,1.68.17-2.01-.67-2.85-.67-3.86Z"/><path class="f" d="m382.56,230.73c2.18,1.01,1.68,6.54,3.35,5.87.67-.17,1.51-.5,1.85-1.17-.34-1.01-.84-1.85-1.17-2.85.17-3.52.84-2.68,1.68-1.68s1.68,2.35,2.68,0c0-1.01-.17-1.51-.5-2.01-1.17-2.35-1.68-1.68-2.68-.34-.5-6.71,5.87-4.19,5.87-7.72-.67-5.03-4.86-1.85-6.37-3.02,2.01,0,3.86-2.18,5.37-5.37,1.51-3.19,2.35-7.21,2.52-10.9-1.01-3.35-.5-7.05-.17-10.9.34-3.86.34-7.72-.84-11.91.34-3.52,1.01-8.05.67-12.58h.5c-.17-.17-.34-.17-.5-.17.84-1.68.17-4.53-.17-7.05-.5-2.52-.67-4.7.34-5.03l-.34-.84c-.84-4.03.84,0,.84-2.35-1.01-3.86-.34-8.72-1.85-10.74,0-.34.17.17.17-.17-.17-1.01-.34-2.01-.34-3.02-.34-.17-.67-.84-1.01-.34,0-.67-.34-1.34-.17-2.35,0-2.52.5-.34.84-1.17-.17-6.37.84-13.76,3.69-19.96,2.01,0,4.19-7.05,4.36-10.06,1.85-3.02,1.51-6.21.67-9.23s-1.68-5.87-.67-8.05c2.18,2.68.17,7.21,2.35,7.72l1.01-1.17c.67-2.68,1.51-7.21-.84-8.72-1.01,1.51-2.01,1.68-2.85,2.18-.67-1.17-1.51-1.51-1.85-3.02-.34-2.18-.34-4.7,1.01-4.7.67,1.17.34,2.52.5,3.69,1.68.34,1.17-3.52,1.34-4.86-1.51,1.17-2.85.17-3.86-.34-1.17-.5-1.85-.5-2.85,2.68l-1.01-3.52c-1.51-1.34-2.01,1.51-2.85,3.86-.67,2.35-1.68,4.36-3.35,1.34-.84-.67-2.01.17-2.68-1.85-1.34,1.17-1.34,3.35-.67,4.36-2.68,1.51-.67,8.72-4.19,8.89,2.85,5.87-2.01,8.55-1.17,13.92,1.34,6.71,2.52,2.35,4.53,4.36,0,3.35,2.01,6.71,2.85,8.72.34,1.85-.17,3.02-.67,1.68.34,3.52.5,6.88.5,10.4s-.17,6.88-.67,10.4c-1.01,6.88-3.52,13.92-5.7,20.8-1.68,2.85-2.35,5.54-3.02,8.22-.67,2.68-1.17,5.37-3.69,8.05l.84-.84c.5-.17.5.5.67,1.17,1.01-.84,1.85-1.85,2.68-2.68-.5,1.68-1.01,3.35-1.17,4.86,2.85,1.85-1.17,9.39,2.01,11.57-.84,4.53-1.68,5.87-2.35,7.21s-1.68,2.68-2.18,7.21c1.51,4.86,3.69,10.74,4.19,16.44.17,2.18-.84,4.03-1.51,3.69.67,2.52,1.51,6.21,2.18,8.72,2.68,5.54,3.52,5.2,3.86,2.85.17-1.85.17-6.04,0-8.22Z"/><path class="f" d="m396.99,120.35c.67.34,2.01-2.35,2.85-3.19l.17-1.17c1.01-3.02-.5-3.19-1.85-1.17,1.01.5-.34,3.86-1.17,5.54Z"/><path class="f" d="m396.15,145.01l-.67-.34c.34,1.34.67,2.52,1.01,3.86.34-.17-.17-2.01-.34-3.52Z"/><path class="f" d="m391.45,65.67c0,3.52-1.34,5.03-.84,8.72l2.52-.67c.5-1.85,1.01-3.69,1.17-5.7.17-2.01.17-4.03-.17-6.04-1.01-1.34-1.17-.17-1.34,1.17-.17,1.51-.5,3.35-1.34,2.52Z"/><path class="f" d="m387.09,73.55c-1.01-3.35-.17-6.71.34-10.23.17-.84.34-1.85.5-2.68.17-.5.17-.84.34-1.34.17-.34.17-.67.17-1.01.17-1.34,0-2.68-.34-3.69-.5.5-.84,1.34-1.34,2.18-.17.34-.5.84-.67,1.34-.17.17-.17.5-.34.67-.17.34-.34.84-.34,1.17-1.01,3.52-.5,7.05-1.68,9.06.17,2.68.5,4.36.84,7.88,1.17,2.52,2.18-1.68,2.52-3.35Z"/><path class="f" d="m388.6,52.59c-.17-.67-.67-1.34-.84-1.68-.17-.17,0,0,0,.34.17.34.34.84.34,1.01.17.34.34.84.5,1.01.17.5.34.34,0-.67Z"/><path class="f" d="m385.08,265.62c-.5-.5-.67-.5-.84-.67-.17,0-.34-.17-.5-.17s-.34-.17-.34-.34l-.17-.17v-.17l-.34-.17c-.67-.34-1.01-.84-1.34-1.34-.5-.5-1.01-1.01-1.68-1.85.84.5,1.85,1.01,3.02,1.34.17,0,.67.17.84.17h.34c.17,0,.5,0,.67.17.84.34,1.51,1.01,2.18,2.18.34.5.5,1.17.67,1.85.17.34.17.67.34,1.01.17.34.17.67.34,1.17,1.01,2.68,1.85,4.19,1.17,3.52-.17-.17-1.01-1.17-1.85-2.68-.5-.67-1.01-1.68-1.51-2.52-.17-.34-.67-1.01-1.01-1.34Z"/><path class="f" d="m391.28,273.67c-.34-.67-.34-.84-.67-1.68.5.67.84,1.34,1.17,2.18-.17-.17-.34-.34-.5-.5Z"/><path class="f" d="m374.17,257.23l-3.35-2.52c-.67-.67,1.34.5,1.51.34l-3.02-3.35c4.36,4.36,5.2,3.35,4.86,5.54Z"/><path class="f" d="m342.64,212.11c-1.17-3.35,3.52-.17,5.2-.17,1.68,2.01,2.18,4.86-.17,4.19-2.35-2.52-3.86-3.02-5.03-4.03Z"/><path class="f" d="m354.88,242.64c2.68-.5,8.72,6.21,9.23,4.19.17-.84.5-1.68,0-2.68l-4.03-2.35c-4.03-4.03-2.52-3.86-.84-3.19,1.68.5,3.86,1.34,1.85-2.01-1.17-1.01-1.85-1.68-2.52-1.85-3.52-1.85-3.02-.67-2.18,1.68-8.22-7.05-.67-8.89-4.86-13.08-6.21-5.2-5.7,1.34-8.05,1.01,1.51-1.51.17-5.2-2.68-9.9-2.68-4.53-6.88-9.9-11.07-14.09-4.7-3.19-8.55-7.72-12.75-12.25s-8.72-9.23-14.43-12.92c-3.86-4.19-8.72-9.9-14.09-14.93q.17-.17.34-.34c-.17,0-.34,0-.5.17-.67-1.34-1.85-2.68-3.35-3.86-.67-.67-1.51-1.34-2.35-2.01-.84-.67-1.68-1.34-2.52-2.01-.84-.67-1.68-1.17-2.35-1.85-.34-.34-.84-.5-1.01-.84-.17-.17-.34-.34-.5-.5-.5-.67-.67-1.34-.17-1.68-.17-.17-.5-.17-.67-.34-.5-.67-.5-1.17-.5-1.34.17-.17.34-.17.5-.17.34.17.84.34,1.17-.5,0-.34.34-.67.67-.84l.5-.34.17-.17h0l-.34-.17h0c-1.01-.5,2.18,1.17-2.18-1.17,4.53,2.18,1.17.67,2.18,1.17h.34c.17,0,.34,0,.34-.17.17-.17.17-.5.34-.67.84-.84,1.68-1.51,2.35-2.18,1.51-1.34,2.68-2.68,3.19-3.69.5-.34,0,.17.34,0,1.17-1.17,2.35-2.35,3.69-3.35,0-.5.67-1.34-.17-1.01.84-.67,1.51-1.68,2.85-2.68,3.19-2.68.84.17,2.01-.67,8.05-6.71,17.95-13.59,27.34-17.78,1.34,1.51,11.41-4.03,15.43-6.88,4.86-1.68,8.72-5.2,12.08-8.89,3.35-3.69,6.37-7.38,9.9-8.89-2.01,4.36-9.06,7.55-8.39,9.73l2.18-.5c3.86-2.35,10.06-6.21,10.57-9.56-2.52.84-3.35.17-4.53,0,1.17-1.68.84-2.52,2.52-4.53,2.52-2.68,5.7-5.03,6.54-4.03-1.17,1.85-3.02,2.85-4.36,4.19.5,1.68,5.2-2.68,7.05-4.03-2.35,0-2.01-2.01-2.18-3.35-.17-1.34-.67-2.01-5.2.67l3.86-4.36c.67-2.52-3.19-.17-6.71,1.68s-6.54,3.19-3.86-1.17c.17-1.34-1.51-1.34.67-4.03-2.18.17-5.03,2.52-5.87,3.86-3.69-.5-11.41,8.39-13.92,5.87-5.54,8.22-12.08,7.21-18.28,13.42-7.55,8.05-1.51,4.36-2.68,7.88-2.18,1.68-3.86,3.86-5.37,5.87-1.51,2.01-2.85,3.86-3.86,5.37-2.18,2.18-3.86,3.02-2.52,1.34-5.2,4.7-10.57,9.56-16.1,13.92-2.85,2.18-5.7,4.36-8.55,6.37-1.51,1.01-3.02,2.01-4.53,3.02-.84.5-1.34.84-2.68,1.85l-1.85,1.34-1.01.67-.5.34-.17.17-.17.17h0c1.17.5-2.68-1.34,2.52,1.34-5.2-2.52-1.51-.67-2.68-1.34h0l-.17.17-.34.17-.17.17h-.17c-.67-.17-.5,0-.67,0l-.67,1.01-1.51,1.85c-.34.34-.5.67-.67,1.01s-.17.67-.34,1.01c-.17.67-.5,1.51-.5,2.18-.17,1.51.17,3.35.84,4.7.17.67.5,1.51,1.01,2.18.5.67,1.17,1.34,1.51,2.01.17.34.5.67.84,1.01s.5.84.67,1.17c.34.34.5.84.84,1.17l.34.5.34.34c.67.84,1.17,1.68,1.85,2.52.34.34.5.84.67,1.17l.84,1.34,1.85,2.68c2.01,4.53,4.7,8.05,7.38,11.57,2.68,3.52,5.37,7.05,6.88,12.08l-.5-1.68c.17-.5,1.01.34,1.68.84-.34-1.68-.84-3.35-1.17-5.03,1.51,2.18,3.19,4.53,4.86,6.37,4.03,0,9.9,11.57,14.93,11.91,4.7,5.7,5.7,7.72,6.71,9.9,1.01,2.01,2.01,4.19,6.88,9.73,6.71,4.53,15.1,9.39,22.14,15.77,2.52,2.18,4.19,5.2,3.19,5.2,3.52,2.35,8.22,5.87,11.74,8.22,8.39,4.36,8.55,3.35,6.04.5-2.18-3.02-7.05-7.72-9.73-9.9Z"/><path class="f" d="m311.44,118.85c0,1.01,4.19-.84,5.87-1.17l1.68-1.17c4.53-2.35,3.69-3.69.34-2.68-.34,1.34-5.37,3.86-7.88,5.03Z"/><path class="f" d="m279.57,143.5v-1.01l-.34.34c-.17.17-.34.34-.17.34v.84h-.17l-2.85-1.34,2.85,1.34h0l.34.17h.17v.17h.5l-.5-.17h0c-1.34-.67,3.02,1.51-3.02-1.51l3.02,1.51h.34v-.84l-.17.17Z"/><path class="f" d="m376.86,58.29c-4.53,3.69-7.21,4.19-11.57,8.39l2.52,1.17c2.68-1.51,5.37-3.02,8.05-4.86,1.34-.84,2.68-1.85,3.86-3.02.67-.5,1.34-1.17,1.85-1.68l1.01-.84.5-.5.34-.34c.34-1.01.34-1.34-.17-1.17-.17,0-.5.17-.84.5-.34.34-.84.67-1.34,1.01-2.18,1.34-4.53,2.85-4.19,1.34Z"/><path class="f" d="m364.28,62.99c3.52-4.03,8.55-7.05,13.25-10.23.67-.34,1.17-.84,1.85-1.17.67-.5,1.34-.84,2.18-1.17,1.34-.67,2.85-1.17,4.19-1.51l1.01-.17c.34,0,.5-.17.67-.17h.17v-.17l.17-.34.17-.67c.17-.34.17-.84.34-1.17,0-.5,0-.84-.17-1.34-.17.17-.34.34-.34.67,0,.17-.17.17-.34.34q-.17.17-.34.34c-.17,0-.17.34-.34.34h-.5c-.34,0-.67,0-1.01.17-1.34.17-2.85.5-4.36,1.17-.84.34-1.51.67-2.35,1.17-.34.17-.67.5-1.17.67l-.84.5c-1.01.67-2.01,1.51-3.02,2.18-2.01,1.51-3.86,2.68-5.54,3.35-3.35,2.85-5.2,4.86-9.39,8.72-2.68,3.52,3.35,0,5.7-1.51Z"/><path class="f" d="m389.77,42.52c.34-1.01.84-2.35,1.01-3.02.17-.84-.67,1.17-1.17,2.18-.5,1.01-1.17,3.86.17.84Z"/><path class="f" d="m31.14,271.83c2.35-1.17,5.2-1.51,6.88-1.01,1.85.34,2.68,1.01,3.02,1.51.5.5.67.84,1.01,1.34h0c-.67,1.01-.17.34-.34.5h0l.17-.17q0,.17.17.34-.17,0-.34.17h-.17l-.67-.34c-1.01-.34-2.01-.67-3.02-.84-2.01-.5-4.19,0-6.04.67s-3.19,1.34-4.36,1.85c-2.52,1.01-4.36,1.68-3.52,1.17.34-.17,1.34-.84,2.68-1.68.67-.5,1.34-1.01,2.01-1.51.5-1.01,1.51-1.51,2.52-2.01Z"/><path class="f" d="m22.42,278.37c.84-.34,1.01-.34,1.68-.5-.67.34-1.51.67-2.18,1.01l.5-.5Z"/><path class="f" d="m47.74,272.83l4.19-.67c1.01,0-1.51.67-1.34.84,1.68,0,3.19,0,4.86.17-6.54,0-6.37,1.34-7.72-.34Z"/><path class="f" d="m103.27,282.9c3.19,1.68-2.52,2.52-3.69,3.69-2.68-.34-5.03-2.01-2.85-3.02,3.52.17,4.86-.5,6.54-.67Z"/><path class="f" d="m72.57,269.65c-1.68,2.18-10.74,1.68-9.9,3.35.34.67.84,1.51,1.85,1.85l4.7-1.17c5.87.17,4.53.84,2.85,1.68s-3.86,1.68,0,2.68c1.68,0,2.52-.17,3.19-.5,3.86-1.17,2.68-1.68.5-2.68,11.07-.5,6.88,5.87,12.92,5.87,8.22-.67,3.19-4.86,5.2-6.37,0,2.01,3.69,3.86,9.06,5.37,5.2,1.51,12.08,2.35,18.12,2.52,5.7-1.01,11.74-.5,18.12-.17,6.37.34,12.92.34,19.79-.84,5.87.34,13.42,1.01,21.14.67v.5c.17-.17.34-.34.34-.5,2.85.84,7.55.17,11.57-.17,4.19-.5,7.72-.67,8.39.34l1.34-.34c6.88-.84,0,.84,3.86.84,6.37-1.01,14.59-.34,17.95-1.85.5,0-.17.17.34.17,1.68-.17,3.35-.34,5.03-.34.34-.34,1.34-.67.5-1.01,1.17,0,2.18-.34,3.86-.17,4.19,0,.5.5,2.01.84,10.74-.17,22.98.84,33.21,3.69,0,2.01,11.74,4.03,16.77,4.36,4.86,1.85,10.23,1.51,15.26.67,5.03-.84,9.73-1.68,13.59-.67-4.36,2.18-12.08.17-12.92,2.35l2.01,1.01c4.53.67,11.91,1.51,14.59-.84-2.52-1.01-2.68-2.01-3.52-2.85,2.01-.67,2.35-1.51,4.86-1.85,3.69-.34,7.88-.34,7.88,1.01-2.01.67-4.19.34-6.21.5-.67,1.68,6.04,1.17,8.22,1.34-2.01-1.51-.34-2.85.5-3.86.84-1.17.67-1.85-4.53-2.85l5.87-1.01c2.18-1.51-2.52-2.01-6.37-2.85-4.03-.67-7.21-1.68-2.18-3.35,1.01-.84-.34-2.01,3.02-2.68-1.85-1.34-5.7-1.34-7.21-.67-2.52-2.68-14.43-.67-14.76-4.19-9.73,2.85-14.26-2.01-23.15-1.17-11.24,1.34-3.86,2.35-7.21,4.36-2.85,0-5.7.5-8.22,1.17s-4.86,1.17-6.54,1.68c-3.02.34-4.86-.17-2.85-.67-5.7.34-11.57.5-17.28.5s-11.57-.17-17.45-.67c-11.57-1.01-23.15-3.52-34.72-5.7-4.7-1.85-9.23-2.35-13.76-3.02-4.53-.67-8.89-1.17-13.59-3.69l1.51.84c.17.5-1.01.5-1.85.67,1.51,1.01,3.02,1.85,4.36,2.68-2.68-.5-5.54-1.01-8.22-1.17-3.02,2.85-15.6-1.17-19.46,2.01-7.55-.84-9.73-1.68-11.91-2.35s-4.36-1.68-12.08-2.18c-8.22,1.51-17.78,3.69-27.51,4.19-3.52.17-6.71-.84-6.04-1.51-4.19.67-10.23,1.51-14.59,2.18-9.23,2.68-8.72,3.52-4.86,3.86,4.03.34,11.07.34,14.59.17Z"/><path class="f" d="m256.92,284.07c-.67.67,3.86,2.01,5.54,2.85l2.01.17c5.03,1.01,5.37-.5,2.01-1.85-1.17.84-6.71-.5-9.56-1.17Z"/><path class="f" d="m215.66,283.07l.67-.67c-2.18.34-4.19.67-6.37,1.01.17.34,3.35-.17,5.7-.34Z"/><path class="f" d="m348.17,278.37c-6.04,0-8.39-1.34-14.59-.84l1.17,2.52c3.02.5,6.21,1.01,9.56,1.17,1.68.17,3.35.17,5.03.17.84,0,1.68,0,2.68-.17h2.35c1.34-.5,1.51-.67.84-1.01-.34-.17-.84-.17-1.34-.34-.17,0-.5,0-.67-.17h-.84c-2.68-.17-5.54-.34-4.19-1.34Z"/><path class="f" d="m335.09,274.18c5.54-1.01,11.41-.17,17.11.34.34,0,.84,0,1.17.17.34,0,.84.17,1.17.17.67.17,1.34.17,1.85.34,1.51,0,2.85.17,4.19.34,2.68.34,5.03.34,7.05.17-.67-.5-2.01-1.01-3.69-1.51-1.85-.5-4.03-1.17-7.05-1.51h-.84l-.67-.17c-.5-.17-1.34-.17-2.18-.34-1.34,0-2.85-.17-4.03-.17-2.52-.17-4.86-.34-6.54-1.01-4.53.17-7.38.5-13.08.84-4.36.84,2.68,1.85,5.54,2.35Z"/><path class="f" d="m370.65,276.02c1.17-.34,2.18-1.01,2.85-1.17.34-.34,0,0-.5.17s-1.34.5-1.68.5c-.5.17-1.51.34-1.85.5-.67,0-.5.34,1.17,0Z"/><path class="d" d="m48.42,33.97c8.39-.84,5.7.17,8.89.34l-4.19.5c-1.34,0-3.02.17-4.53.17-1.68.17-3.02,0-4.53.34-2.85.67-4.36,2.01-3.69,1.34.17-.17,1.17-1.01,2.85-1.68.84-.34,1.85-.5,2.68-.67.67-.17,1.51-.34,2.52-.34Z"/><path class="d" d="m39.02,37.99c.67-.5.84-.5,1.51-1.01-.67.5-1.17,1.01-1.85,1.51l.34-.5Z"/><path class="d" d="m63.51,33.63l4.03-.34c.84,0-1.34.34-1.17.5,1.51,0,3.02,0,4.53.17-6.21-.17-6.21.5-7.38-.34Z"/><path class="d" d="m115.85,38.66c3.02.84-2.35,1.34-3.52,1.85-2.52-.17-4.7-1.01-2.68-1.51,3.19.17,4.53-.34,6.21-.34Z"/><path class="d" d="m86.83,31.95c-1.51,1.17-10.23.84-9.39,1.68.34.34.67.67,1.85,1.01l4.36-.67c5.54.17,4.36.5,2.68.84-1.51.34-3.69.84,0,1.34,1.51,0,2.35,0,3.02-.17,3.52-.5,2.52-.84.5-1.34,10.4-.34,6.54,2.85,12.25,3.02,7.88-.34,3.02-2.52,4.86-3.19,0,1.01,3.52,1.85,8.39,2.68,5.03.67,11.41,1.17,17.11,1.17,5.37-.5,11.07-.17,17.11,0,6.04.17,12.25.17,18.62-.5,5.54.17,12.75.5,19.96.34v.17c.17,0,.34-.17.34-.17,2.68.5,7.05.17,11.07-.17,3.86-.17,7.38-.34,7.88.17l1.34-.17c6.37-.5,0,.34,3.69.34,5.87-.5,13.76-.17,16.94-.84.5,0-.17,0,.34.17l4.86-.17c.34-.17,1.34-.34.5-.5,1.17,0,2.01-.17,3.69-.17,4.03,0,.5.34,1.85.34,10.06,0,21.64.34,31.37,1.85,0,1.01,11.07,2.01,15.77,2.18,9.39,2.01,20.13-1.01,27.17,0-4.19,1.01-11.41.17-12.25,1.17l1.85.5c4.36.34,11.24.84,13.76-.34-2.35-.5-2.52-1.01-3.35-1.34,1.85-.34,2.18-.67,4.7-1.01,3.52-.17,7.38-.17,7.38.5-2.01.34-4.03.17-5.87.34-.67.84,5.7.67,7.72.67-1.85-.67-.34-1.51.5-2.01.67-.5.67-1.01-4.19-1.34l5.54-.5c2.01-.84-2.35-1.01-6.04-1.34s-6.88-.84-2.18-1.68c1.01-.5-.34-1.01,2.85-1.34-1.85-.67-5.37-.67-6.71-.34-2.35-1.34-13.59-.34-13.92-2.18-9.23,1.51-13.42-1.01-21.81-.5-10.57.67-3.69,1.17-6.71,2.18-5.37,0-10.57,1.01-13.76,1.34-2.85.17-4.7,0-2.68-.34-10.9.34-21.81.5-32.71,0s-21.81-1.68-32.71-2.85c-4.36-.84-8.72-1.17-12.92-1.51s-8.39-.5-12.75-1.85l1.51.5c.17.17-.84.34-1.85.34,1.34.5,2.85,1.01,4.19,1.34-2.52-.34-5.2-.5-7.72-.5-2.85,1.51-14.59-.67-18.28,1.01-7.05-.5-9.23-.84-11.24-1.17s-4.19-.84-11.41-1.17c-7.72.67-16.77,1.85-26,2.01-3.35.17-6.37-.34-5.7-.84-4.03.34-9.56.84-13.76,1.17-8.72,1.34-8.22,1.68-4.53,1.85,3.02.17,9.56.17,12.92,0Z"/><path class="d" d="m260.61,39.17c-.67.34,3.69,1.01,5.2,1.51h1.85c4.86.5,5.03-.17,2.01-.84-1.17.34-6.37-.34-9.06-.67Z"/><path class="d" d="m221.7,38.66l.67-.34c-2.01.17-4.03.34-5.87.5,0,.17,3.02,0,5.2-.17Z"/><path class="d" d="m346.66,36.31c-5.7,0-7.88-.67-13.76-.34l1.17,1.17c5.87.5,11.91,1.01,18.79.34,2.35-.67.17-.5-2.18-.67-2.52.17-5.2,0-4.03-.5Z"/><path class="d" d="m334.42,34.3c5.2-.5,10.74,0,16.1.17,2.68.17,5.37.17,7.88.34,2.52.34,4.86.17,7.21.5-.5-.34-2.01-.84-3.86-1.17-.84-.17-1.85-.34-3.02-.5-1.17-.17-2.35-.34-3.69-.34-2.52-.17-5.03-.17-7.38-.17s-4.53-.17-6.21-.5c-4.36,0-6.88.17-12.41.34-4.03.5,2.52,1.01,5.37,1.34Z"/><path class="d" d="m368.14,36.65c1.01.5,2.18,1.34,2.52,1.85.67.5-.84-1.01-1.68-1.51-1.01-.84-4.03-1.68-.84-.34Z"/><path class="e" d="m41.87,260.76c7.72-8.89,6.04-5.37,9.39-8.22l-3.86,4.7-4.53,4.53-2.35,2.35c-.84.84-1.51,1.34-2.18,2.18-1.51,1.68-2.18,3.19-2.52,4.19s-.5,1.34-.34.67c.17-.34.34-2.18,1.51-4.36.34-.5.67-1.17,1.17-1.68.34-.5.84-1.01,1.17-1.51,1.01-.84,1.68-1.85,2.52-2.85Z"/><path class="e" d="m35.84,273.84c.17-1.17.34-1.34.67-2.35-.34,1.17-.34,2.18-.5,3.35l-.17-1.01Z"/><path class="e" d="m56.97,245.66l3.69-4.36c1.01-.84-1.01,1.68-.84,1.68,1.51-1.51,3.19-2.85,4.7-4.36-6.21,6.04-5.37,6.71-7.55,7.05Z"/><path class="e" d="m115.85,199.36c3.86-2.18-1.01,3.69-1.68,5.54-2.68,2.35-5.87,3.69-4.36,1.01,3.52-3.19,4.53-5.03,6.04-6.54Z"/><path class="e" d="m79.28,220.83c-.34,2.68-9.56,10.9-7.88,11.07.84,0,1.51,0,2.85-.84l3.86-5.03c5.7-5.37,4.86-3.86,3.69-1.85s-2.85,4.53,1.34,1.34c1.51-1.68,2.35-2.35,2.85-3.19,3.19-4.19,1.68-3.35-1.01-1.85,10.4-10.57,9.73-3.19,15.6-8.72,7.72-8.05.5-5.54,1.68-8.22,2.01,2.35,18.28-10.06,30.03-21.47,4.03-4.86,8.89-9.39,13.92-14.09.67-.67,1.34-1.17,1.85-1.85l1.51-1.34c.84-.84,2.01-1.51,2.85-2.52.5-.34,1.01-.67,1.68-.84.67,0,1.34.17,1.85.5.34.17.5.34.84.5s.5.34.84.5l.84.67.34.34.17.17h.17c0,.17.17-.34-.17.5l1.51.84c.5.34,1.01.5,1.68,1.01,1.34.84,2.68,1.85,4.03,2.68,3.02,2.52,6.37,5.54,10.06,8.72,3.69,3.19,7.72,6.37,11.91,9.39,0,.17-.17.17-.17.34h.5c1.34,1.51,3.35,3.02,5.54,4.7,1.17.84,2.35,1.68,3.52,2.52l.84.67c.34.17.84.5,1.17.84.84.5,1.68.84,2.68,1.01.84.17,1.85.34,2.68,0,.84-.17,1.68-.5,2.52-.84s1.51-.84,2.18-1.17c.5-.34,1.01-.84,1.51-1.17,1.01-.67,1.85-1.34,2.68-1.68.5-.34,1.01-.5,1.34-.5l1.34-1.34c6.71-6.21.34.5,4.53-2.85,6.21-5.87,15.1-12.58,17.95-16.1.5-.34-.17.17.5-.17l5.2-4.53c.17-.5,1.17-1.51.17-1.01,1.17-1.01,2.18-2.01,4.03-3.35,4.53-3.52.84-.17,2.52-1.17.67-.5,1.34-1.01,1.85-1.51.34-.34.67-.5,1.17-.67.5,0,.84.34,1.17.5l.34.34.5.5,1.01,1.01c2.68,2.68,5.37,5.54,7.88,8.22,5.2,5.7,10.06,11.41,14.26,16.94-1.01,1.01,8.89,13.42,13.59,18.12,3.86,5.54,9.06,10.4,14.43,14.76,5.2,4.19,10.23,8.22,13.42,12.25-5.37-3.02-11.74-11.24-13.76-10.9l1.51,2.35c4.19,4.7,10.74,11.91,14.59,13.25-2.01-2.85-1.51-3.69-2.01-4.86,2.35,1.51,3.02,1.51,5.7,3.69,3.86,3.35,7.72,7.21,7.05,7.88-2.35-1.51-4.36-3.86-6.21-5.37-1.51.17,5.2,6.21,7.21,8.39-1.17-2.68,1.17-1.85,2.52-1.68s1.68-.34-2.85-5.7l6.04,4.86c3.02,1.17-1.34-3.35-4.7-7.55-3.52-4.19-6.04-7.72-.34-3.86,1.51.5.67-1.34,4.36,1.34-1.17-2.52-4.7-5.87-6.54-7.05-1.01-3.86-13.59-13.92-12.08-16.1-10.9-7.55-12.75-14.43-21.64-22.31-11.41-9.9-5.03-2.35-9.06-4.36-2.68-2.68-5.54-5.03-8.39-7.05-2.68-2.01-5.2-3.86-7.21-5.2-3.19-2.68-4.7-4.7-2.52-3.02l-8.55-7.88-4.19-4.03c-.34-.34-1.01-.84-1.51-1.34-.67-.5-1.34-.84-2.01-1.17-1.51-.5-3.02-.17-4.36.67-.67.34-1.34,1.01-1.85,1.34l-1.17,1.01-2.35,1.85-4.53,3.52c-3.02,2.35-6.21,4.7-9.39,7.05-6.37,4.53-12.75,9.06-19.29,13.25l-2.52,1.68-1.17.84-.67.34-.34.17-.17.17-2.35,1.34c-.34.17-.84.17-1.17,0,0,.17-.84-.84-1.51-1.34l-2.01-2.01c-4.03-4.86-8.39-8.72-12.58-12.92-4.36-4.19-8.72-8.22-12.25-13.59l1.17,1.85c0,.5-1.17-.5-2.18-1.17,1.17,1.85,2.18,3.52,3.19,5.37-2.52-2.68-5.2-5.2-8.05-7.55-1.34-.84-3.02-2.52-5.2-4.7-1.01,2.18-.34.67-.5,1.17h-.17l-.17-.17-.5-.34c-.34-.17-.67-.34-.84-.67-.67-.34-1.34-.84-1.85-1.17l-2.01-1.01c-.67-.34-1.34-.5-2.18-.67-1.51-.34-3.19-.5-4.86-.17-1.68.34-3.19.84-4.53,1.68s-2.85,1.85-4.03,3.19c-1.34.84-2.52,2.18-3.52,3.19-.17.34-.5.5-.67.84l-.5.5c-.34.34-.5.67-.67,1.01-.34.67-.67,1.17-1.01,1.68-7.72,6.71-10.23,8.39-12.75,10.06s-5.03,3.35-12.75,10.23c-7.05,8.55-14.93,18.62-24.16,27.85-3.35,3.35-6.88,5.7-6.71,4.86-3.69,4.36-9.06,10.4-12.92,14.76-7.55,10.23-6.54,10.06-2.68,6.71,3.52-4.19,10.23-10.74,13.59-14.09Z"/><path class="e" d="m267.66,175.71c-1.01-.34,2.68,4.7,3.69,6.71l1.85,2.01c4.36,5.37,5.37,4.7,2.85,1.01-1.34-.84-5.87-6.54-8.39-9.73Z"/><path class="e" d="m231.59,180.07l.34-1.01c-2.01,2.01-4.03,3.86-6.21,5.87.5,0,3.52-2.85,5.87-4.86Z"/><path class="e" d="m358.24,258.24c-5.7-5.54-7.38-8.55-13.76-14.09l-.17,2.52c2.68,3.19,5.54,6.37,8.55,9.56,1.51,1.68,3.19,3.19,4.86,4.86.84.84,1.68,1.51,2.52,2.35s1.68,1.68,2.68,2.52c3.19,2.01.67-.34-1.34-2.85-2.18-2.68-5.03-5.54-3.35-4.86Z"/><path class="e" d="m348.01,243.81c5.54,4.36,10.74,10.06,15.77,15.6,1.34,1.51,2.35,2.85,3.52,4.19.67.67,1.17,1.01,2.01,1.85.67.67,1.34,1.34,2.01,2.18,1.17,1.51,2.01,3.02,2.85,4.53l.17.34c0,.17.17.34.17.34.17.34.17.5.17.67.17.34.17.5.5.67.34.34,1.01.34,1.51.34h.34c.17,0,.34.17.67.17-.17-.17-.34-.17-.5-.34-.17,0-.17-.17-.34-.17-.34-.17-.67-.17-.84-.67q0-.17-.17-.34c0-.34-.17-.67-.34-1.17-.34-.67-.5-1.17-.84-1.85-.67-1.34-1.34-2.85-2.52-4.19-.5-.67-1.17-1.51-2.01-2.18l-.5-.5-.34-.34-.67-.67c-1.01-1.01-1.85-2.18-3.02-3.52-1.17-1.17-2.35-2.35-3.35-3.52-2.18-2.18-4.03-4.19-5.2-6.04-4.53-4.19-7.38-6.54-13.08-11.91-4.7-3.52,1.51,3.52,4.03,6.54Z"/><path class="e" d="m381.22,276.36c1.51.5,3.35.67,4.19.84.5,0,.17,0-.67-.17-.67-.17-1.85-.5-2.35-.67-1.51-.5-5.54-1.34-1.17,0Z"/><path class="d" d="m36.67,35.48c.84.17,1.68.67,2.52,1.17.67.5,1.34,1.17,1.85,1.85.5.67.67,1.34.84,1.85.17.34.17.5.17.84v.17c.17.5.67,1.17.84,1.51.5.84.34,1.01,2.01,2.52-1.68-1.17-3.19-2.18-4.03-3.52,0-.17-.17-.34-.17-.5,0-.34-.17-.5-.34-.84-.17-.67-.5-1.17-1.01-1.68-.84-1.17-2.18-1.85-3.35-2.18-2.35-.67-4.36-1.01-6.21-1.51-3.69-.67-6.21-.84-5.03-.84.34,0,2.01,0,4.19.17,1.01.17,2.35.17,3.52.34,1.51.17,2.68.34,4.19.67Z"/><path class="d" d="m22.75,34.64c1.17.17,1.34.17,2.35.34l-3.19-.17.84-.17Z"/><path class="d" d="m52.11,50.24l4.53,3.19c1.01.84-1.68-1.01-1.51-.67l4.7,4.03c-6.54-5.2-6.88-4.7-7.72-6.54Z"/><path class="d" d="m105.78,100.56c2.68,3.35-3.35-1.01-5.03-1.68-2.68-2.35-4.53-4.86-2.01-3.52,3.52,3.02,5.2,3.86,7.05,5.2Z"/><path class="d" d="m78.44,69.7c-2.35-.5-11.57-8.39-11.24-6.88.17.67.34,1.17,1.34,2.35l5.2,3.35c5.87,4.86,4.36,4.19,2.52,3.02-2.01-1.01-4.53-2.52-.84,1.01,1.68,1.34,2.68,2.01,3.52,2.52,4.19,2.68,3.35,1.68,1.34-.67,11.57,9.06,5.2,8.05,11.41,13.08,8.72,6.71,4.86.84,7.38,1.85-.67.67,2.52,4.53,7.55,9.56s11.57,11.07,17.78,16.1c6.21,4.36,12.25,9.56,18.62,15.1,6.37,5.37,13.08,10.9,20.63,16.1,5.87,5.03,13.42,11.57,21.47,17.78l-.17.17c.17.17.34.17.5,0,2.52,2.68,7.55,6.37,12.08,9.56.5.34,1.01.84,1.68,1.17.34.17.5.34.84.67.34.17.67.5,1.01.67,1.34.84,3.02,1.34,4.36,1.17,1.51-.17,2.52-.67,3.35-1.01.67-.34,1.34-.67,1.51-.67.5-.5,1.01-1.01,1.34-1.51,1.68-1.68,2.18-2.35,2.68-2.52.34-.34.34-.17.17,0-.17.17-.34.5-.34.5,0,0,.34-.17,1.34-1.01,6.21-5.54,14.93-12.25,17.78-15.6.5-.34-.17.17.5-.17l5.2-4.36c.34-.34,1.17-1.34.17-.84,1.17-1.01,2.18-2.01,4.03-3.35,4.36-3.52.67-.17,2.35-1.34,11.07-8.89,23.99-18.79,35.39-26.17.67.84,13.42-8.22,18.45-12.25,11.41-6.71,21.3-18.45,29.52-23.99-3.86,4.53-12.41,10.23-12.58,11.74l2.35-1.34c4.86-3.52,12.75-9.39,14.76-12.58-2.85,1.68-3.35,1.51-4.53,1.85,1.85-2.01,2.01-2.52,4.53-4.86,3.69-3.35,7.88-6.71,8.39-6.21-1.85,2.01-4.19,3.69-6.21,5.37-.17,1.17,6.54-4.53,8.89-6.21-2.52,1.01-1.17-.84-.84-1.85.5-1.01.17-1.34-5.54,2.68l5.7-5.2c1.85-2.52-3.19,1.17-7.55,4.19s-8.05,5.37-3.35.5c.84-1.17-1.01-.5,2.35-3.69-2.35,1.01-6.21,4.19-7.55,5.7-3.52,1.01-15.1,11.74-16.61,10.74-9.06,9.23-15.26,11.07-24.16,18.79-11.07,9.9-3.19,4.19-6.04,7.72-5.87,4.7-10.9,10.06-14.26,13.25-3.02,2.68-5.2,4.03-3.19,2.18-11.57,9.73-23.48,19.46-35.73,28.68-3.02,2.35-6.21,4.53-9.23,6.88l-4.7,3.35-2.35,1.68-1.17.84c-.5.34-.84.67-1.34,1.01-.84.67-1.51,1.34-2.18,1.85-.34.17-.67.5-1.01.67-.34.17-.5.34-.67.34-.34.17-.5,0-.5,0,0,0-.34-.17-.67-.5-2.68-2.52-5.37-5.03-8.05-7.72-4.19-4.53-8.72-8.55-13.08-12.58-4.36-4.03-8.89-7.88-12.75-12.75l1.34,1.68c0,.34-1.17-.67-2.18-1.34,1.17,1.68,2.52,3.19,3.69,4.7-2.68-2.52-5.37-5.03-8.05-7.21-4.03-1.34-15.6-13.42-20.46-15.43-7.38-6.71-9.56-8.72-11.57-10.9s-4.03-4.36-11.57-10.9c-8.89-6.21-19.46-13.42-29.52-21.3-3.69-2.85-6.54-5.87-5.87-5.7-4.53-3.19-10.9-7.88-15.6-11.24-10.4-6.71-10.06-5.87-6.21-2.52,3.52,3.52,10.74,9.39,14.43,12.25Z"/><path class="d" d="m268.16,129.75c-.5.84,4.7-2.52,6.54-3.35l2.18-1.68c5.54-3.86,5.37-4.53,1.51-2.35-1.01,1.17-7.05,5.2-10.23,7.38Z"/><path class="d" d="m225.39,163.63l.5-.84-6.21,5.54c.34,0,3.35-2.68,5.7-4.7Z"/><path class="d" d="m360.08,51.75c-6.21,5.03-9.06,6.37-15.26,11.91h2.01c6.54-4.7,13.59-9.73,20.8-16.27,2.18-2.85-.17-.5-2.68,1.34-2.85,2.01-5.87,4.36-4.86,3.02Z"/><path class="d" d="m345.49,60.81c4.36-4.03,9.39-7.88,14.26-11.57,1.17-1.01,2.52-1.85,3.69-2.85,1.17-1.01,2.52-1.85,3.52-2.85,1.01-1.01,1.85-2.01,2.35-3.19.17-.34.17-.5.34-1.01.17-.34.17-.84.5-1.17.5-.84,1.51-1.01,2.35-1.17.5,0,.67-.17,1.01-.17l.84-.34c.5-.17,1.17-.5,1.68-.67.67-.17,1.34-.34,1.85-.5.5,0,1.17-.17,1.68-.34h-2.68c-.67.17-1.51.34-2.18.5-.34.17-.67.17-1.17.34l-.5.17h-.84c-.84.17-1.51.34-2.18.84s-1.17,1.34-1.34,2.01l-.17.5c0,.17-.17.17-.17.34s-.17.34-.34.5c-.17.34-.34.67-.67,1.01-1.01,1.34-3.02,2.68-4.86,4.19-3.86,3.02-7.38,5.87-10.23,7.55-4.7,3.86-7.38,6.21-13.25,11.24-4.19,4.36,3.35-1.01,6.54-3.35Z"/><path class="d" d="m383.23,34.81c1.51-.34,3.35-.84,4.19-1.01,1.17-.34-1.85.34-3.19.5-1.51.34-5.37,1.34-1.01.5Z"/><path class="e" d="m384.91,57.95c0-1.01-.34.5-.84,1.34-.5,1.01-1.01,1.51-1.17-.17-.34.67-.5,1.51-.67,2.18v1.34c.17,1.01.5,2.18.34,3.02-1.85.17-3.69-1.51-5.03,2.01-1.01,4.86,3.86.67,4.03,4.86l.5-3.02c3.19,3.02,1.17,9.9,1.85,14.93-2.18,3.86-6.88,7.21-6.04,12.08-.34-.34-1.01-1.51-2.01-1.17-.84.84-.5,2.52,0,3.52,2.18,2.52,3.02-.67,4.7.17,1.01,2.18,2.68,4.19,1.51,7.21l-4.19,3.69c5.2,2.52.17,6.54,1.85,11.57-2.68,1.01,1.17,6.21-1.68,7.21,0,2.35-7.38.5-9.39,2.35-1.68,3.35-1.17-2.35-3.02,1.01-1.01-3.69,7.21-1.17,6.37-6.04l-1.01.17c-1.51-2.01,1.51-5.54-1.17-6.88.5-5.37,3.86.17,6.21-2.52-2.35-1.51-3.02-7.55-6.54-7.72v4.19c-.17-.67-.84-.17-1.17-.5,3.19-2.85-9.9-10.4-.17-8.22.67.5.34,2.01,1.34,2.35,2.35-.17,1.17-3.02,1.34-5.2-2.35-2.18-6.37-4.7-5.03-8.05.67-1.17,2.01-.5,2.68-1.68-2.52-6.88,3.02-6.71,1.85-13.92,2.85-4.53.84-10.06,3.69-14.76-2.18.67-.84-3.19-.34-4.03.5-.34,1.17-1.01,1.51-2.01.34-1.01.34-2.35-.17-3.19.34,1.17,1.17.17,1.85,1.01-1.01-2.35-1.34-3.69-1.01-4.86.17-1.17,1.01-2.35,1.68-3.02,2.01,1.51,3.69,2.52,5.03,3.69,1.68,1.68,2.85,3.69,2.35,7.05Z"/><path class="e" d="m380.38,141.99c-4.19-.84-1.34,6.88-6.04,3.35-.84,2.52,0,3.69,1.17,5.03,1.51-2.85.67.67,2.52-.84,2.18,9.23,2.18,17.95,1.68,26.5-3.02,6.37-.17,11.91,2.85,18.12-1.17,3.69-4.36,1.34-6.54.5l-.17,4.7-2.68-4.7c-1.68-.17-1.68,2.01-2.85,3.19l.34,1.34c-7.55-1.51.17-9.39-2.01-13.92.5,5.37,2.52-.84,4.03,1.51l.34-1.68c0,1.51,2.18,4.53,2.68,8.39.84-10.9-2.01-21.64-5.7-30.53.5.34,1.01,1.01,1.68.17.17-3.19-3.86-5.03-5.2-6.54l1.17,1.34c1.68-2.01-.84-5.2-1.17-7.55,1.85-2.68,4.19-4.36,2.68-8.72l1.68.17.84-3.52c.34.84,1.01.5,1.34.34.5.34.17.5,0,1.01,2.35.17,5.7-1.68,7.55-3.52-.17.67-.34,1.17-.17,1.68,1.01-1.68,2.85-7.21,5.2-4.36-.34,4.36-5.87,4.19-5.2,8.55Z"/><path class="e" d="m369.48,121.7c-1.34,3.35-1.68-1.01-3.35-.17l-.17-3.02c1.68-.17,1.85,2.85,3.52,3.19Z"/><path class="e" d="m382.9,215.13c-1.51.34-.84,2.52-1.17,3.69,1.17,2.52,2.85,3.02,2.01,6.54-4.36-2.68-5.37,3.02-8.05,5.54-.5-1.85-3.19-5.03-.84-7.72,1.34.34,2.01-2.18,2.52-3.35-2.18-1.85-6.54,1.51-7.38-6.21.67-1.51-.34-5.03,2.01-4.7.84-1.01-2.18-1.85-.17-3.02l1.01-.5,1.51,4.86c-.34.17-1.01.5-.84,1.01,1.68-.84,3.52,5.2,6.54,2.18l-.17-6.71c1.01-1.68,2.52.67,2.85,3.02-1.68,3.35-1.34,3.02.17,5.37Z"/><polygon class="e" points="377.36 198.52 378.03 198.19 378.7 204.06 377.36 198.52"/><path class="e" d="m383.9,236.94c-.67-1.17.17-2.18-.67-3.35l3.02-.17-2.35,3.52Z"/><path class="e" d="m366.46,176.05c-2.85-1.51-1.34-5.54-3.69-6.71,0,1.01.67.67,1.01,1.01l.84-2.01c2.01,2.52,1.34,4.86,1.85,7.72Z"/><path class="e" d="m383.57,248.34c0,.5.17,1.01.34,1.34s.34.67.5.84c.34.5.84,1.17,1.17,1.85.34.67.67,1.51.67,2.52s-.17,2.52-.84,4.7c-.67.84-.84.17-1.17-.34s-.5-.84-1.17.34c-1.17,2.35-.34,3.19-.34,4.86.5-.17,1.01-.5,1.34-.67-1.34.67-3.19,2.35-5.03,2.85-.17,0-.5.17-.67.17h-.5c-.34,0-.67-.17-.84-.34-.5-.34-1.01-.84-1.34-1.68,1.51-1.51,2.01-3.35,1.85-4.86,0-1.51-.67-2.85-1.34-3.86-1.17-2.01-2.35-3.69-.84-6.04l3.35-.84-.84-2.68c.34-.17,1.17-.17.84-1.01-1.34-1.85-1.51,1.34-3.19,1.17l-2.01-5.03c.17-.67,1.01.5,1.34.34,1.51-2.35-3.19-3.86-.34-6.04l1.85,3.19c.34-3.86,1.85-6.71,2.85-9.39-.67,7.55,7.72,11.74,4.36,18.62Z"/></g><g id="c"><path class="d" d="m400.67,27.28c-.71-.34-.53-.51-.18-.51s.71,0,1.06-.17l.71.34c.18.17.35.51.53.84.18.17.53.34.18.34-.53-.17-1.76-.51-2.29-.84Z"/><path class="d" d="m403.67,28.12q-.18-.17,0,0h.18-.18Z"/><path class="d" d="m400.32,25.94c-.18-.17-.35-.17-.53-.34,0,0,.53.17.71.17,0-.17.18-.17.18-.34,0,.51,1.06.51-.35.51Z"/><path class="d" d="m408.43,21.56c1.23-.34,2.12.17,2.82.34-.18.17-1.59.34-2.47.17.35-.17-.35-.34-.35-.51Z"/><path class="d" d="m398.03,24.08c1.76.17,1.23.84,2.65.84.53,0,1.23,0,1.59-.17l-.88-.34c.18-.51.71-.34,1.41-.17.71.17,1.23.34,2.12,0q0-.17-.35-.34c-.88-.34-1.41-.17-2.12,0-.53-.84,4.59-.51,4.59-1.01-.53-.67-3.88-.34-4.94-.34,1.59,0,3-.34,4.23-.67,1.06-.34,1.94-1.01,1.94-1.52-.71-.51-.35-1.01-.18-1.52.35-.51.35-1.01-.71-1.52.35-.51.71-1.01.53-1.68h.35-.35c.71-.17.18-.67-.18-1.01-.35-.34-.53-.67.35-.67l-.35-.17c-.71-.51.71,0,.53-.34-.71-.51-.35-1.18-1.41-1.35h.18c-.18-.17-.18-.34-.35-.34s-.53-.17-.71,0c0-.17-.35-.17-.18-.34,0-.34.53,0,.71-.17,0-.51.18-.84.53-1.35.53-.51,1.23-.84,2.29-1.35.88,0,1.59-.17,2.29-.51.53-.34,1.06-.67,1.23-.84,1.41-.34,1.23-.84.53-1.18-.71-.34-1.41-.84-.53-1.01,1.59.34.18,1.01,1.76,1.01l.71-.17c.53-.34,1.23-1.01-.71-1.18-.71.17-1.59.17-2.29.34-.53-.17-1.06-.17-1.41-.34-.35-.34-.18-.67.71-.67.53.17.18.34.53.51,1.23,0,.88-.51,1.06-.67-1.23.17-2.29,0-3.17,0s-1.41,0-2.12.34l-.71-.51c-1.23-.17-1.59.17-2.29.51-.53.34-1.23.51-2.65.17-.71,0-1.59,0-2.12-.17-1.06.17-1.06.51-.53.51-2.12.17-.53,1.18-3.35,1.18,2.29.84-1.59,1.18-.88,1.85,1.06.84,1.94.34,3.53.51,0,.51,1.59.84,2.12,1.18.18.17-.18.34-.53.17.53.84.71,1.85-.18,2.69-.71.84-2.82,1.85-4.41,2.69-1.41.34-1.76.67-2.29,1.01-.53.34-.88.67-3,1.01l.71-.17q.35,0,.53.17c.71-.17,1.41-.17,2.12-.34-.35.17-.71.51-.88.67,2.29.17-.88,1.18,1.59,1.52-.71.67-1.23.84-1.94,1.01-.53.17-1.23.34-1.76,1.01,1.23.67,2.82,1.35,3.17,2.19.18.34-.71.51-1.23.51.53.34,1.41.84,1.76,1.18,2.12.67,2.82.67,3,.34.35-.17.53-.84.35-1.01Z"/><path class="d" d="m409.49,9.43c.53,0,1.59-.34,2.29-.51l.18-.17c.71-.34-.53-.34-1.41-.17.35.17-.53.51-1.06.84Z"/><path class="d" d="m408.61,12.63h-.53c.18.17.53.34.88.51.18,0-.18-.34-.35-.51Z"/><path class="d" d="m404.9,2.19c0,.51-1.06.67-.71,1.18l1.94-.17c.35-.17.71-.51.88-.67.18-.34.18-.51-.18-.84-1.59-.51-.35.67-1.94.51Z"/><path class="d" d="m401.55,3.2c-.71-.51-.18-.84.35-1.35.18-.17.35-.51.53-.67.18-.17.18-.34.18-.67-.88.17-1.76.51-2.47.84-.35.34-.35.84-1.23,1.18.18.34.35.51.71,1.01.88.51,1.59-.17,1.94-.34Z"/><path class="d" d="m403.32.34q.18-.17.18-.34s-.18.17-.35.17c-.18.17-.18.51.18.17Z"/><path class="e" d="m129.09,124.29c-2.12-1.01-2.65-1.52-2.82-1.85s0-.67-.53-1.18l2.12,1.01c.53.34,1.41.84,1.94,1.35.71.51,1.23.84,1.76,1.18.88.67,1.23,1.35,1.06,1.18,0-.17-.53-.34-1.06-.67-.88-.34-1.59-.51-2.47-1.01Z"/><path class="e" d="m133.32,126.31q-.18-.34-.35-.67c.35.34.53.67.53,1.01q0-.17-.18-.34Z"/><path class="e" d="m122.56,119.74l-1.76-1.01c-.35-.34.71.17.71,0l-1.76-1.52c2.47,2.02,2.82,1.52,2.82,2.53Z"/><path class="e" d="m104.22,99.36c-.71-1.52,1.76-.34,2.65-.34.88.84,1.41,2.19.18,2.02-1.41-1.01-2.12-1.18-2.82-1.68Z"/><path class="e" d="m111.98,113.68c1.41-.34,4.76,2.53,4.94,1.52,0-.34.18-.84-.18-1.35l-2.29-.84c-2.29-1.85-1.59-1.68-.53-1.52.88.17,2.12.51.88-1.01-.71-.51-1.06-.67-1.41-.84-1.94-.67-1.59-.17-1.06,1.01-4.59-3.03-.71-4.38-3.17-6.06-3.53-2.19-2.82,1.01-4.06,1.01.71-.84-.18-2.53-1.76-4.72s-3.88-4.55-6.35-6.4c-2.47-1.35-4.76-3.2-7.05-5.22s-4.94-4.04-8.11-5.39c-2.12-1.85-4.94-4.38-7.94-6.57l.18-.17q-.18,0-.35.17c-.88-1.18-2.82-2.36-4.59-3.37s-3.17-2.02-3.17-2.69l-.71-.34c-3-1.68.18-.34-1.23-1.52-2.82-1.52-5.82-4.21-7.58-4.55-.18-.17.18,0,0-.17l-2.12-1.35c-.18,0-.71-.17-.53.17-.53-.34-1.06-.51-1.59-1.01-1.59-1.35,0-.34-.53-1.01-4.23-3.2-8.64-7.07-11.82-11.28.71-.84-3.17-5.05-5.11-6.74-2.65-4.55-8.99-5.56-11.29-8.59,2.47.51,4.76,3.54,5.82,2.86l-.53-1.01c-1.59-1.68-4.23-4.21-6-4.04.71,1.18.35,1.52.53,2.19-1.06-.34-1.41-.17-2.47-.67-1.59-1.01-3.17-2.19-2.65-2.69,1.06.34,1.76,1.18,2.65,1.52.71-.51-1.76-2.19-2.82-3.03.53,1.35-.71,1.18-1.41,1.35-.35,0-.53.17-.53.67.18.34.53,1.01,1.41,1.85-.88-.51-1.76-.84-2.65-1.35-1.41,0,.53,1.52,1.76,3.03,1.23,1.52,2.29,2.86-.18,2.02-.71,0-.53.84-2.12.17.35,1.01,1.76,2.19,2.65,2.36.18,1.85,5.47,4.55,4.41,6.06,4.76,1.68,4.94,5.05,8.64,7.41,4.76,2.86,2.29.17,4.23.34,2.12,1.68,5.11,2.53,6.7,3.2,1.23.84,1.94,1.52.88,1.18,4.76,3.2,9.35,6.57,13.4,10.27,4.23,3.87,7.94,8.25,11.64,12.46,1.23,2.02,2.82,3.71,4.41,5.22s3.17,3.2,4.06,5.56l-.35-.84c0-.17.53,0,.88.34-.35-.84-.53-1.52-.88-2.36.88,1.01,1.76,2.02,2.82,2.86,2.12-.17,5.64,5.05,8.29,4.88,2.65,2.53,3.35,3.54,3.88,4.38.71,1.01,1.23,2.02,4.06,4.38,3.7,1.85,8.29,3.87,12.17,6.4,1.41,1.01,2.29,2.36,1.94,2.36,1.94,1.01,4.59,2.36,6.53,3.37,4.59,1.68,4.59,1.18,3.17,0-1.76-.84-4.41-2.86-5.82-3.87Z"/><path class="e" d="m44.44,53.55c.53,0-.88-2.02-1.23-2.69l-.71-.67c-1.76-1.85-2.29-1.35-1.41.17.88,0,2.47,2.19,3.35,3.2Z"/><path class="e" d="m60.31,66.19l-.53.17c.88.51,1.76,1.01,2.82,1.52,0-.34-1.41-1.01-2.29-1.68Z"/><path class="e" d="m6.17,29.81c2.65,1.35,3.35,2.36,6.17,3.71,0-.51.18-.84.18-1.35-1.23-1.01-2.65-2.02-4.06-2.69-.71-.34-1.41-.84-2.12-1.18l-1.06-.51c-.18,0-.35-.17-.53-.34-.53,0-.53-.17-.53.17,0,.17.18.51.53.67.18.17.35.34.71.51.18.17.53.34.71.51.35.17.35.34,0,.51Z"/><path class="e" d="m10.76,34.52c-1.23-.51-2.47-1.01-3.7-1.68-.53-.34-1.23-.67-1.76-1.18l-.88-.51c-.35-.17-.53-.34-1.06-.67-.88-.67-1.23-1.52-1.59-2.19-.35-.84-.35-1.52-.53-2.19-.18-1.35-.35-2.53-.53-3.54-.18.34-.35,1.01-.53,2.02,0,1.01-.18,2.19.35,3.87.18.84.71,1.68,1.59,2.53.18.17.35.34.71.51.18.17.53.34.53.34.35.17.53.34.88.51,1.06.67,2.12,1.18,2.65,1.85,1.94,1.01,3.17,1.35,5.29,2.69,1.76.84-.35-1.52-1.41-2.36Z"/><path class="e" d="m.71,21.22c0-.34-.18-.51-.35-.84q0-.17-.18-.34v-.34c0-.17,0,0-.18.17v.67c0,.17.18.34.18.34.35.51.88,1.85.53.34Z"/><path class="e" d="m20.46,275.01h0l-.18.34c.35.51,0,1.35-.53,2.36.18,0,.35,0,.35.34-.88,1.68-.35.84-.35,2.19.18-.34.18-.84.35-1.01-.18.84-.35,1.68-.53,2.53.35-.34.71-.51.88,0,.71-.17,1.23.84,1.76,1.35.18-.34.35-.67.53-.84.18.17.18.51.18,1.01,0,0,.18,0,.18-.17l-.18.17c0,.34-.18.67-.18,1.01.18-.17.18-.34.35-.17l.35-1.35s.18,0,.18.17v-.34l-.18.17c-.18,0-.18-.17-.18-.34,0-.34.18-.51.35-.67v-.84c-.35-.34-.88,1.85-.88.51l.18-.34c0-.51.18-1.35,0-1.68.71-.34,0-1.68.88-1.52.53-1.01.88-2.19,1.41-3.37.53-1.35,1.06-2.86,2.12-3.54,0-.67-.88-1.35,0-2.53.35,0,.71-.17.71,0,.18-.17.53-.34.71-.51-.53.17-1.06.51-1.41.34,1.23-.67-.88-.17-.88-.34.53-.34,1.06-.67,1.76-1.01h-.35c-.88.34-1.76.67-2.65,1.18-.71.67-1.41,1.35-1.76,2.19-.53.84-.88,1.68-1.41,2.69-1.06.67-1.41,1.35-1.59,2.02h0Z"/><path class="e" d="m59.43,250.6l-.35-.34c14.99-15.66,38.8-32.84,58.02-51.7l1.06,2.02c4.06-5.73,9.7-11.79,13.4-17.51l-2.12,1.52c.88-2.53,4.94-7.07,7.76-9.43l.18.67c-3.53,3.71.35-.17,0,2.36l-.53.84.53-.17.53-.84c.18.34.53.51,0,1.18l.88-.84c3-.67,4.06.34,4.94,1.68.35-.67-1.41-1.35,1.06-2.86l.18.67,1.59-2.86,1.59-.51c.53-1.01.88-1.68,1.76-2.36l-.53-1.01c2.12-1.52,4.06-3.71,6-5.73l3.17-3.03c.71-.67,1.41-1.18,1.94-1.01,0-.34.18-.51.35-.51.35,0,.53,0,1.23.17.71,0,1.41,0,2.29-.17.71-.17,1.06-.34,1.23-.51-.18-.34-.71-.67-1.23-1.01-.71-.17-1.41-.17-2.12-.34-1.59-.51-3-.34-4.59,1.01-.71.51-1.76,1.52-2.65,2.36s-1.94,1.52-2.82,2.19l-.35-.67c.71-.84.88-1.68,2.12-2.36l-.53-1.01c-4.59-1.35-6.17,6.74-7.94,7.58-3.7,1.85.18-3.37-1.06-2.02,2.12-4.04-4.76.51-7.05.67-5.64,1.52-12.87,9.94-17.81,14.48-1.59,2.36-3.53,4.55-5.82,6.9-2.29,2.36-4.59,4.55-7.05,6.57-4.94,4.04-10.05,7.92-13.76,11.28-3.88,3.03-6.7,11.45-11.64,11.12l-7.41,5.73-.35-.67c-6.88,5.89-13.23,13.64-19.22,19.7-2.65,2.53-2.29,4.55-4.76,4.38-6.35,4.04-10.93,11.79-15.87,16.84.53.34.18,1.52,1.41.84,2.12-3.03,6.17-4.88,7.41-3.87l-1.06.84,2.65-.84.71-1.35c.53,0,.88.17,1.06.17,2.29-1.52,5.11-2.02,7.76-3.2,1.41-2.02,3-3.54,5.82-5.05Z"/><path class="d" d="m9.7,247.73c-.53-2.86-.35-3.71-.18-4.21.18-.51.53-.51.53-1.52l.53,2.69c0,.84.18,2.02.18,3.03.18,1.18.53,2.19.88,3.03.88,1.68,1.76,2.53,1.23,2.19-.18-.17-.88-.67-1.41-1.52-.71-1.01-1.41-2.36-1.76-3.71Z"/><path class="d" d="m14.11,253.46c-.35-.34-.35-.51-.71-.84l1.06,1.01c0-.17-.18-.17-.35-.17Z"/><path class="d" d="m9.35,237.96l-.35-2.53c0-.51.35.84.53.84l.18-2.86c-.18,3.87.53,3.71-.35,4.55Z"/><path class="d" d="m14.64,204.62c.88-1.85,1.41,1.52,1.94,2.19-.18,1.68-1.06,3.03-1.59,1.68.18-2.02-.35-2.86-.35-3.87Z"/><path class="d" d="m7.58,223.14c1.23,1.01.88,6.57,1.76,5.89.35-.17.71-.51,1.06-1.18l-.71-2.86c.18-3.54.53-2.69.88-1.68s.88,2.36,1.41,0c0-1.01,0-1.52-.18-2.02-.53-2.36-.88-1.68-1.41-.34-.35-6.74,3-4.21,3.17-7.75-.35-5.05-2.65-1.85-3.35-3.2,1.06,0,1.94-2.19,2.82-5.39.71-3.2,1.23-7.24,1.23-10.95-.53-3.37-.18-7.07,0-10.95s.18-7.75-.53-11.96c.18-3.54.53-8.08.35-12.63h.18c0-.17-.18-.17-.18-.17.53-1.68.18-4.55-.18-7.07-.18-2.53-.35-4.72.18-5.05l-.18-.84c-.53-4.04.35,0,.35-2.36-.53-3.87-.18-8.76-.88-10.78,0-.34,0,.17.18-.17l-.18-3.03c-.18-.17-.35-.84-.53-.34,0-.67-.18-1.35-.18-2.36,0-2.53.35-.34.35-1.18,0-6.4.35-13.81,1.94-20.04,1.06,0,2.12-7.07,2.29-10.1,2.12-5.89-1.06-12.8,0-17.35,1.06,2.69.18,7.24,1.23,7.75l.53-1.18c.35-2.69.88-7.24-.35-8.76-.53,1.52-1.06,1.68-1.41,2.19-.35-1.18-.71-1.52-1.06-3.03-.18-2.19-.18-4.72.53-4.72.35,1.18.18,2.53.35,3.71.88.34.71-3.54.71-4.88-.71,1.18-1.59.17-2.12-.34-.53-.51-1.06-.51-1.41,2.69l-.53-3.54c-.88-1.35-1.06,1.52-1.41,3.87s-.88,4.38-1.76,1.35c-.53-.67-1.06.17-1.41-1.85-.71,1.18-.71,3.37-.35,4.38-1.41,1.52-.35,8.76-2.29,8.93,1.59,5.89-1.06,8.59-.53,13.98.71,6.74,1.23,2.36,2.29,4.38,0,3.37,1.06,6.74,1.41,8.76.18,1.85,0,3.03-.35,1.68.35,6.9.53,13.98,0,20.88s-1.94,13.98-3,20.88c-.88,2.86-1.23,5.56-1.59,8.25-.35,2.69-.53,5.39-1.94,8.25l.53-.84c.18-.17.35.51.35,1.18.53-.84.88-1.85,1.41-2.69-.35,1.68-.53,3.37-.53,4.88,1.59,1.85-.71,9.43,1.06,11.62-.53,4.55-.88,5.89-1.23,7.24s-.88,2.69-1.23,7.24c.71,4.88,1.94,10.78,2.12,16.5.18,2.19-.35,4.04-.88,3.71.35,2.53.88,6.23,1.23,8.76,1.41,5.56,1.94,5.22,2.12,3.03,0-2.19,0-6.4-.18-8.42Z"/><path class="d" d="m15.17,111.99c.35.34,1.06-2.36,1.59-3.37l.18-1.18c.53-3.03-.18-3.2-.88-1.18.18.84-.53,4.04-.88,5.73Z"/><path class="d" d="m14.64,136.92l-.35-.34c.18,1.35.35,2.53.53,3.87.35-.34,0-2.19-.18-3.54Z"/><path class="d" d="m12.17,57.09c0,3.54-.71,5.05-.35,8.76l1.23-.67c.53-3.71,1.06-7.58.53-11.96-1.06-3.03-.18,5.39-1.41,3.87Z"/><path class="d" d="m10.05,65.01c-.53-3.37,0-6.9.18-10.27.18-1.68.18-3.37.35-5.05,0-1.68.35-3.2.71-4.72-.35.34-1.06,1.18-1.41,2.53s-.71,2.86-.71,4.38c-.35,3.03-.18,6.57-.71,8.59,0,2.69.18,4.38.35,7.92.53,2.53,1.06-1.68,1.23-3.37Z"/><path class="d" d="m12.52,43.45c.35-.67.88-1.35,1.23-1.68s-.71.51-1.06,1.18c-.53.51-1.23,2.36-.18.51Z"/><path class="f" d="m377.39,270.64c-.71-2.02-.71-3.2-.18-3.54.35-.51.88-.67,1.23-1.68.35,1.01.71,1.85,1.06,2.69.18,1.68.35,3.71.18,5.05s-.53,2.36-.53,1.68c0-.17,0-.84-.35-1.68-.53-.84-1.06-1.68-1.41-2.53Z"/><path class="f" d="m379.51,276.36c.18-.51.35-.51.53-1.01,0,.51-.18,1.01-.35,1.35-.18,0-.18-.17-.18-.34Z"/><path class="f" d="m377.04,261.21l-.71-2.53c0-.51.71.84.88.84,0-1.01.18-1.85.35-2.86-.18,3.87,1.41,3.87-.53,4.55Z"/><path class="f" d="m387.97,227.86c1.76-1.85,2.65,1.52,3.88,2.19-.35,1.52-2.12,3.03-3.17,1.68.18-2.02-.71-2.86-.71-3.87Z"/><path class="f" d="m373.87,246.39c2.29,1.01,1.76,6.57,3.53,5.89.71-.17,1.59-.51,1.94-1.18-.35-1.01-.88-1.85-1.23-2.86.18-3.54.88-2.69,1.76-1.68s1.76,2.36,2.82,0c0-1.01-.18-1.52-.53-2.02-1.23-2.36-1.76-1.68-2.82-.34-.53-6.74,6.17-4.21,6.17-7.75-.71-5.05-5.11-1.85-6.7-3.03,2.12,0,4.06-2.19,5.64-5.39,1.59-3.2,2.47-7.24,2.65-10.95-1.06-3.37-.53-7.07-.18-10.95.35-3.87.35-7.75-.88-11.96.35-3.54,1.06-8.08.71-12.63h.53c-.18-.17-.35-.17-.53-.17.88-1.68.18-4.55-.18-7.07-.53-2.53-.71-4.72.35-5.05l-.35-.84c-.88-4.04.88,0,.88-2.36-1.06-3.87-.35-8.76-1.94-10.78,0-.34.18.17.18-.17-.18-1.01-.35-2.02-.35-3.03-.35-.17-.71-.84-1.06-.34,0-.67-.35-1.35-.18-2.36,0-2.53.53-.34.88-1.18-.18-6.4.88-13.81,3.88-20.04,2.12,0,4.41-7.07,4.59-10.1,1.94-3.03,1.59-6.23.71-9.26s-1.76-5.89-.71-8.08c2.29,2.69.18,7.24,2.47,7.75l1.06-1.18c.71-2.69,1.59-7.24-.88-8.76-1.06,1.52-2.12,1.68-3,2.19-.71-1.18-1.59-1.52-1.94-3.03-.35-2.19-.35-4.72,1.06-4.72.71,1.18.35,2.53.53,3.71,1.76.34,1.23-3.54,1.41-4.88-1.59,1.18-3,.17-4.06-.34-1.23-.51-1.94-.51-3,2.69l-1.06-3.54c-1.59-1.35-2.12,1.52-3,3.87-.71,2.36-1.76,4.38-3.53,1.35-.88-.67-2.12.17-2.82-1.85-1.41,1.18-1.41,3.37-.71,4.38-2.82,1.52-.71,8.76-4.41,8.93,3,5.89-2.12,8.59-1.23,13.98,1.41,6.74,2.65,2.36,4.76,4.38,0,3.37,2.12,6.74,3,8.76.35,1.85-.18,3.03-.71,1.68.35,3.54.53,6.9.53,10.44s-.18,6.9-.71,10.44c-1.06,6.9-3.7,13.98-6,20.88-1.76,2.86-2.47,5.56-3.17,8.25-.71,2.69-1.23,5.39-3.88,8.08l.88-.84c.53-.17.53.51.71,1.18,1.06-.84,1.94-1.85,2.82-2.69-.53,1.68-1.06,3.37-1.23,4.88,3,1.85-1.23,9.43,2.12,11.62-.88,4.55-1.76,5.89-2.47,7.24s-1.76,2.69-2.29,7.24c1.59,4.88,3.88,10.78,4.41,16.5.18,2.19-.88,4.04-1.59,3.71.71,2.53,1.59,6.23,2.29,8.76,2.82,5.56,3.7,5.22,4.06,2.86.18-1.85.18-6.06,0-8.25Z"/><path class="f" d="m389.03,135.57c.71.34,2.12-2.36,3-3.2l.18-1.18c1.06-3.03-.53-3.2-1.94-1.18.88.51-.53,3.71-1.23,5.56Z"/><path class="f" d="m387.97,160.33l-.71-.34c.35,1.35.71,2.53,1.06,3.87.53-.17,0-2.02-.35-3.54Z"/><path class="f" d="m383.04,80.67c0,3.54-1.41,5.05-.88,8.76l2.65-.67c.53-1.85,1.06-3.71,1.23-5.73.18-2.02.18-4.04-.18-6.06-1.06-1.35-1.23-.17-1.41,1.18-.18,1.52-.35,3.2-1.41,2.53Z"/><path class="f" d="m378.63,88.42c-1.06-3.37-.18-6.74.35-10.27.18-.84.35-1.85.53-2.69.18-.51.18-.84.35-1.35.18-.34.18-.67.18-1.01.18-1.35,0-2.53-.35-3.71-.53.51-.88,1.35-1.41,2.19-.18.34-.53.84-.71,1.35-.18.17-.18.51-.35.67s-.35.84-.35,1.18c-1.06,3.54-.53,7.24-1.76,9.09.18,2.69.53,4.38.88,7.92,1.23,2.69,2.29-1.52,2.65-3.37Z"/><path class="f" d="m380.21,67.53c-.18-.67-.71-1.35-.88-1.68-.18-.17,0,0,0,.34.18.34.35.84.35,1.01.18.34.35.84.53,1.01,0,.34.18.34,0-.67Z"/><path class="f" d="m404.9,256.83c-.53-.51-.71-.51-.88-.67-.18,0-.35-.17-.53-.17s-.35-.17-.35-.34l-.18-.17s-.18,0-.18-.17l-.35-.17c-.71-.51-1.06-.84-1.41-1.35-.35-.51-.88-1.01-1.59-1.85.88.51,1.94,1.01,3.17,1.35.35,0,.53.17.88.17h.53c.35,0,.53,0,.88.17.88.34,1.76,1.01,2.29,2.02.35.51.53,1.18.88,1.85.18.67.53,1.52.71,2.19,1.06,2.86,2.12,4.38,1.41,3.71-.18-.34-1.06-1.18-1.94-2.69-.18-.34-.53-.84-.71-1.18l-.35-.67c-.18-.34-.18-.51-.35-.67-.88-.34-1.41-1.01-1.94-1.35Z"/><path class="f" d="m411.6,264.91q-.35-.84-.71-1.68c.53.67.88,1.35,1.23,2.19-.18-.17-.35-.34-.53-.51Z"/><path class="f" d="m393.26,248.41l-3.53-2.53c-.71-.67,1.41.51,1.59.34l-3.35-3.54c4.59,4.55,5.64,3.54,5.29,5.73Z"/><path class="f" d="m358.88,203.1c-1.23-3.37,3.7-.17,5.47-.17,1.76,2.02,2.29,4.88,0,4.21-2.47-2.53-4.06-3.03-5.47-4.04Z"/><path class="f" d="m372.63,233.75c2.82-.51,9.35,6.06,9.88,4.21.18-.84.53-1.68,0-2.69l-4.41-2.36c-4.23-4.04-2.82-3.87-.88-3.2,1.94.51,4.06,1.35,1.94-2.02-1.41-1.01-1.94-1.68-2.82-1.85-3.7-1.85-3.35-.67-2.29,1.68-8.82-7.07-.88-8.93-5.47-13.14-6.7-5.22-6,1.35-8.46,1.18,1.59-1.52,0-5.39-3-9.94-3-4.72-7.41-9.94-11.99-14.15-9.88-6.4-16.93-17.68-29.27-25.09-4.06-4.21-9.35-9.94-15.34-14.99l.35-.34c-.18,0-.53,0-.53.17-.71-1.35-2.12-2.69-3.7-3.87-.88-.67-1.76-1.35-2.47-2.02-.88-.67-1.76-1.35-2.65-2.02-.88-.67-1.76-1.18-2.65-1.85s-1.06-.84-1.41-1.18c-.53-.67-.71-1.35-.18-1.68-.18-.17-.53-.17-.71-.34-.71-.67-.53-1.18-.35-1.35.18-.17.35-.17.53-.17.35.17.88.34,1.23-.34,0-.34.35-.51.71-.84l.53-.34.18-.17-.35-.17h0c-1.06-.51,2.29,1.18-2.29-1.18,4.76,2.19,1.23.67,2.29,1.18h.53s0-.17.18-.17c.18-.17.18-.51.35-.67.88-.84,1.76-1.52,2.47-2.19,1.59-1.35,3-2.69,3.53-3.87.53-.34,0,.17.35,0,1.23-1.18,2.65-2.36,3.88-3.37,0-.51.71-1.35-.18-1.01.88-.67,1.59-1.68,3-2.69,3.53-2.69.88.17,2.29-.67,8.64-6.74,19.22-13.64,29.27-17.68,1.23,1.52,12.17-4.04,16.4-6.9,5.29-1.52,9.35-5.05,12.87-8.76s6.88-7.41,10.58-8.76c-2.29,4.38-9.7,7.58-8.99,9.77l2.29-.51c4.23-2.36,10.76-6.06,11.46-9.6-2.65.84-3.53.17-4.76,0,1.23-1.68,1.06-2.53,2.82-4.55,2.82-2.69,6.17-5.05,7.05-4.04-1.23,1.85-3.17,2.86-4.59,4.21.53,1.68,5.64-2.69,7.58-3.87-2.47,0-2.12-2.02-2.12-3.37s-.71-2.02-5.47.67l4.06-4.38c.88-2.53-3.35-.17-7.05,1.68-3.7,1.85-7.05,3.2-4.06-1.35.18-1.35-1.59-1.35.71-4.04-2.47.17-5.47,2.53-6.17,3.87-3.88-.51-12.17,8.42-14.81,5.73-6,8.25-13.05,7.24-19.58,13.3-8.29,8.08-1.59,4.38-3,7.92-2.29,1.68-4.23,3.87-5.82,5.89s-3,3.87-4.23,5.39c-2.29,2.19-4.06,2.86-2.82,1.35-5.64,4.72-11.46,9.6-17.46,13.98-3,2.19-6.17,4.38-9.35,6.4-1.59,1.01-3.17,2.02-4.76,3.03l-1.23.67-.35.17-.53.34-1.06.67-1.94,1.35-1.06.67-.53.34-.18.17-.18.17h0c1.23.51-2.82-1.35,2.82,1.35-5.47-2.53-1.59-.67-2.82-1.35h0l-.18.17-.35.17c-.18,0-.18.17-.35.17h-.71l-.88,1.01-1.59,1.85c-.35.34-.53.67-.71,1.01s-.53.67-.53,1.01-.35.67-.35,1.01,0,.67-.18,1.18c-.18,1.52,0,3.37.71,4.72,0,.17.18.34.18.51l.35.51c.18.34.35.67.71,1.01.35.67,1.06,1.35,1.41,2.02.18.34.53.67.88,1.01s.53.67.88,1.18c.35.34.71.67,1.06,1.01l.35.51c0,.17.18.17.18.34l.18.17c.71.84,1.41,1.68,1.94,2.53.88,1.35,2.47,3.37,3.7,5.05,2.29,4.55,5.11,8.08,8.11,11.62,3,3.54,5.82,7.07,7.41,12.13l-.53-1.68c.18-.51,1.06.34,1.94.84-.53-1.68-.88-3.37-1.23-5.05,1.59,2.19,3.35,4.55,5.29,6.4,4.41,0,10.76,11.62,16.05,11.96,5.11,5.89,6.17,7.75,7.41,9.94,1.06,2.02,2.12,4.21,7.41,9.94,7.23,4.55,16.22,9.43,23.81,15.66,2.82,2.19,4.41,5.22,3.53,5.22,3.7,2.36,8.82,5.89,12.7,8.25,8.99,4.38,9.17,3.37,6.53.51-3-3.2-8.29-7.92-10.93-10.27Z"/><path class="f" d="m325.37,109.47c-.18,1.01,4.59-.84,6.35-1.18l1.76-1.18c4.76-2.36,4.06-3.71.53-2.69-.53,1.52-5.82,3.87-8.64,5.05Z"/><path class="f" d="m291.33,134.39v-1.01l-.35.51-.35.34v.84h-.18l-3-1.35,3,1.35h0s-.18,0,0,0l.35.17h.18v.17h.35c-.18,0-.18-.17-.35-.17-.18-.17-.18,0-.18,0h0c-1.41-.67,3.17,1.52-3.17-1.52l3.17,1.52h.35v-.84h.18Z"/><path class="f" d="m395.91,48.84c-4.94,3.71-7.58,4.21-12.52,8.42l2.65,1.18c2.82-1.52,5.64-3.03,8.46-4.88,1.41-.84,2.82-1.85,4.23-3.03.71-.51,1.41-1.18,2.12-1.68l1.06-.84c.35-.34.71-.67.88-.84.35-1.01.35-1.35-.18-1.18-.18,0-.53.17-.88.51-.53.34-.88.67-1.59,1.01-2.12,1.35-4.41,2.86-4.23,1.35Z"/><path class="f" d="m382.68,53.39c3.88-4.04,9.17-7.07,14.11-10.27.71-.34,1.23-.84,1.94-1.18.71-.51,1.41-.84,2.29-1.18,1.59-.67,3-1.18,4.41-1.52.71-.17,1.59-.34,1.94-.51.35,0,.35-.34.35-.51l.18-.67.35-1.18c0-.51,0-.84-.18-1.35-.18.17-.35.34-.35.67q0,.17-.18.17l-.18.17q-.18.17-.35.34c-.18.17-.18.34-.53.34h-.53c-.35,0-.71,0-1.06.17-1.41.17-3,.51-4.59,1.18-.88.34-1.59.67-2.47,1.18-.35.17-.71.51-1.23.67l-.88.51c-1.06.67-2.29,1.52-3.35,2.19-2.12,1.35-4.23,2.69-6,3.2-3.7,2.86-5.64,4.88-10.23,8.76-2.47,3.87,3.88.34,6.53-1.18Z"/><path class="f" d="m409.84,32.84c.35-1.01.88-2.36,1.23-3.03.18-.84-.71,1.18-1.23,2.19-.53,1.01-1.41,4.04,0,.84Z"/><path class="d" d="m49.03,274.85c2.47-.84,4.76-1.01,6.17-.67,1.41.34,2.29.84,2.65,1.01.53.34.71.67.88,1.01.18.17.18.34.71.67-.35,0-.53,0-.71-.17q-.18,0-.35-.17l-.71-.34c-.88-.34-1.76-.67-2.82-.84-1.94-.34-4.06,0-5.82.51s-3.35,1.18-4.76,1.68c-2.82.84-4.76,1.35-3.88,1.01.35-.17,1.59-.67,3-1.18,1.94-.84,3.53-1.68,5.64-2.53Z"/><path class="d" d="m38.97,279.56c.88-.17,1.06-.34,1.94-.51-.88.34-1.59.51-2.47.84l.53-.34Z"/><path class="d" d="m66.31,276.03l4.59-.51c1.06,0-1.59.34-1.41.51h5.11c-6.88.17-6.88.84-8.29,0Z"/><path class="d" d="m126.09,281.08c3.35.84-2.65,1.35-4.06,1.85-2.82-.17-5.47-1.01-3.17-1.52,3.88,0,5.47-.34,7.23-.34Z"/><path class="d" d="m92.94,274.34c-1.76,1.18-11.64.84-10.58,1.68.35.34.88.67,2.12,1.01l4.94-.67c6.17.17,4.94.51,3.17.84s-4.06.84,0,1.35c1.76,0,2.65,0,3.53-.17,4.06-.51,3-.84.53-1.35,11.99-.34,7.41,2.86,13.93,3.03,8.99-.34,3.35-2.53,5.64-3.2,0,1.01,4.06,1.85,9.7,2.69,5.64.67,13.05,1.18,19.58,1.18,6.17-.51,12.7-.17,19.4,0,6.88.17,13.93.17,21.34-.51,6.35.17,14.46.51,22.75.34v.17c.18,0,.35-.17.35-.17,3,.51,8.11.17,12.52-.17,4.41-.17,8.29-.34,9.17.17l1.41-.17c7.41-.51,0,.34,4.23.34,6.88-.51,15.7-.17,19.22-.84.53,0-.18,0,.35.17l5.47-.17c.35-.17,1.41-.34.53-.51,1.23,0,2.47-.17,4.23-.17,4.59,0,.53.34,2.12.34,11.64,0,24.87.34,35.8,1.85,0,1.01,12.7,2.02,17.99,2.19,10.58,2.02,22.93-1.01,31.04,0-4.76,1.01-13.05.17-13.93,1.18l2.12.51c4.94.34,12.87.84,15.87-.34-2.82-.51-3-1.01-3.88-1.35,2.12-.34,2.65-.67,5.29-1.01,4.06-.17,8.46-.17,8.46.51-2.29.34-4.59.17-6.7.34-.71.84,6.35.67,8.82.67-2.12-.67-.35-1.52.53-2.02s.88-1.01-4.94-1.35l6.17-.51c2.47-.84-2.65-1.01-6.88-1.35s-7.76-.84-2.47-1.68c1.06-.51-.35-1.01,3.35-1.35-1.94-.67-6-.67-7.76-.34-2.82-1.35-15.52-.34-16.05-2.19-10.4,1.52-15.34-1.01-25.04-.67-12.17.67-4.23,1.18-7.76,2.19-6,0-12.17,1.01-15.87,1.35-3.35.17-5.29,0-3.17-.34-12.34.34-24.87.51-37.39-.17-12.52-.51-25.04-1.85-37.39-2.86-5.11-.84-9.88-1.18-14.81-1.52-4.76-.34-9.7-.51-14.64-1.85l1.59.51c.18.17-1.06.34-2.12.34,1.59.51,3.17,1.01,4.76,1.35-3-.34-6-.51-8.82-.51-3.17,1.52-16.75-.67-20.99,1.01-8.11-.51-10.58-.84-12.87-1.18s-4.76-.84-13.05-1.18c-8.82.67-19.22,1.85-29.63,2.02-3.7.17-7.23-.34-6.53-.84-4.59.34-10.93.84-15.7,1.18-10.05,1.35-9.35,1.68-5.29,1.85,4.94.34,12.52.34,16.22.34Z"/><path class="d" d="m291.51,281.58c-.71.34,4.23,1.01,5.82,1.52l2.12.17c5.47.51,5.64-.17,2.29-.84-1.23.17-7.05-.51-10.23-.84Z"/><path class="d" d="m247.07,281.08l.71-.34c-2.29.17-4.59.34-6.88.51.35.17,3.7,0,6.17-.17Z"/><path class="d" d="m389.74,278.72c-6.35,0-8.99-.67-15.87-.34l1.23,1.18c3.35.17,6.7.51,10.23.67h10.93c1.41-.17,1.59-.34.88-.51s-1.94-.34-3.17-.34c-2.47,0-5.47-.17-4.23-.67Z"/><path class="d" d="m375.81,276.7c5.82-.51,12.17,0,18.34.17,1.59,0,3.35.34,4.59.34,1.59,0,3,.17,4.41.17,2.82.17,5.47.34,7.76,0-.71-.17-2.12-.34-4.23-.67-1.94-.34-4.59-.67-7.58-.84h-.88l-.88-.17c-.71,0-1.41-.17-2.29-.17-1.41,0-2.82,0-4.23-.17-2.65,0-5.11-.17-7.05-.51-4.94,0-7.94.17-14.11.34-4.41.67,3,1.18,6.17,1.52Z"/><path class="d" d="m414.07,277.2c1.23-.34,2.47-1.01,3-1.35.71-.51-1.23.67-2.29,1.01-.53.17-1.59.51-2.12.67-.35,0-.35.17,1.41-.34Z"/><path class="d" d="m33.86,32.67c8.99-.84,6.17.17,9.52.34l-4.59.51c-1.59,0-3.17.17-4.94.17-1.76.17-3.35,0-4.94.34-3.17.67-4.59,2.02-3.88,1.35.18-.17,1.23-1.01,3-1.52.88-.34,1.94-.51,3-.67.88-.17,1.94-.34,2.82-.51Z"/><path class="d" d="m23.98,36.88c.71-.51.88-.51,1.59-1.01-.71.51-1.41,1.01-1.94,1.52l.35-.51Z"/><path class="d" d="m50.26,32.33l4.23-.34c1.06,0-1.41.34-1.23.51,1.59,0,3.17,0,4.76.17-6.53-.17-6.35.67-7.76-.34Z"/><path class="d" d="m106.52,37.56c3.17.84-2.47,1.35-3.7,1.85-2.65-.17-5.11-1.01-3-1.52,3.53,0,5.11-.34,6.7-.34Z"/><path class="d" d="m75.3,30.82c-1.59,1.18-10.93.84-10.05,1.68.35.34.88.67,1.94,1.01l4.76-.67c5.82.17,4.59.51,3,.84-1.76.34-3.88.84,0,1.35,1.76,0,2.65,0,3.35-.17,3.88-.51,2.82-.84.53-1.35,11.29-.34,7.05,2.86,13.05,3.03,8.46-.34,3.17-2.53,5.29-3.2,0,1.01,3.7,1.85,9.17,2.69,5.29.67,12.34,1.18,18.52,1.18,5.82-.51,11.99-.17,18.34,0,6.35.17,13.23.17,20.1-.51,6,.17,13.58.51,21.34.34v.17c.18,0,.35-.17.35-.17,2.82.51,7.58.17,11.82-.17,4.23-.17,7.94-.34,8.64.17l1.41-.17c6.88-.51,0,.34,4.06.34,6.35-.51,14.81-.17,18.16-.84.53,0-.18,0,.35.17l5.11-.17c.35-.17,1.41-.34.53-.51,1.23,0,2.29-.17,4.06-.17,4.41,0,.53.34,2.12.34,10.93,0,23.45.34,33.68,1.85,0,1.01,11.99,2.02,16.93,2.19,10.05,2.02,21.69-1.01,29.27,0-4.59,1.01-12.34.17-13.23,1.18l2.12.51c4.59.34,12.17.84,14.81-.34-2.65-.51-2.82-1.01-3.7-1.35,2.12-.34,2.47-.67,4.94-1.01,3.88-.17,7.94-.17,7.94.51-2.12.34-4.41.17-6.17.34-.71.84,6,.67,8.29.67-1.94-.67-.35-1.52.53-2.02s.71-1.01-4.59-1.35l5.82-.51c2.29-.84-2.47-1.01-6.53-1.35-4.06-.34-7.41-.84-2.29-1.68,1.06-.51-.35-1.01,3.17-1.35-1.94-.67-5.64-.67-7.23-.34-2.65-1.35-14.64-.34-14.99-2.19-9.88,1.52-14.46-1.01-23.45-.51-11.46.67-4.06,1.18-7.23,2.19-5.64,0-11.46,1.01-14.81,1.35-3.17.17-4.94,0-3-.34-11.64.34-23.45.51-35.27,0-11.82-.51-23.45-1.68-35.27-2.86-4.76-.84-9.35-1.18-13.93-1.52-4.59-.34-9.17-.51-13.76-1.85l1.59.51c.18.17-1.06.34-1.94.34,1.59.51,3,1.01,4.41,1.35-2.82-.34-5.64-.51-8.29-.51-3,1.52-15.87-.67-19.75,1.01-7.76-.51-9.88-.84-12.17-1.18-2.29-.34-4.59-.84-12.17-1.18-8.29.67-18.16,1.85-27.86,2.02-3.53.17-6.88-.34-6.17-.84-4.23.34-10.4.84-14.81,1.18-9.35,1.35-8.82,1.68-4.94,1.85h14.11Z"/><path class="d" d="m262.41,38.06c-.71.34,4.06,1.01,5.47,1.52l2.12.17c5.11.51,5.29-.17,2.12-.84-1.23.17-6.7-.51-9.7-.84Z"/><path class="d" d="m220.62,37.56l.71-.34c-2.12.17-4.23.34-6.35.51.18.17,3.17,0,5.64-.17Z"/><path class="d" d="m355.17,35.2c-6,0-8.46-.67-14.81-.34l1.23,1.18c6.17.51,12.7,1.01,20.28.34,2.47-.67.18-.51-2.29-.67-2.82,0-5.64,0-4.41-.51Z"/><path class="d" d="m341.95,33.01c5.47-.51,11.64,0,17.28.17,2.82.17,5.82.17,8.46.34,2.65.34,5.29.17,7.76.51-.53-.34-2.29-.84-4.23-1.18-1.06-.17-2.12-.34-3.17-.51-1.23-.17-2.65-.34-3.88-.34-2.65-.17-5.47-.17-7.94-.17s-4.94-.17-6.7-.51c-4.76,0-7.41.17-13.4.34-4.23.67,2.82,1.18,5.82,1.35Z"/><path class="d" d="m378.27,35.37c1.23.51,2.29,1.35,2.82,1.85.71.51-.88-1.01-1.94-1.52-1.06-.84-4.23-1.52-.88-.34Z"/><path class="d" d="m27.86,264.41c8.64-8.76,6.53-5.56,10.05-8.42l-4.23,4.55c-1.59,1.35-3.35,3.03-4.94,4.55-1.76,1.68-3.35,3.03-4.94,4.38-1.59,1.52-2.29,3.2-2.65,4.04-.35,1.01-.53,1.35-.35.67.18-.34.53-2.19,1.94-4.21.35-.51.71-1.01,1.23-1.52.35-.51.88-.84,1.41-1.35.71-.84,1.59-1.85,2.47-2.69Z"/><path class="d" d="m20.46,276.7c.18-1.18.35-1.35.71-2.36-.35,1.01-.53,2.19-.71,3.37v-1.01Z"/><path class="d" d="m44.26,249.08l4.06-4.21c1.06-.84-1.23,1.52-1.06,1.52l4.94-4.38c-6.53,6.06-6,6.4-7.94,7.07Z"/><path class="d" d="m105.63,200.75c3.88-2.36-1.59,3.2-2.47,4.88-2.82,2.36-5.82,4.04-4.06,1.68,3.7-3.37,4.76-4.88,6.53-6.57Z"/><path class="d" d="m68.78,224.83c-.88,2.36-10.76,10.78-9.17,10.44.71-.17,1.41-.17,2.65-1.18l4.41-4.72c6.17-5.39,5.11-4.04,3.7-2.02-1.41,1.85-3.35,4.21,1.06.84,1.76-1.68,2.65-2.36,3.17-3.2,3.53-4.04,2.29-3.2-.53-1.52,11.29-10.61,9.35-4.21,15.52-9.94,8.29-8.08,1.59-4.72,3.17-7.24,1.41,1.52,18.16-11.45,30.86-22.9,3.17-3.2,6.53-6.57,10.23-9.77,1.76-1.68,3.7-3.2,5.47-4.88.88-.84,1.94-1.68,2.82-2.53l1.41-1.18c.53-.34.88-.67,1.23-1.01.53-.34,1.06-.84,1.59-1.35.53-.34,1.23-.67,1.94-.51,1.41.17,2.65,1.18,3.7,2.02l.88.67,1.23.84c.88.51,1.59,1.18,2.47,1.68,1.59,1.18,3.35,2.36,5.11,3.54,6.35,5.05,14.64,11.79,23.45,18.02,0,0,0,.17-.18.17.18.17.35.17.53,0,1.41,1.35,3.53,3.03,6,4.55,1.23.84,2.47,1.68,3.7,2.53,1.23.84,2.65,2.02,4.76,2.36,1.06.17,2.29.17,3.35-.17,1.06-.34,1.76-.67,2.47-1.01,1.41-.84,2.29-1.52,3.17-2.19.88-.67,1.76-1.01,2.29-1.52.53-.34,1.06-.67,1.41-.67l1.41-1.35c7.41-6.06.18.34,4.59-3.03,6.7-5.73,16.4-12.46,19.58-15.83.53-.34-.18.17.53-.17l5.64-4.38c.35-.34,1.41-1.35.35-.84,1.41-1.01,2.47-2.02,4.41-3.37,4.76-3.54.71-.17,2.65-1.35.71-.51,1.41-1.18,2.29-1.68.35-.17.71-.51,1.06-.67.18-.17.35-.17.71-.34.53,0,.71.17,1.59.67.71.51,1.41,1.18,2.12,1.85,2.82,2.69,5.82,5.39,8.64,8.25,5.64,5.56,11.29,11.12,16.05,16.5-.71.67,10.4,12.8,15.52,17.51,8.82,10.78,22.93,19.2,29.8,27.11-5.29-3.37-12.7-11.28-14.28-11.28l1.76,2.19c4.59,4.55,11.82,11.79,15.52,13.47-2.29-2.69-2.12-3.37-2.65-4.38,2.29,1.68,3,1.68,5.82,4.04,4.06,3.37,8.29,7.24,7.76,7.75-2.29-1.68-4.59-3.87-6.53-5.56-1.23,0,5.82,6.06,7.94,8.25-1.59-2.36.71-1.35,1.94-1.01s1.41,0-3.7-5.22l6.35,5.05c2.82,1.52-1.76-3.03-5.64-7.07-3.88-4.04-6.88-7.41-1.06-3.37,1.41.67.35-1.01,4.23,1.85-1.41-2.19-5.29-5.73-7.23-6.9-1.76-3.37-14.81-13.81-13.93-15.49-11.11-8.08-14.11-14.15-23.63-22.23-11.99-10.27-4.94-2.86-8.99-5.22-2.82-2.69-6-5.22-8.82-7.41-2.82-2.19-5.47-4.04-7.41-5.56-3.35-2.69-5.11-4.72-2.82-2.86l-9.17-7.92-4.59-4.04c-.88-.67-1.41-1.52-3.17-2.19-.71-.34-1.59-.34-2.47,0-.88.17-1.59.67-2.12,1.01-1.06.67-1.76,1.35-2.65,1.85l-2.47,1.85-4.94,3.54c-3.35,2.36-6.53,4.72-9.88,7.07-6.7,4.72-13.4,9.26-20.28,13.81-1.76,1.18-3.35,2.19-5.11,3.37l-2.65,1.52c-.88.51-1.59,1.01-2.29,1.18-.35.17-.53.17-.71.17h0v.34h0v-.67h0l-.53-.34-4.23-3.71c-9.35-9.26-19.75-15.66-28.39-25.6l1.41,1.68c.18.34-1.23-.67-2.29-1.35,1.41,1.68,2.65,3.2,4.06,4.88-2.82-2.53-5.82-5.05-8.82-7.41-.71-.17-1.59-.67-2.65-1.52-.53-.34-1.06-.67-1.76-1.18-1.06-.67-2.12-1.68-3.17-2.36-2.29-1.68-4.94-2.69-7.94-2.53-1.41.17-3,.51-4.23,1.18-1.23.67-2.47,1.52-3.53,2.53-1.41,1.18-2.29,1.85-3,2.53s-1.23,1.18-1.76,1.85c-1.06,1.18-1.94,2.19-2.47,3.03-8.11,6.9-10.58,8.59-13.23,10.44-2.47,1.85-5.11,3.71-13.23,10.61-7.76,8.25-16.93,18.19-26.98,27.28-3.53,3.37-7.23,5.89-6.88,5.22-4.23,4.21-10.05,10.1-14.46,14.48-8.64,9.77-7.76,9.43-3.7,6.06,3.88-3.03,11.29-9.6,14.81-12.8Z"/><path class="d" d="m271.41,177c-.88-.34,3.35,4.38,4.59,6.23l2.12,2.02c4.94,5.22,5.64,4.72,2.82,1.35-1.59-1.01-6.7-6.57-9.52-9.6Z"/><path class="d" d="m230.14,181.38l.53-.84-6.7,5.73c.35,0,3.53-2.86,6.17-4.88Z"/><path class="d" d="m368.05,260.87c-6.17-5.56-8.29-8.25-14.99-14.15l.35,2.02c3,3.03,6.17,6.23,9.52,9.43,1.59,1.52,3.35,3.2,5.29,4.88.88.84,1.76,1.52,2.65,2.36s1.76,1.68,2.82,2.53c3.17,2.02.53-.17-1.76-2.69-2.65-2.36-5.47-5.22-3.88-4.38Z"/><path class="d" d="m356.05,247.06c6,4.88,11.82,10.61,17.64,16.17,1.41,1.52,2.65,2.86,4.06,4.04.71.51,1.59,1.18,2.29,2.02.71.67,1.41,1.52,1.94,2.19.53.84,1.06,1.52,1.59,2.36l.71,1.18c.18.17.18.51.35.67l.18.67c.18.67.71,1.01,1.23,1.01h.35l.71.17,1.23.34c-.18-.17-.53-.34-.88-.34l-.53-.17c-.18,0-.35-.17-.53-.17-.18-.17-.53-.17-.71-.34,0-.17-.18-.17-.18-.34s-.18-.51-.18-.84c0-.17-.18-.51-.35-.67l-.18-.51c-.18-.34-.35-.67-.53-1.01-.35-.67-.71-1.35-1.23-2.19-1.06-1.52-2.29-3.03-4.06-4.38-1.23-1.01-2.29-2.19-3.7-3.54-.71-.67-1.41-1.35-2.12-2.02-.71-.67-1.23-1.18-1.94-1.85-2.47-2.36-4.94-4.72-6.53-6.57-4.76-4.21-7.76-6.74-13.93-11.96-4.41-3.7,2.47,3.2,5.29,6.06Z"/><path class="d" d="m392.38,279.39c1.59.34,3.53.67,4.59.67.53,0,.18,0-.71-.17s-1.94-.34-2.65-.51c-1.59-.34-5.82-1.18-1.23,0Z"/><path class="d" d="m21.51,29.98c1.94.51,3.7,1.85,4.41,3.37.88,1.35,1.06,2.86,1.06,2.69.35.67.88,1.18,1.06,1.68.53.84.53,1.18,2.12,2.69-1.76-1.18-3.53-2.36-4.41-3.71,0-.17-.18-.34-.18-.51s-.18-.51-.18-.84c-.18-.67-.53-1.18-.88-1.85-.88-1.18-2.12-2.02-3.53-2.53-1.23-.51-2.47-.67-3.53-1.01-1.06-.34-2.29-.51-3.17-.67-4.06-.67-6.7-.84-5.47-.84.35,0,2.12,0,4.59.34,1.23.17,2.47.17,3.88.51,1.23.17,2.65.17,4.23.67Z"/><path class="d" d="m6.35,28.8c1.23.17,1.41.17,2.65.34l-3.53-.17.88-.17Z"/><path class="d" d="m38.09,45.81l4.94,3.54c1.06.84-1.76-1.01-1.76-.84l5.11,4.38c-7.05-5.73-7.41-5.22-8.29-7.07Z"/><path class="d" d="m95.76,99.36c3,3.54-3.53-1.18-5.29-1.85-2.82-2.53-4.94-5.22-2.12-3.71,3.7,3.03,5.47,4.04,7.41,5.56Z"/><path class="d" d="m66.31,66.69c-2.47-.51-12.52-8.93-11.99-7.58.18.67.35,1.35,1.41,2.36l5.47,3.71c6.35,5.22,4.76,4.38,2.65,3.2s-4.76-2.86-.88,1.01c1.94,1.52,2.82,2.19,3.7,2.69,4.59,3.03,3.53,1.68,1.41-.67,12.34,9.6,5.64,8.42,12.17,13.81,9.35,7.07,5.11,1.01,7.94,2.19-.71.67,2.82,4.72,8.11,10.1,5.29,5.22,12.52,11.79,19.22,17.18,6.53,4.72,13.05,10.27,19.93,16.17,6.88,5.73,14.11,11.79,22.04,17.35,6.35,5.39,14.46,12.29,23.1,19.03l-.18.17c.18.17.35.17.53.17,2.82,2.86,8.29,6.74,12.87,10.27.53.51,1.23.84,1.76,1.35.35.17.53.51.88.67.35.17.71.51,1.06.67,1.41.84,3.17,1.52,4.76,1.35,1.59-.17,2.82-.67,3.53-1.01.88-.34,1.41-.67,1.59-.84.53-.51,1.06-1.01,1.41-1.52,1.76-1.85,2.47-2.53,2.82-2.69.35-.34.35-.17.18,0-.18.17-.35.51-.35.51,0,0,.35-.17,1.41-1.01,6.7-6.06,16.05-13.14,19.22-16.5.53-.51-.18.17.53-.17l5.47-4.72c.35-.34,1.23-1.52.18-.84,1.23-1.01,2.29-2.02,4.23-3.54,4.76-3.71.71-.17,2.47-1.52,11.82-9.6,25.75-20.21,38.09-28.12.71.84,14.46-8.93,19.93-13.14,12.17-7.24,22.93-19.7,31.92-25.6-4.23,4.72-13.23,10.95-13.58,12.46l2.65-1.52c5.29-3.87,13.76-10.1,15.87-13.3-3.17,1.85-3.7,1.68-4.94,2.02,2.12-2.02,2.12-2.69,4.76-5.05,4.06-3.54,8.64-7.07,8.99-6.57-2.12,2.02-4.59,3.87-6.53,5.73-.18,1.18,7.05-4.88,9.52-6.74-2.65,1.18-1.41-.84-.88-1.85.53-1.18.18-1.35-6,3.03l6.17-5.56c1.94-2.53-3.35,1.35-8.11,4.72-4.59,3.2-8.64,5.89-3.53.67.88-1.18-1.06-.51,2.47-3.71-2.47,1.18-6.7,4.55-8.11,6.23-3.7,1.18-16.22,12.63-17.81,11.62-9.7,9.77-16.58,11.96-25.92,20.21-11.99,10.61-3.53,4.38-6.35,8.08-6.17,5.05-11.82,10.78-15.34,14.15-3.35,2.86-5.47,4.38-3.35,2.36-12.52,10.44-25.22,20.88-38.44,30.65-3.35,2.53-6.7,4.88-9.88,7.41l-5.11,3.54-2.47,1.85-1.23.84c-.53.34-.88.67-1.41,1.01-.88.67-1.59,1.35-2.29,2.02-.35.34-.71.51-1.06.67-.35.17-.53.34-.71.34-.53.17-.53,0-.53,0,0,0-.35-.17-.71-.51-3-2.69-5.82-5.39-8.82-8.08-4.59-4.88-9.35-9.09-14.11-13.3s-9.52-8.42-13.76-13.47l1.41,1.68c.18.34-1.23-.67-2.29-1.52,1.41,1.68,2.65,3.37,3.88,5.05-2.82-2.69-5.64-5.22-8.64-7.75-4.23-1.52-16.75-14.31-22.04-16.5-8.11-7.07-10.23-9.26-12.34-11.62-2.12-2.19-4.41-4.55-12.52-11.62-9.52-6.74-20.99-14.48-31.74-23.07-3.88-3.03-7.05-6.23-6.17-6.06-4.94-3.54-11.82-8.59-16.75-12.13-11.11-7.24-10.76-6.4-6.7-2.86,4.23,2.69,11.99,8.93,15.87,11.96Z"/><path class="d" d="m270.52,130.52c-.53.84,4.94-2.69,7.05-3.71l2.29-1.68c6-4.21,5.64-4.88,1.59-2.53-.88,1.35-7.41,5.56-10.93,7.92Z"/><path class="d" d="m224.67,166.73l.53-.84-6.7,5.89c.35.17,3.53-2.86,6.17-5.05Z"/><path class="d" d="m369.63,47.16c-6.53,5.39-9.7,6.9-16.4,12.8l2.12-.17c7.05-5.05,14.64-10.44,22.4-17.51,2.47-2.86-.18-.51-3,1.52-3,2.36-6.17,4.88-5.11,3.37Z"/><path class="d" d="m353.76,57.09c4.76-4.21,10.05-8.42,15.52-12.46,1.41-1.01,2.65-2.02,4.06-3.03s2.65-2.02,3.7-3.03,1.94-2.19,2.47-3.37c.35-.51.35-1.52.88-2.36s1.59-1.01,2.47-1.35c.53,0,.71-.17,1.06-.34l.88-.34c.53-.17,1.23-.51,1.94-.67.71-.17,1.41-.34,1.94-.51.53-.17,1.23-.17,1.76-.34h-1.76c-.35,0-.71,0-1.06.17-.71.17-1.59.34-2.29.51-.35.17-.71.17-1.23.34l-.53.17h-.88c-.88.17-1.76.34-2.47,1.01-.71.51-1.06,1.35-1.41,2.19l-.18.51-.18.34c0,.17-.18.34-.35.67s-.53.84-.71,1.18c-1.23,1.52-3.17,3.03-5.29,4.55-4.06,3.2-8.11,6.4-11.11,8.25-5.11,4.21-7.94,6.74-14.28,11.96-4.23,4.21,3.7-1.68,7.05-4.04Z"/><path class="d" d="m394.5,28.97c1.59-.34,3.53-.84,4.59-1.01,1.23-.34-1.94.34-3.35.67-1.76.34-6,1.35-1.23.34Z"/><path class="d" d="m390.97,38.23c0-.84-.18.34-.53,1.18-.35.84-.53,1.35-.53-.17-.18.51-.35,1.18-.35,1.85,0,.51-.18,1.01,0,1.68,0,1.18.18,2.36.18,3.37-1.06.17-1.94-1.52-2.65,2.02-.53,4.88,2.12.67,2.12,4.88l.35-3.03c1.76,3.03.53,9.94.88,14.99-1.23,3.87-3.7,7.24-3.17,12.13-.18-.34-.53-1.52-1.06-1.18-.53.84-.18,2.53,0,3.54,1.06,2.53,1.59-.67,2.47.17.53,2.19,1.41,4.21.71,7.24l-2.12,3.71c2.82,2.53,0,6.57,1.06,11.62-1.41,1.01.53,6.23-.88,7.24,0,2.36-3.88.51-4.94,2.36-.88,3.37-.71-2.36-1.59,1.01-.53-3.71,3.88-1.18,3.35-6.06l-.53.17c-.88-2.02.88-5.56-.71-6.9.35-5.39,2.12.17,3.17-2.53-1.23-1.52-1.59-7.58-3.35-7.75v4.21c0-.67-.35-.17-.53-.51,1.76-2.86-5.29-10.44,0-8.25.35.51.18,2.02.71,2.36,1.23-.17.53-3.03.71-5.22-1.23-2.19-3.35-4.72-2.65-8.08.35-1.18,1.06-.51,1.41-1.68-1.23-6.9,1.59-6.74.88-13.98,1.59-4.55.35-10.27,1.94-14.82-1.06.67-.35-3.2,0-4.04.35-.34.71-1.01.88-2.02.18-1.01,0-2.19-.35-3.03.35,1.01.71.34,1.06,1.01-.88-2.19-1.41-3.37-1.59-4.38s.18-1.68.35-2.02c1.76,1.35,2.82,2.19,3.7,3.37.88,1.35,1.76,2.86,1.59,5.56Z"/><path class="d" d="m388.33,122.6c-2.12-.84-.71,6.9-3.17,3.37-.35,2.53,0,3.71.71,5.05.71-2.86.35.67,1.23-.84,1.06,9.26,1.06,18.02.88,26.61-1.59,6.4,0,11.96,1.59,18.19-.53,3.71-2.29,1.35-3.35.51v4.72l-1.41-4.72c-.88-.17-.88,2.02-1.59,3.2l.18,1.35c-3.88-1.52.18-9.43-1.06-13.98.35,5.39,1.23-.84,2.12,1.52l.18-1.68c0,1.52,1.23,4.55,1.41,8.42.53-10.95-1.06-21.73-3-30.65.18.34.53,1.01.88.17.18-3.2-2.12-5.05-2.65-6.57l.71,1.35c.88-2.02-.53-5.22-.71-7.58,1.06-2.69,2.12-4.38,1.41-8.76l.88.17.35-3.54c.18.84.53.51.71.34.18.34,0,.51,0,1.01,1.23.17,3-1.68,3.88-3.54-.18.67-.18,1.18-.18,1.68.53-1.68,1.41-7.24,2.82-4.38-.35,4.21-3.17,4.21-2.82,8.59Z"/><path class="d" d="m382.51,102.06c-.71,3.37-.88-1.01-1.76-.17v-3.03c.88-.17.88,2.86,1.76,3.2Z"/><path class="d" d="m389.74,196.03c-.71.34-.35,2.53-.53,3.71.53,2.53,1.59,3.03,1.06,6.57-2.29-2.86-2.82,2.86-4.23,5.56-.35-1.85-1.59-5.05-.53-7.92.71.34,1.06-2.19,1.23-3.37-1.06-1.85-3.53,1.52-3.88-6.23.35-1.52-.18-5.05,1.06-4.72.53-1.01-1.06-1.85,0-3.03l.53-.51.88,4.88c-.18.17-.53.51-.53,1.01.88-.84,1.94,5.22,3.35,2.19v-6.74c.53-1.68,1.41.67,1.59,3.03-1.06,3.37-.88,3.2,0,5.56Z"/><polygon class="d" points="386.74 179.36 387.09 178.85 387.44 184.75 386.74 179.36"/><path class="d" d="m390.09,217.76c-.35-1.18,0-2.19-.35-3.37l1.59-.17-1.23,3.54Z"/><path class="d" d="m380.92,156.79c-1.41-1.52-.71-5.56-1.94-6.74,0,1.01.35.67.53,1.01l.53-2.02c1.06,2.36.71,4.88.88,7.75Z"/><path class="d" d="m390.09,229.38c0,.51,0,1.01.18,1.35,0,.34.18.67.18,1.01.18.67.35,1.35.71,1.85.35,1.35.71,2.86-.18,6.06-.71,1.35-.53-1.85-1.23,0-.88,1.85-.53,2.53-.71,3.71.35-.17.53-.34.88-.51-.88.67-2.12,2.02-3.35,2.53-.53.34-.88.34-1.23.17-.35-.17-.53-.51-.53-1.01,1.23-1.35,1.76-2.86,1.94-4.04.18-1.35-.18-2.53-.35-3.54-.53-2.02-1.23-3.71-.53-5.89l1.76-.84-.35-2.69c.18-.17.53-.17.53-1.01-.71-1.85-.88,1.35-1.59,1.18l-1.06-5.22c.18-.67.53.51.71.34.88-2.36-1.76-3.87-.18-6.06l.88,3.2c.18-3.87.88-6.74,1.59-9.43-.88,7.58,3.53,11.79,1.94,18.86Z"/></g></svg>