<?xml version="1.0" encoding="UTF-8"?><svg id="a" xmlns="http://www.w3.org/2000/svg" viewBox="0 0 466.43 435"><defs><style>.b{fill:#EA580C;}.c{fill:#0D9488;}.d{fill:#4D7C0F;}</style></defs><path class="c" d="m340.98,115.05c.55,1.33-.6,2.69-.73,3.96l-.85.11c-.26-.48-.53-1.17-.61-1.79.13-.52-.62-1.59.11-1.91.73.15,1.78-.84,2.08-.37Z"/><path class="c" d="m336.37,118.78c.22.08.16.26.38.34-.45.33-.86.69-1.22,1.07.27-.47.55-.94.85-1.4Z"/><path class="c" d="m341.42,118.88l.63.11c.07.21-.37.33-.44.52l.41.87c-.67-.92-1.25.36-.6-1.5Z"/><path class="c" d="m348.74,128.87c.61.93-.58,1.46-.93,2.08-.58-.15-.96-1.1-.45-1.74.71.13,1.04-.3,1.38-.34Z"/><path class="c" d="m344.94,119.66c-.31.67-.73.7-1.12.73-.38.02-.72.02-.88.69-.14.58-.27,1.15-.22,1.56.32-.15.65-.34.96-.51.81.54.53.92.1,1.36-.42.44-.99.93-.49,1.76.31.03.47.04.65-.14.85-.56.72-.97.54-1.75,1.84.18.36,3.98,1.52,4.12,1.65-.27.99-2.82,1.46-3.63-.16,1.21.36,2.34,1.31,3.19.94.84,2.32,1.36,3.54,1.32.55-.28,1.11-.4,1.71-.44.6-.03,1.23.02,1.88,0,.65,0,1.32-.03,1.95-.25.64-.2,1.25-.53,1.74-1.15.59-.07,1.31-.11,2.04-.27.74-.13,1.53-.32,2.25-.65l.19.32c-.02-.11-.06-.22-.12-.33.47.23.91.18,1.3-.02.38-.21.73-.54,1.07-.82.34-.29.67-.53,1.03-.58.36-.07.76.05,1.25.53l.08-.38c1.02-1.16.65.75,1.7.57.22-.32.57-.52.95-.72.37-.21.78-.39,1.14-.6.7-.43,1.21-.96.53-2,.2,0,.19.21.39.21l.42-1.21c-.4-.4-.81-.97-1.4-1.17.19-.19-.23-.76.15-.94.5-.78,1.02.54,1.6.51.84-2.44,1.74-4.9,3.58-6.85,1.88.58,2.37-2.39,2.32-3.62,1.07-1.1.62-2.54.14-3.76-.49-1.24-1.13-2.28-.35-3.28,1.34.97.1,2.95,1.44,3.14.21-.17.44-.35.64-.53.38-1.17,1.21-3.28-.41-3.77-.69.76-1.39.88-1.95,1.15-.43-.44-.99-.45-1.28-1-.29-.82-.18-1.8.76-2.02.48.4.19,1.01.35,1.43,1.12-.01.95-1.67,1.11-2.29-1.11.77-2.09.58-2.9.6-.82.01-1.44.22-1.99,1.47-.24-.36-.53-.71-.79-1.05-1.22-.14-1.47.9-1.9,1.73-.44.86-.96,1.47-2.32.85-.69-.04-1.4.3-2.06-.09-.85.46-.62.93-.07,1.09-.84.31-.81.81-.94,1.28-.1.47-.28.89-1.48.93.96.59.56,1.1-.1,1.46-.73.37-1.74.61-2,1.03-.79,1.04,1.29.72,2.47,1.39-.44.27-.41.63-.26,1.02.16.4.49.84.7,1.18-.11.42-1.08.27-1.29-.11-1.57.93-2.91,1.6-4.04,2.3-1.14.65-2.25,1.29-3.35,1.92-.87-.4-1.17,0-1.6.22-.42.22-.95.31-1.88-.88l.31.39c.13.25.06.4.02.55.33.43.67.86,1.03,1.29-.37-.08-.71-.12-.98.03.16.95-.3,1.08-.75,1.22-.46.1-.92.2-.98,1.22-1.01-.19-1.3-.49-1.6-.88-.3-.4-.59-.74-1.44-1.17-.87.74-2.19,1.55-3.34,1.1-.42-.17-.59-1.11-.42-1.51-.51.03-1.2-.13-1.66-.35-1.35.51-1.7,1.33-1.44,2.12.12.4.37.79.66,1.11.29.3.61.53.84.63Z"/><path class="c" d="m379.19,115.74c.98.6,1.79-.4,2.39-.65l-.16-.65c.07-1.45-1.16-1.8-2.05-1.23.81.56.32,1.92-.18,2.52Z"/><path class="c" d="m374.04,125.1l-.7-.88c-.27.47-.55.94-.84,1.41.53.49,1.05-.12,1.54-.53Z"/><path class="c" d="m371.89,96.04c.11.56-.06,1.04-.16,1.49-.09.44-.15.86.16,1.37l1.89-.77c.3-.72.6-1.49.78-2.29.09-.4.14-.81.14-1.21-.02-.39-.12-.76-.3-1.12-2.33,0-.51,2.24-2.51,2.53Z"/><path class="c" d="m369.15,99.38c-.54-.29-.89-.62-1.07-1.03-.2-.39-.22-.86-.38-1.27-.14-.42-.31-.82-.65-1.11-.34-.28-.92-.4-1.74-.29-1.94,1.41-1.57,1.81-.89,2.21.35.19.82.37,1.13.6.28.24.42.53.14.87.76.38,1.29.6,2,1.28,1.13.38,1.36-.75,1.47-1.27Z"/><path class="c" d="m366.96,94.14c-.07-.19-.38-.24-.53-.27-.4.11-.51.61-.7.91.05.17,1.18.03,1.24-.64Z"/><path class="c" d="m188.37,276.16c4.09,3.32,1.87,4.05,3.07,6.02-.88-.28-1.79-.53-2.67-.84-.72-.59-1.54-1.24-2.32-1.93-.76-.71-1.5-1.43-2.09-2.09-1.17-1.35-1.75-2.45-.96-2.68.2,0,1.01.06,1.98.28.98.2,2.12.55,2.99,1.23Z"/><path class="c" d="m180.19,277.49c.45.26.41.47.86.74l-2.11.39,1.25-1.13Z"/><path class="c" d="m195.34,283.35c.79.31,1.6.57,2.39.86.48.38-.96.09-.96.3.8.56,1.6,1.15,2.43,1.66-3.41-1.97-3.92-.71-3.86-2.82Z"/><path class="c" d="m227.56,298.6c1.04.45.64.82-.15,1.16-.79.32-1.96.58-2.41.88-1.79-.15-3.28-1.25-1.82-1.8,2.32.2,3.27-.22,4.38-.25Z"/><path class="c" d="m209.49,287.7c-1.31,1.28-6.42-1.2-6.29.25.05.64.1,1.27.66,1.84l2.99.06c3.4,1.17,2.6,1.41,1.44,1.69-1.15.27-2.67.55-.41,1.78,1.06.2,1.59.3,2.08.18,2.54-.24,1.9-.74.7-1.72,3.4.62,4.31,1.67,4.85,2.74.54,1.06.68,2.12,2.64,2.33,2.71.09,3.29-.66,3.36-1.42.07-.78-.34-1.64.33-2.02-.14,1.2,2.13,2.49,5.53,3.38,3.39.85,7.89,1.27,11.88.91,3.67-.88,7.61-1.18,11.74-1.9,4.11-.7,8.42-1.87,12.29-4.29,3.67-1.19,8.39-2.91,12.84-5.38.06.11.14.21.19.32.05-.15.06-.29-.01-.4,2.05-.22,4.6-2.11,6.79-3.82,2.2-1.71,4.09-3.21,5.32-2.47l.55-.79c3.35-3.23.66.76,3.04-.63,1.48-1.6,3.62-3.07,5.34-4.57,1.7-1.48,3-3.03,2.83-4.61.34-.17.14.27.49.09.64-.99,1.28-1.98,1.88-3-.3-.53-.41-1.48-1.24-1.39.52-.62.39-1.57,1.21-2.39,1.64-2.37,1.15.37,2.13-.22.91-1.62,1.83-3.32,2.73-5.06.9-1.74,1.76-3.55,2.59-5.26,1.67-3.47,3.3-6.94,4.94-10.14.94.31,1.98-1.54,2.75-3.96.78-2.41,1.23-5.38,1.42-7.14.69-1.69,1-3.53,1.05-5.39.06-1.88-.13-3.6-.35-5.36-.45-3.48-1.09-6.68-.48-9.34.76,1.49.85,3.61.87,5.4.02,1.79,0,3.26.7,3.57l.64-1.42c.22-1.61.51-3.74.51-5.7,0-1.96-.31-3.76-1.15-4.64-.6,1.89-1.31,2.06-1.85,2.7-.48-1.38-1.05-1.56-1.45-3.28-.45-2.53-.7-5.34.28-5.53.61,1.34.51,2.93.76,4.21,1.19.34.58-4.32.57-5.93-.98,1.61-2.08.65-2.97.29-.9-.37-1.49-.18-1.67,3.44-.38-1.24-.8-2.47-1.24-3.69-1.42-1.18-1.26,1.95-1.42,4.56-.17,2.64-.53,4.73-2.18,1.77-.77-.53-1.38.4-2.3-1.56-.7,1.27-.23,3.47.37,4.34-.8.87-.63,3.03-.67,5.05-.03,2.02-.24,3.87-1.45,3.97.97,2.87.49,5.13-.33,7-.84,1.92-2.04,3.65-2.74,6.01-.91,3-.77,3.61-.19,3.76.57.15,1.51-.22,1.89.86-1.57,2.95-1.58,6.43-1.83,8.58-.68,1.72-1.98,2.36-1.81,1.1-.93,1.43-1.92,2.93-2.87,4.25-.97,1.34-1.98,2.65-3.03,3.94-2.1,2.57-4.36,5.04-6.74,7.44-2.41,2.44-4.81,4.65-7.36,6.74-2.54,2.09-5.2,4.03-7.97,5.81-2.66.82-4.77,2.27-7.05,3.5-1.13.62-2.31,1.17-3.57,1.54-1.25.35-2.55.51-3.99.34l.96.11c.22.21-.33.57-.76.89.99.16,1.96.31,2.89.46-1.5.46-3,.89-4.42,1.48-.46,1.19-2.57,1.97-4.79,2.59-2.21.64-4.49,1.19-5.4,2.35-4.4.56-5.73.26-7.05.05-1.32-.27-2.64-.46-7.03-.72-4.65.84-10.43,1.59-15.95.41-2.01-.37-3.63-1.66-3.21-2-1.2-.13-2.62-.47-4.05-.79-1.42-.39-2.85-.76-4.02-1.19-2.67-.36-3.99-.43-4.44-.13-.44.28.02.87.95,1.58,1.87,1.39,5.74,3.07,7.77,3.59Z"/><path class="c" d="m314.39,250.53c.83.9,2.52-1.97,3.34-2.87.07-.5.13-1.01.18-1.52.85-3.66-.38-4.13-1.72-2.16.65,1.11-.74,4.77-1.8,6.54Z"/><path class="c" d="m298.86,275.39l-.49-1.1c-.89,1.14-1.86,2.32-2.84,3.44.59.44,2.13-1.15,3.33-2.34Z"/><path class="c" d="m308.04,189.9c.62,1.83.79,3.21.98,4.59.2,1.38.42,2.75,1.08,4.66l1.78-1.25c-.13-4.13-.37-8.79-2.49-13.24-1.65-1.05-1.34.45-.96,2.1.38,1.66.78,3.51-.39,3.14Z"/><path class="c" d="m307.14,198.8c-1.76-2.96-2.71-6.37-4.04-9.63-1.31-3.24-2.96-6.28-5.71-7.99-1.68,1.86-.26,4.23,1.49,6.78,1.78,2.53,3.85,5.36,3.81,7.54,1.39,2.37,2.3,3.72,3.53,7.01,1.47,2.35,1.19-1.94.92-3.7Z"/><path class="c" d="m298.42,178.51c-.34-.67-.99-1.28-1.31-1.59-.61-.26-.21,1.13-.16,1.83.34.65,2.19,1.81,1.47-.24Z"/><path class="c" d="m174.89,309.46c3.16,2.11,4.09,3.21,4.43,4.16.35.93.14,1.64,1.21,2.76-1.27-.38-2.53-.78-3.79-1.19-2.24-1.39-4.99-3.3-6.89-4.93-1.91-1.63-2.98-2.96-2-3.11.55.07,4.32.64,7.04,2.31Z"/><path class="c" d="m164.43,309.95c.65.35.66.59,1.31.94l-2.63.18,1.32-1.11Z"/><path class="c" d="m186.11,317.98c1.15.38,2.31.75,3.47,1.09.74.44-1.3.02-1.26.25,1.22.66,2.45,1.29,3.71,1.9-5.13-2.27-5.51-1.04-5.92-3.24Z"/><path class="c" d="m233.49,333.71c2.97.79-2.2,1.58-3.41,2.21-2.48-.08-4.63-1.04-2.66-1.7,3.22.08,4.52-.41,6.07-.51Z"/><path class="c" d="m206.78,323.3c-.81.58-3.15.28-5.21-.08-2.06-.34-3.84-.7-3.63.07.19.66.38,1.32,1.25,1.91,1.4.09,2.79.15,4.18.19,4.96,1.33,3.86,1.51,2.27,1.77-1.57.23-3.63.46-.3,1.8,1.51.23,2.26.33,2.93.22,3.52-.18,2.56-.7.73-1.73,4.86.69,6.28,1.7,7.16,2.78.88,1.05,1.21,2.09,3.98,2.26,3.82-.05,4.55-.82,4.57-1.59.02-.78-.65-1.62.25-2.04-.07,1.2,3.27,2.37,8.1,3.03,4.81.66,11.13.7,16.69-.13,5.09-1.32,10.57-2.17,16.25-3.54,2.84-.68,5.71-1.5,8.57-2.54,2.86-1.05,5.7-2.35,8.41-3.99,5.01-1.91,11.51-4.76,17.54-8.53.07.11.15.2.21.31.09-.18.11-.34.04-.45,2.67-.71,6.14-3.42,9.1-5.89,2.99-2.45,5.51-4.66,6.92-4.07l.79-1.05c4.55-4.57.69.74,3.77-1.44,2.03-2.23,4.78-4.45,7.02-6.68,2.25-2.22,3.96-4.45,4-6.37.42-.3.13.3.55,0,.88-1.38,1.73-2.77,2.55-4.18-.26-.58-.28-1.77-1.22-1.44.65-.91.66-2.07,1.67-3.3,2.14-3.37,1.24.22,2.41-.75,2.42-4.49,4.82-9.35,7.06-14.24,2.26-4.88,4.32-9.8,6.29-14.31.94.29,2.16-2.32,3.11-5.66.95-3.34,1.52-7.38,1.77-9.77.76-2.32,1.11-4.83,1.19-7.34.09-2.5-.08-4.95-.3-7.36-.44-4.82-1.18-9.28-.69-12.95.83,2.07.99,5.01,1.04,7.49.06,2.48.04,4.52.73,4.94l.64-1.97c.21-2.23.46-5.16.38-7.86-.07-2.7-.48-5.18-1.37-6.41-.49,2.58-1.21,2.81-1.71,3.68-.55-1.92-1.13-2.19-1.65-4.58-.62-3.53-1.16-7.41-.2-7.62.77,1.87.8,4.06,1.14,5.83.6.25.68-1.23.57-3.05-.12-1.82-.48-3.97-.54-5.07-.83,2.15-2.04.79-2.99.24-.97-.55-1.52-.34-1.33,4.66-.52-1.74-1.06-3.47-1.66-5.17-1.59-1.71-1.03,2.61-.94,6.27.08,3.68-.15,6.63-2.05,2.39-.83-.77-1.34.51-2.47-2.3-.57,1.76.08,4.91.75,6.17-.74,1.21-.44,4.31-.41,7.2.03,2.89-.15,5.54-1.37,5.7.99,4.14.48,7.34-.41,10.16-.91,2.86-2.18,5.51-3.06,9.06-1.13,4.5-1.08,5.34-.48,5.48.57.13,1.57-.52,1.87.97-1.86,4.43-2.31,9.3-2.85,12.28-.93,2.49-2.46,3.58-2.08,1.83-4.84,8.63-10.48,16.74-16.88,24.02-6.39,7.31-13.63,13.72-21.53,19.35-3.63,1.67-6.67,3.85-9.89,5.75-3.21,1.89-6.62,3.49-10.63,3.74l1.34-.09c.28.18-.55.69-1.19,1.12,1.37-.05,2.69-.09,3.97-.13-2.14.84-4.31,1.61-6.37,2.52-.8,1.36-3.82,2.58-7.06,3.65-3.22,1.08-6.55,2.02-7.9,3.37-6.33,1.28-8.25,1.13-10.16,1.1-.95-.04-1.91-.08-3.42-.07-1.5.03-3.56.07-6.75.13-3.37.63-7.13,1.2-11.13,1.5-1.97.15-4.11.24-6.07.23-2-.02-4.01-.15-6.02-.41-2.92-.37-5.43-1.68-4.88-2.02-3.48-.35-8.43-1.37-11.96-2.36-3.91-.55-5.82-.69-6.36-.42-.55.26.19.92,1.68,1.7,2.94,1.61,8.72,3.47,11.68,4.08Z"/><path class="c" d="m350.3,261.05c.78,1.06,2.87-3,3.81-4.29.12-.68.22-1.36.32-2.04,1.2-4.96-.04-5.46-1.59-2.64.58,1.4-1.2,6.46-2.54,8.97Z"/><path class="c" d="m329.94,295.51l-.41-1.23c-1.24,1.63-2.53,3.21-3.85,4.78.63.38,2.67-1.83,4.26-3.55Z"/><path class="c" d="m343.05,177.05c.94,2.55,1.29,4.45,1.69,6.35.37,1.91.82,3.82,1.73,6.52l1.67-1.59c-.65-5.66-1.46-11.89-4.45-18.1-1.94-1.63-1.36.39-.69,2.65.67,2.27,1.35,4.81.06,4.16Z"/><path class="c" d="m343.39,189.2c-2.24-4.33-3.74-9.24-5.71-13.86-1.93-4.61-4.31-8.9-7.69-11.56-1.48,2.19.57,5.5,2.93,9.24,2.4,3.7,5.05,7.95,5.34,11.01,1.82,3.52,2.99,5.61,4.67,10.35,1.77,3.39,1-2.66.46-5.18Z"/><path class="c" d="m330.56,160.45c-.53-.91-1.39-1.8-1.81-2.25-.74-.42.02,1.43.23,2.35.53.89,2.81,2.69,1.58-.1Z"/><path class="c" d="m129.51,267.81c-1.54-3.56-1.5-5.06-1.2-5.99.31-.94.91-1.35.86-2.84.67,1.07,1.41,2.11,2.11,3.15.91,2.34,2.07,5.3,2.95,7.54.2.56.41,1.12.5,1.54.09.43.15.8.16,1.1.02.6-.15.91-.58.79-.1-.06-.34-.23-.67-.47-.33-.25-.71-.55-1.25-1.07-1.03-.96-2.18-2.27-2.89-3.74Z"/><path class="c" d="m138.53,272.08c-.35-.54-.24-.74-.59-1.28l2.24.87-1.65.41Z"/><path class="c" d="m126.35,254.14c-.49-1.07-.97-2.15-1.41-3.25-.13-.83.83.96.97.78-.25-1.31-.52-2.62-.71-3.93,1.19,5.25,2.58,4.63,1.15,6.4Z"/><path class="c" d="m127.49,209.24c1.12-2.34,1.3,1.99,1.93,2.98-.22,1.97-1.16,3.74-1.8,2.1.16-2.67-.18-3.78-.13-5.08Z"/><path class="c" d="m120.18,234.35c.82.54,1.39,2.72,1.97,4.64.56,1.92,1.15,3.54,1.71,3,.49-.47.96-.93,1.1-1.9-.53-1.17-1.09-2.34-1.58-3.53-.62-4.73.06-3.82.8-2.57.77,1.25,1.72,2.8,1.79-.37-.28-1.31-.44-1.96-.73-2.49-1.16-2.9-1.4-2.01-1.86-.12-.74-4.44.15-5.93,1.02-6.86.9-.94,1.84-1.36,1.73-3.7-.36-3.21-1.05-3.85-1.83-3.86-.78-.02-1.61.61-2.04-.2,1.21.04,2.25-2.97,3.39-7.02,1.1-4.03,2.5-9.15,3.75-13.72.61-4.4,2.43-8.84,4.58-13.24,2.16-4.43,4.65-8.84,6.83-13.71,2.68-3.67,6.56-8.12,10.69-12.31.09.09.19.16.28.25.02-.17,0-.31-.1-.41,2.11-1,4.42-3.71,6.76-5.89,1.14-1.12,2.27-2.09,3.27-2.7,1-.61,1.84-.87,2.48-.49l.67-.83c3.96-3.35.6.77,3.29-.59,1.79-1.55,4.31-2.74,6.49-3.85,2.18-1.12,4.02-2.17,4.51-3.78.41-.05.03.3.44.25l3.19-2.14c-.02-.61.38-1.55-.47-1.8.83-.36,1.25-1.31,2.5-1.7,2.98-1.32.83.89,2.09.85,3.56-1.94,7.59-3.68,11.73-4.9,4.14-1.22,8.39-1.94,12.3-2.04.18.97,2.41.98,5.07.77,1.33-.12,2.77-.24,4.1-.43,1.31-.14,2.53-.27,3.43-.37,3.66.63,7.5.14,11.26-.16,3.73-.29,7.35-.38,9.99.89-1.73.38-3.93.03-5.83-.16-1.89-.21-3.46-.3-3.81.37l1.44.73c1.65.35,3.77.92,5.73,1.29,1.96.39,3.78.56,4.89.03-1.7-1.12-1.72-1.83-2.25-2.52,1.57-.11,1.92-.61,3.86-.45,2.83.37,5.77,1.41,5.52,2.37-1.56-.02-3.1-.75-4.5-.94-.71.96,4.09,2.1,5.55,2.9-1.07-1.6.3-2.17,1.09-2.77.77-.58.97-1.31-2.8-3.06,1.49.18,2.98.38,4.47.62,1.97-.61-1.39-2.16-4.34-3.43-2.94-1.26-5.45-2.34-1.22-2.76.96-.48.02-1.47,2.89-1.42-1.29-1.25-4.38-1.75-5.72-1.45-.87-1.09-3.84-1.64-6.58-2.11-2.75-.49-5.29-.88-5.34-2.1-4.17.66-7.13.25-10.09-.38-2.95-.61-5.93-1.44-9.75-1.25-4.79.27-5.56.84-5.46,1.39.11.58,1.07,1.26-.17,2.1-4.78-.03-9.18,2.18-11.75,3.48-2.45.66-4.2.27-2.65-.56-9.6,1.52-19.13,4.73-27.94,9.39-4.4,2.32-8.64,5-12.64,7.94-4.01,2.92-7.81,6.15-11.37,9.65-1.74,1.12-3.19,2.53-4.59,3.94-1.34,1.48-2.63,2.96-3.83,4.53-2.49,3.06-4.82,6.16-8.24,8.84.37-.3.74-.6,1.13-.89.34-.01-.14.92-.45,1.69,1.12-.88,2.32-1.64,3.42-2.36-1.52,1.83-2.91,3.81-4.1,5.85.09.82-.27,1.95-.86,3.26-.6,1.3-1.33,2.84-2.12,4.37-.73,1.56-1.46,3.15-1.94,4.59-.46,1.45-.72,2.74-.58,3.68-1.28,2.96-2.11,4.87-2.72,6.27-.64,1.38-1.09,2.24-1.54,3.11-.86,1.75-1.91,3.48-3.5,10.01-.24,3.6-.27,7.54-.16,11.61.13,4.07.36,8.25.6,12.43.18,3.02-.32,5.84-.8,5.41.61,3.61,1.62,8.76,2.56,12.45,1.48,3.81,2.55,5.44,3.09,5.76.55.31.59-.71.45-2.36-.15-1.65-.51-3.93-.82-6.17-.32-2.23-.63-4.42-.83-5.89Z"/><path class="c" d="m202.81,131.06c-.19,1.19,3.16.79,4.34,1.01l1.37-.66c3.55-1.15,3.51-2.36,1-2.61-.34.56-1.49,1.04-2.82,1.41-1.32.39-2.83.7-3.89.85Z"/><path class="c" d="m175.7,143.82l-.17-1.2c-1.26.89-2.44,1.91-3.66,2.85.52.53,2.33-.79,3.83-1.65Z"/><path class="c" d="m271.39,128.22c-2.13-1-3.57-1.87-5.08-2.69-1.51-.8-3.1-1.54-5.56-2.08l.31,2.21c4.33,2.3,8.49,5.29,13.57,7.65,2.17-.14.8-1.19-.86-2.32-1.66-1.12-3.61-2.25-2.38-2.77Z"/><path class="c" d="m262.88,121.2c4.55.41,9.06,2.41,13.26,4.45,4.23,2.04,8.16,4.12,12.23,4.72.31-2.57-3.12-4.52-7.23-6.02-4.11-1.54-8.84-2.54-11.32-4.26-3.83-.8-6.14-1.09-10.91-1.86-3.65.06,1.8,2.01,3.96,2.96Z"/><path class="c" d="m289.27,133.5c.8.54,1.87.94,2.4,1.14.8.04-.53-1.23-1.08-1.95-.81-.56-3.5-.96-1.32.81Z"/><path class="c" d="m163.16,252.26c-.91-2.45-.69-3.54-.29-4.28.41-.73,1.04-1.12,1.17-2.19.5.68,1.03,1.34,1.56,1.99.5,1.58,1.18,3.59,1.58,5.18.41,1.58.51,2.76-.29,2.7-.36-.13-2.84-1.37-3.73-3.4Z"/><path class="c" d="m170.86,254.13c-.27-.36-.15-.53-.43-.88l1.96.23-1.53.65Z"/><path class="c" d="m161.94,242.69c-.36-.7-.68-1.41-1.02-2.13-.04-.57.7.58.86.43-.13-.89-.22-1.78-.31-2.67.31,1.76.84,2.5,1.06,2.97.22.47.16.68-.6,1.4Z"/><path class="c" d="m164.87,212.98c1-1.46,1.39,1.28,2.04,1.9-.15,1.22-1.07,2.35-1.74,1.32.1-1.69-.3-2.39-.3-3.22Z"/><path class="c" d="m157.48,229.61c.8.3,1.24,1.73,1.69,2.99.44,1.26.88,2.32,1.47,1.89.51-.37,1.01-.73,1.21-1.4-.45-.74-.9-1.48-1.33-2.25-.35-3.12.24-2.55.93-1.78.7.77,1.54,1.72,1.79-.38-.23-.84-.32-1.26-.61-1.58-1.05-1.82-1.31-1.23-1.85.05-.57-2.89.32-3.92,1.21-4.57.91-.65,1.86-.96,1.75-2.46-.36-2.05-1.08-2.44-1.86-2.44-.78,0-1.6.43-2.04-.09,1.22,0,2.21-1.98,3.19-4.57.94-2.62,1.99-5.78,2.8-8.73.19-2.88,1.42-5.71,2.83-8.51,1.42-2.82,3.02-5.59,4.14-8.86,1.77-2.31,4.39-5.03,7.04-7.65.09.09.19.16.28.25-.01-.14-.06-.25-.16-.34.78-.21,1.51-.77,2.25-1.42.37-.33.72-.7,1.08-1.07.37-.36.74-.73,1.09-1.08.7-.72,1.44-1.32,2.11-1.66.67-.34,1.29-.39,1.85.05l.38-.59c2.49-2.16.61.78,2.43.09.53-.54,1.26-.91,1.99-1.28.74-.35,1.49-.69,2.21-.98,1.42-.61,2.54-1.33,2.65-2.67.29.02.07.28.36.3.64-.49,1.26-1.03,1.91-1.49-.11-.56.03-1.38-.61-1.73.53-.21.68-1.04,1.51-1.22,1.87-.88.7.93,1.57,1.06,4.35-2.68,10.09-4.56,15.05-4.16.16.95,1.58,1.2,3.21,1.12.82-.04,1.71-.07,2.53-.17.82-.1,1.59-.18,2.16-.22,1.16.4,2.34.42,3.53.39,1.19-.07,2.4-.31,3.6-.46,1.19-.19,2.37-.37,3.46-.32,1.09.03,2.1.2,2.89.75-2.18.96-5.67-.72-6.15.67l.9.69c1.04.26,2.37.8,3.61,1.03,1.22.25,2.31.29,3.04-.32-.99-.99-.98-1.68-1.28-2.33.99-.23,1.24-.74,2.46-.73,1.77.16,3.6.88,3.35,1.85-1,.12-1.92-.44-2.79-.53-.26.51.35.94,1.14,1.31.77.39,1.73.71,2.16,1.03-.54-1.46.38-2.15.95-2.81.55-.65.76-1.36-1.58-2.73.96.04,1.93.1,2.89.19,1.37-.79-.73-1.97-2.61-2.97-1.86-.98-3.48-1.9-.63-2.61.67-.55.1-1.46,2.04-1.63-.79-1.13-2.88-1.38-3.79-1-.53-1-2.53-1.39-4.33-1.68-1.8-.33-3.46-.69-3.47-1.88-1.39.41-2.56.47-3.63.38-1.08-.07-2.05-.34-3.03-.68-.97-.36-1.95-.69-3.01-1.02-.53-.16-1.08-.3-1.65-.41-.58-.09-1.18-.14-1.83-.14-3.27,0-3.79.53-3.7,1.08.09.58.76,1.31-.05,2.08-.8-.07-1.6-.05-2.36.1-.76.16-1.48.4-2.15.68-1.35.52-2.46,1.31-3.3,1.81-1.64.42-2.88-.12-1.88-.8-6.53.7-13.05,2.69-19.03,5.7-2.96,1.54-5.86,3.24-8.55,5.18-2.72,1.87-5.36,4.09-7.78,6.45-2.54,1.38-4.2,3.58-5.89,5.67-1.64,2.15-3.33,4.19-5.99,5.86l.9-.54c.31.04.03.71-.17,1.25.94-.51,1.83-.98,2.74-1.38-1.05,1.24-2.08,2.54-2.82,3.97.38,1.25-.7,3.23-1.68,5.35-.99,2.11-1.86,4.35-1.32,5.72-1.76,3.97-2.37,5.11-3.09,6.24-.35.57-.73,1.14-1.15,2.1-.21.48-.45,1.06-.72,1.78-.26.74-.56,1.68-.83,2.81-.11,5.07.68,10.84,1.02,16.43.13,2.03-.45,3.99-.92,3.73.26,1.21.57,2.67.89,4.14.34,1.49.69,2.99,1.02,4.24,1.19,2.54,2.07,3.58,2.56,3.74.5.16.65-.57.63-1.71-.06-2.27-.58-6.22-.84-8.14Z"/><path class="c" d="m212.98,165c0,1.15,2.07,1.09,2.81,1.39l.8-.52c2.11-.8,2.02-2.09.45-2.47-.18.52-.87.88-1.68,1.12-.8.28-1.72.44-2.38.48Z"/><path class="c" d="m196.47,173.16l-.34-1.1c-.76.59-1.48,1.26-2.2,1.9.48.56,1.58-.32,2.54-.8Z"/><path class="c" d="m256.62,160.63c-2.72-1.33-3.54-2.76-6.77-3.38v2.11c2.7,1.76,5.13,4.14,8.35,5.62,1.54-.42.74-1.22-.28-2.05-1-.83-2.22-1.66-1.29-2.31Z"/><path class="c" d="m251.51,154.85c3.1-.05,6.06,1.36,8.81,2.75,2.77,1.39,5.34,2.76,8.3,2.73.64-2.41-1.68-3.69-4.49-4.58-2.82-.9-6.08-1.31-7.65-2.69-2.62-.37-4.22-.39-7.44-.73-2.5.38,1.07,1.81,2.47,2.51Z"/><path class="c" d="m268.79,163.04c.51.37,1.26.57,1.63.66.6-.09-.2-1.03-.5-1.59-.53-.39-2.48-.36-1.13.93Z"/><path class="b" d="m309.29,231.13c-1.81,6.15-3.32,7.97-4.31,8.86-1.02.88-1.8.78-3.15,2.68.29-1,.61-1.99.86-2.99l.73-3.01c.35-.96.73-1.99,1.11-3.04.35-1.07.71-2.17,1.06-3.26.73-2.34,1.19-4.74,1.57-6.61.73-3.8,1.48-5.78,2.03-4.71.07.35.38,1.75.6,3.9.1,1.07.18,2.35.12,3.76-.03.71-.09,1.44-.19,2.2-.1.73-.26,1.59-.44,2.23Z"/><path class="b" d="m305.28,216.55c-.09,1.02-.31,1.17-.36,2.22-.41-1.06-.81-2.12-1.15-3.21.5.34,1.01.67,1.51.99Z"/><path class="b" d="m298.45,251.23c-.88,1.74-1.9,3.42-2.93,5.08-.46.51-.27.04,0-.54.25-.6.56-1.33.42-1.3-.65.88-1.37,1.71-2.08,2.54-.69.84-1.43,1.64-2.18,2.43,1.48-1.63,2.38-3.02,3.09-4.05.66-1.07,1.06-1.84,1.4-2.4.67-1.11.95-1.43,2.27-1.75Z"/><path class="b" d="m235.45,283.02c-2.02-.26-1.28-.69.1-1.18,1.39-.49,3.43-1.11,4.14-1.56,3.16-.42,6.19-.26,3.78,1-4.25.83-5.94,1.43-8.02,1.74Z"/><path class="b" d="m275.94,276.7c.48-1.24,3.33-3.56,5.72-5.8,2.38-2.25,4.27-4.37,3.34-4.41-.81-.04-1.58-.07-2.91.68l-2.04,2.35-2.15,2.27c-3.15,2.28-4.54,2.98-4.89,2.97-.36-.01.29-.77,1.04-1.63,1.46-1.78,3.28-3.95-1.13-1.43-1.73,1.31-2.63,1.92-3.27,2.61-1.88,1.64-2.54,2.28-2.31,2.48.22.17,1.31-.11,2.75-.6-3.09,2-5.36,2.9-6.99,3.32-1.63.43-2.68.35-3.51.2-1.69-.35-2.55-.97-6.13.33-4.87,1.91-5.73,2.75-5.53,3.54.18.76,1.39,1.29.22,2.05-.26-1.2-5.26-.82-12.02-.86-3.39-.01-7.23-.15-11.16-.52-3.93-.36-7.94-.95-11.7-1.7-7.15-.79-14.46-3.42-21.31-7.34-6.88-3.93-13.27-9.04-19.55-14.92-4.78-5.58-9.81-13.77-12.85-22.64.12-.04.23-.1.35-.13-.17-.18-.32-.27-.45-.23-.42-3.5-2.02-8.9-2.61-13.93-.63-5.01-.31-9.49,1.09-10.22-.05-.55-.13-1.1-.15-1.66.29-4.12.58-4.08.85-3.6.14.24.31.58.49.58.19,0,.38-.35.71-1.48.29-3.81,1.74-7.77,3.19-11.25,1.46-3.47,2.91-6.38,2.8-8.59.43-.44.15.3.58-.14.82-1.8,1.79-3.53,2.79-5.26-.23-.63-.05-2.03-1.13-1.55.86-1.14,1.07-2.55,2.55-4.03,1.66-2,2.04-1.87,2.1-1.46.08.43-.05,1.18.74.66.5-.62,1.02-1.25,1.57-1.85.53-.61,1.09-1.23,1.69-1.82.59-.6,1.19-1.21,1.78-1.82.6-.6,1.25-1.16,1.88-1.74,2.52-2.33,5.31-4.41,8.19-6.28,5.8-3.68,12.14-6.26,18.16-7.31.14.48,1.07.58,2.45.45.7-.04,1.52-.11,2.42-.24.45-.07.92-.14,1.4-.21.49-.06.99-.12,1.51-.18,2.05-.31,4.3-.52,6.4-.74,1.06-.07,2.07-.15,3-.21.93-.08,1.8-.06,2.53-.1.73.11,1.47.18,2.21.25.74.1,1.49.18,2.25.25,1.48.11,2.97.23,4.47.34,2.97.24,5.98.51,8.95.94,1.48.21,2.95.47,4.38.77,1.43.3,2.86.64,4.07,1.06,1.25.43,2.47.79,3.56,1.34,1.09.56,2.09,1.15,2.99,1.79-1.31-.23-2.73-.75-4.18-1.27-1.49-.45-2.95-1.01-4.37-1.5-2.96-.95-5.42-1.54-6.07-.98.73.39,1.45.8,2.17,1.21,1.26.46,2.78,1.03,4.21,1.66.69.31,1.4.63,2.11.95.7.32,1.43.56,2.1.94,1.36.7,2.7,1.24,3.88,1.72,1.16.52,2.22.85,3.07.9-2.14-2.05-1.99-2.86-2.62-3.79,1.16.34,1.85.53,2.64.7.77.21,1.64.41,2.99,1.11,3.91,2.18,7.54,5.51,6.92,6.24-2.14-1.16-3.94-3.07-5.88-4.13-.32.12-.15.49.3.98.45.5,1.21,1.09,1.98,1.85.79.73,1.67,1.5,2.47,2.2.79.71,1.43,1.43,1.85,1.91-.86-2.45,1.11-1.92,2.36-1.87.62.02,1.04-.1.76-.84-.3-.71-1.18-2.18-3.57-4.42l1.51.98.76.49.71.55,2.87,2.19c1.42.5,1.14-.3.05-1.73-.54-.71-1.29-1.58-2.12-2.51-.86-.88-1.85-1.78-2.78-2.68-.47-.45-.92-.88-1.36-1.29-.45-.39-.88-.76-1.27-1.09-.77-.69-1.36-1.27-1.63-1.67-.55-.81.15-.91,3.29.39,1.51.22.48-1.54,4.52.79-.74-1.13-2.14-2.49-3.74-3.47-1.58-1.02-3.15-1.92-4.23-2.15-.54-.81-1.91-1.83-3.65-2.93-.9-.49-1.9-.99-2.94-1.5-1.04-.5-2.09-1.06-3.19-1.45-2.17-.84-4.26-1.74-5.76-2.38-1.51-.68-2.49-1.31-2.45-1.92-6.73-.8-11.54-1.9-16.38-2.97-4.78-.95-9.49-2.09-15.85-1.77-2.01.16-3.61.28-4.86.48-1.25.21-2.17.4-2.83.58-1.32.34-1.61.66-1.54.95.15.57,1.69,1.06-.39,2.19-.98.12-1.95.27-2.91.45-.96.2-1.9.47-2.82.73-1.86.5-3.59,1.26-5.22,1.96-1.62.74-3.08,1.59-4.42,2.32-1.29.82-2.45,1.57-3.45,2.22-1.86.99-3.45,1.64-4.31,1.8-.83.21-.97-.13.2-.98-7.27,3.52-13.96,8.24-19.93,13.73-6.04,5.6-11.31,12.34-15.11,19.94-1.91,3.79-3.47,7.77-4.65,11.86-.29,1.02-.55,2.05-.81,3.08-.22,1.03-.48,2.08-.66,3.11-.34,2.05-.75,4.07-.94,6.16-.55,4.13-.63,8.36-.5,12.58.2,4.23.76,8.45,1.66,12.61.77,6.96,3.49,13.31,6.69,19.1,3.23,5.83,6.95,11.16,10.41,17.09l-1.15-1.97c0-.42,1.24.77,2.24,1.68-.55-1-1.1-1.95-1.58-2.93-.46-.99-.92-1.96-1.36-2.91l1.76,2.37c.59.79,1.25,1.51,1.88,2.27.64.74,1.27,1.49,1.95,2.2.69.71,1.39,1.41,2.09,2.09,2.24.82,6.36,4.58,11.14,7.8,4.75,3.25,10.09,5.88,12.99,6.07,4.85,2.28,8.11,3.47,10.47,4.33,1.18.46,2.14.77,2.99,1.09.85.32,1.59.59,2.34.85.75.26,1.49.53,2.37.8.87.26,1.87.54,3.11.86,2.49.58,5.98,1.3,11.48,1.69,5.9-.18,12.33-1.02,18.82-2.59,6.47-1.56,12.95-3.71,19.34-6.42,4.6-1.95,9.01-3.61,8.5-2.81,2.6-1.61,5.76-3.72,8.64-6,1.48-1.1,2.89-2.33,4.27-3.47,1.34-1.2,2.64-2.33,3.76-3.45,1.14-1.25,2.06-2.4,2.82-3.41.78-.99,1.37-1.87,1.84-2.61.96-1.45,1.38-2.37,1.44-2.81.13-.88-1.09.19-3.11,2-.98.94-2.22,2-3.51,3.19-1.34,1.13-2.74,2.39-4.2,3.53-1.43,1.19-2.91,2.26-4.24,3.28-1.36.97-2.59,1.84-3.58,2.54Z"/><path class="b" d="m194.85,162.17c-.07.69,1.07.44,2.47.12,1.41-.32,3.02-.87,3.91-.93l1.96-1.19c1.3-.56,2.28-1.05,2.94-1.48.67-.42,1.05-.72,1.14-.99.18-.5-.81-.81-2.68-.49-.25.34-.8.71-1.54,1.1-.74.39-1.63.87-2.6,1.3-.98.41-1.98.93-2.96,1.36-.49.21-.96.42-1.41.62-.44.21-.86.41-1.23.59Z"/><path class="b" d="m165.04,196.68l-.79-1.08c-.68,2.26-1.22,4.56-1.62,6.88.37-.02.75-.85,1.11-2,.21-.57.41-1.21.62-1.87.23-.65.46-1.31.68-1.93Z"/><path class="b" d="m293.16,183.37c-.96-1.65-1.7-3.09-2.39-4.42-.76-1.29-1.46-2.46-2.16-3.64-.18-.3-.36-.59-.54-.89-.2-.28-.41-.57-.62-.86-.42-.58-.87-1.17-1.35-1.78-.49-.61-.99-1.26-1.59-1.91-.62-.63-1.3-1.28-2.04-1.98-.12.84-.25,1.67-.39,2.49l.89,1.15c.27.41.54.82.81,1.23.53.82,1.07,1.65,1.61,2.49.57.81,1.01,1.72,1.5,2.6.49.87.98,1.76,1.48,2.65.45.92.9,1.84,1.35,2.78.44.94.99,1.83,1.37,2.83.81,1.95,1.82,3.87,2.59,5.95,2.09,2.4,1.48-.23.5-3.27-.57-1.48-1.19-3.05-1.48-4.15-.32-1.09-.36-1.68.46-1.27Z"/><path class="b" d="m286.06,167.57c5.72,4.71,10.23,11.61,13.39,18.68,3.22,7.1,5.1,14.27,7.32,20.46.54-.51.89-1.3,1.08-2.33.09-.51.18-1.09.17-1.7-.02-.61-.08-1.27-.18-1.96-.21-1.39-.45-2.97-.96-4.58-.53-1.6-1.15-3.3-1.82-5.01-.79-1.67-1.64-3.36-2.47-5.02-.89-1.64-1.89-3.2-2.76-4.73-.42-.78-.91-1.49-1.37-2.19-.45-.7-.88-1.39-1.28-2.05-.39-.67-.76-1.31-1.11-1.92-.37-.59-.7-1.17-.98-1.72-1.08-1.21-1.97-2.36-2.98-3.33-.99-.97-1.94-1.91-2.93-2.88-.48-.49-1-.96-1.56-1.43-.55-.48-1.12-.97-1.72-1.49-.6-.52-1.22-1.06-1.88-1.64-.7-.54-1.44-1.11-2.23-1.71-2.52-1.56-2.04-.64-.63.98,1.47,1.56,3.63,4.1,4.91,5.57Z"/><path class="b" d="m304.88,210.84c0,1.6.29,3.45.44,4.38.41,1.15.72-1.84.99-3.27.04-1.68-1.27-5.75-1.42-1.11Z"/><path class="c" d="m103.06,373.76c3.13,1.44,5.27,2.4,6.75,3.13,1.48.75,2.29,1.31,2.84,1.79,1.11.99,1.12,1.77,3.6,2.86-1.21-.17-2.43-.31-3.63-.53l-1.81-.31-1.8-.38c-4.62-1.57-10.19-4.28-14.01-6.78-1.92-1.25-3.43-2.39-4.25-3.22-.83-.81-1.01-1.26-.24-1.18.45.13,2.27.75,4.63,1.59,2.37.81,5.25,1.89,7.93,3.03Z"/><path class="c" d="m85.94,371.21c1.2.7,1.27,1.03,2.5,1.69-1.42-.23-2.82-.57-4.26-.86l1.76-.82Z"/><path class="c" d="m126.97,382.25c1.13.03,2.26.09,3.39.06,1.13,0,2.25,0,3.47-.04,1.66.16-2.42.46-2.15.64l8.02.64c-2.73-.14-4.77-.16-6.33-.14-1.51.03-2.56.04-3.35.06-1.55.02-2.06-.2-3.07-1.22Z"/><path class="c" d="m221.08,390.44c5.42.89-4.15,1.5-6.34,2.14-4.52-.1-8.52-1.02-4.9-1.7,5.96.07,8.37-.38,11.24-.44Z"/><path class="c" d="m168.68,381.92c-2.72,1.46-18.39.6-16.82,1.97.68.59,1.36,1.18,3.25,1.54l7.9-.77c19.76.58-8.22,1.78,5.06,3.1,2.87-.06,4.3-.09,5.51-.32,6.49-.74,4.6-1.1.83-1.83,18.85-.2,11.68,3.77,21.95,3.75,14.09-.5,5.42-2.93,8.82-3.81-.15,2.41,25.48,4.27,46.21,4.43,19.39-1.02,41.18,1.33,64.4-.18,2.48.08,5.15.17,7.96.27,2.84.11,5.92.13,9.05,0,6.27-.27,13-1.12,19.56-2.93.03.12.09.23.1.36.29-.19.46-.36.42-.49,2.51-.29,5.79-1.19,9.15-2.59,3.38-1.35,6.91-3.14,10.1-5.03,6.44-3.73,11.48-7.81,13.29-7.56.58-.6,1.18-1.17,1.74-1.8,2.29-2.09,3.38-3.19,3.95-3.6.56-.42.55-.2.43.15-.24.69-.86,1.99,1.87-.41,1.98-2.14,4.05-4.5,6.13-6.9,2.04-2.43,4.01-4.95,5.74-7.46,3.42-5.05,5.74-10.07,5.77-13.3.51-.82.15.39.65-.44,1.05-3.01,1.89-6.08,2.56-9.18-.38-.76-.58-2.73-1.54-1.37.55-2.09.27-4.06.94-7.04.26-1.91.45-2.91.6-3.39.16-.48.32-.43.47-.22.31.42.62,1.48.99.1.18-2.47.19-4.98.16-7.52-.05-2.36-.11-4.74-.16-7.14-.08-4.8-.13-9.67-.11-14.51.03-9.68.29-19.26.89-27.96,1.98.01,1.67-20,1.55-28.42,1.75-16.82-1.98-36.26-.31-49.02,1.27,7.55-.12,20.6,1.27,22.05l.64-3.47c.44-7.83,1.39-20.3-.07-24.95-.8,4.34-1.51,4.63-2.1,6.08-.36-3.48-.91-4.07-1.11-8.42-.16-6.38.12-13.35,1.11-13.35.36,3.49,0,7.26.08,10.45,1.11,1.17,1.19-10.15,1.55-13.92-2.54,6.67-3.61-11.04-5.24,6.95l-.51-9.87c-2.26-7.55-2.19,31.89-4.68,14.77-.68-1.74-1.43.58-2.02-5.23-.91,3.18-.76,9.57-.24,12.18-1.79,4.35-.2,24.64-2.62,25.23,1.94,16.55-1.47,24.35-1.91,39.43-.52,19.14,1.43,6.68,2.73,12.19-.75,9.57.47,19.15,1.07,24.96.04,5.22-.87,8.41-1.23,4.92-.25,4.89-.5,9.8-.75,14.7l-.32,7.37c-.11,2.43-.18,5.03-.34,7.15-.68,8.88-3.09,17.45-7.13,25.28-4.04,7.81-9.61,15.06-16.04,21.01-6.49,5.95-13.98,10.71-22.17,14.14-6.87,2.14-13.31,3.98-20.19,4.93-3.45.47-6.93.71-10.43.59-.88-.03-1.74-.09-2.64-.17-.96-.08-1.93-.17-2.89-.28-1.93-.22-3.88-.49-5.83-.85l2.6.48c.37.28-1.63.4-3.21.52,2.59.52,5.09,1.05,7.48,1.58-4.65-.21-9.34-.37-13.95-.34-5.13,1.92-26.47-.03-33.02,1.91-25.72-.65-14.93-1.49-40.87-2.34-13.87.7-30.38,1.66-46.82,1.41-5.96-.07-11.39-.96-10.41-1.39-7.16.16-17.41.17-24.81.13-31.59,1.88,4.07,3.53,15.99,3.67Z"/><path class="c" d="m419.07,280.18c1.11,1.17,1.55-6.67,2.02-9.28l-.36-3.48c-.39-8.7-1.66-9-2.34-3.49.95,2.03.91,11.31.67,16.25Z"/><path class="c" d="m406.92,353.33c-.07-.56-.17-1.13-.26-1.69-1.97,3.44-4.14,6.71-6.53,9.88.8.23,4.32-4.38,6.79-8.19Z"/><path class="c" d="m411.32,124.9c-.11,10.22-1.25,14.23-.87,24.98l2.03-2.02c.46-5.22,1.02-10.58,1.47-16.2.1-1.41.2-2.83.31-4.26.09-1.51.13-3.04.11-4.6-.04-3.11-.3-6.31-.87-9.56-.9-2.1-1.29-2.12-1.36-1.1-.07,1.03.12,3.12.22,5.36.24,4.48-.04,9.46-1.03,7.41Z"/><path class="c" d="m407.67,146.97c-.48-4.64-.65-9.48-.68-14.38,0-2.42,0-4.85,0-7.28-.03-2.36-.17-4.72-.42-7.04-.49-4.64-1.46-9.18-2.91-13.26-1.44-4.03-3.52-7.62-5.94-10.58-.59,1.47,0,3.81.95,6.67.49,1.41,1.03,2.98,1.62,4.67.56,1.66,1.17,3.6,1.72,5.52,1.13,3.88,2.03,8.09,2.43,12.05.21,2.01.26,3.81.24,5.76-.02,1.88-.1,3.6-.29,5.09.55,7.84,1.03,12.49,1.54,22.35.99,7.25,1.51-4.64,1.75-9.57Z"/><path class="c" d="m397.35,89.17c-.96-1.75-2.35-3.6-3.06-4.53-1.08-1.02.56,2.37,1.14,3.99.98,1.71,4.35,5.7,1.92.54Z"/><path class="c" d="m19.45,351.8c-1.61-4.35-2.35-7.38-2.74-9.53-.37-2.15-.38-3.41-.28-4.32.25-1.82.84-2.24.65-5.59.83,2.92,1.83,5.78,2.9,8.61,1.54,5.82,4.1,12.94,6.46,18.27,2.33,5.28,4.04,8.69,2.5,7.53-.41-.44-2.08-2.26-4.02-4.97-.97-1.36-1.99-2.94-2.95-4.67-.93-1.71-1.82-3.5-2.52-5.33Z"/><path class="c" d="m34.33,367.37c-.96-1.35-.95-1.69-1.87-3.05,1.29,1.08,2.59,2.11,3.9,3.12l-2.03-.06Z"/><path class="c" d="m14.26,319.25c-.34-2.82-.57-5.65-.7-8.48.09-1.97.56,2.84.74,2.55.06-3.18.28-6.38.49-9.39-.14,3.07-.17,5.5-.08,7.33.07,1.83.22,3.09.3,4.04.15,1.89.11,2.51-.76,3.95Z"/><path class="c" d="m21.7,211.41c.89-6.17,1.5,4.71,2.14,7.21-.1,5.14-1.02,9.69-1.7,5.57.07-6.78-.38-9.52-.44-12.78Z"/><path class="c" d="m13.18,271c1.46,3.09.59,20.91,1.96,19.13.59-.77,1.18-1.54,1.54-3.7l-.77-8.99c.59-22.47,1.78,9.35,3.11-5.74-.06-3.26-.09-4.89-.31-6.26-.74-7.38-1.1-5.24-1.83-.95-.19-21.44,3.77-13.28,3.76-24.95-.5-16.02-2.93-6.16-3.8-10.03,2.42.17,4.27-28.98,4.43-52.55-.51-11.02-.19-22.74.07-35,.06-3.07.11-6.17.17-9.3.05-3.17.03-6.22.16-9.32.26-6.2.9-12.5,1.95-18.86,1.36-5.32,3.36-11.34,6.28-17.4,1.43-3.04,3.07-6.09,4.91-9.09,1.81-3.01,3.82-5.97,5.97-8.83.1.08.22.13.3.22.12-.34.16-.58.05-.66,3.74-3.74,9.29-10.52,14.97-15.78,5.65-5.29,11.33-9.02,13.11-8.57l1.97-1.58c2.64-1.71,4.03-2.45,4.69-2.72.65-.27.58-.06.38.26-.4.64-1.34,1.64,1.91.15,4.95-2.93,11.28-5.22,17.01-6.99,5.75-1.81,10.77-3.11,13.4-4.86.94-.04-.23.33.71.29,2.99-.78,6-1.42,9.04-1.91.54-.64,2.35-1.47.74-1.92,2.17-.19,4.02-1.01,7.16-.89,8.14-.05.97,1.14,3.92,1.6,20.77-.66,44.52-.84,64.29.33,0,1.99,22.72,1.63,32.3,1.52,19.12,1.75,41.23-1.98,55.74-.31-8.59,1.27-23.42-.12-25.07,1.27l3.95.64c8.91.44,23.09,1.39,28.37-.08-4.94-.8-5.27-1.51-6.91-2.1,3.96-.36,4.62-.91,9.57-1.11,7.25-.16,15.18.12,15.18,1.11-3.97.36-8.26,0-11.89.08-1.33,1.11,11.54,1.19,15.83,1.55-7.58-2.54,12.55-3.61-7.9-5.24l11.22-.51c8.59-2.26-36.27-2.18-16.8-4.68,1.98-.68-.65-1.43,5.95-2.02-3.62-.91-10.89-.76-13.86-.24-4.95-1.78-28.03-.2-28.69-2.62-18.82,1.94-27.69-1.47-44.85-1.91-21.79-.49-7.6,1.44-13.87,2.75-10.9-.74-21.8.5-28.4,1.1-5.94.05-9.57-.86-5.61-1.22-11.14-.53-22.32-.97-33.53-1.33l-8.44-.25c-3.03-.04-6.07.07-9.09.32-6.04.5-11.99,1.54-17.8,3.01-5.82,1.46-11.42,3.32-16.99,5.54-5.55,2.22-10.96,4.87-16.16,7.88-10.38,6.06-19.91,13.81-27.89,22.69-7.12,6.7-12.57,14.69-16.99,23.1-4.43,8.44-7.91,17.27-11.41,26.58l1.21-3.08c.37-.39-.09,2.09-.41,4.04,1.21-3.05,2.48-5.93,3.87-8.6-1.88,5.43-3.29,11.08-4.06,16.67.25,1.63.11,4.43-.04,7.87-.08,1.72-.16,3.59-.21,5.55-.05,1.93-.05,4.07-.05,6,0,7.71,0,15.63.98,19.35-.63,29.2-1.48,16.96-2.32,46.46.7,15.78,1.66,34.55,1.4,53.24-.08,6.77-.97,12.95-1.39,11.83.15,8.14.17,19.78.12,28.2,1.87,35.92,3.53-4.62,3.68-18.16Z"/><path class="c" d="m171.31,28.74c-1.32,1.11,7.58,1.54,10.55,2.01l3.95-.36c9.88-.4,10.22-1.68,3.95-2.34-2.3.95-12.84.93-18.45.69Z"/><path class="c" d="m95.51,35.7l.79-1.46c-3.57,1.38-7.04,2.88-10.42,4.56.28.25,1.68-.17,3.49-.87,1.83-.67,4.1-1.55,6.13-2.24Z"/><path class="c" d="m347.49,22.8c-5.61-1.06-9.58-1.74-13.66-2.24-4.09-.52-8.29-.71-14.4-.51l2.3,2.03c5.95.41,11.85,1.11,17.99,2.23,6.1,1.11,12.34,2.61,18.9,4.5,4.72.34.91-1.3-3.67-2.79-4.55-1.51-9.87-2.64-7.46-3.21Z"/><path class="c" d="m322.74,17.26c5.29-.52,10.98-.52,16.64.01,5.69.52,11.4,1.61,16.88,3.04,5.49,1.41,10.77,3.18,15.75,4.95,2.5.9,4.93,1.78,7.28,2.63,2.38.91,4.68,1.78,6.89,2.62-.51-1.65-2.82-3.7-6.52-5.64-3.52-1.84-8.18-3.63-13.24-5.06-5.06-1.45-10.5-2.52-15.53-3.32-5.03-.79-9.67-1.32-13.14-1.99-4.66-.11-8.35.02-12.31.26-3.87.25-7.97.5-13.59.76-8.24.99,5.28,1.51,10.89,1.75Z"/><path class="c" d="m389.94,35.35c1.95,1.24,4.31,2.41,5.49,2.97,1.6.49-1.85-1.98-3.36-3.29-1.93-1.24-7.63-3.47-2.14.32Z"/><path class="b" d="m81.54,411.17c3.89,1.89,6.53,3.13,8.33,4.1,1.81.95,2.8,1.63,3.47,2.21,1.33,1.16,1.34,1.95,4.31,3.4-2.93-.65-5.84-1.38-8.73-2.22-5.55-2.23-12.32-5.61-17.08-8.6-1.19-.74-2.26-1.45-3.17-2.09-.22-.16-.44-.31-.64-.46-.17-.14-.34-.27-.49-.39-.31-.26-.59-.51-.82-.74-.94-.92-1.17-1.45-.3-1.25.24.09.86.33,1.74.67.45.16.97.35,1.54.55.62.24,1.31.49,2.03.77,2.91,1.12,6.5,2.51,9.8,4.05Z"/><path class="b" d="m61.25,406.68c1.47.93,1.58,1.26,3,2.14-1.62-.44-3.28-.99-4.97-1.48l1.97-.66Z"/><path class="b" d="m110.62,423.18c2.73.43,5.47.76,8.2.99,1.89.36-2.8.16-2.57.36,3.06.6,6.15,1.05,9.25,1.37-6.31-.53-9.43-.85-11.3-1.05-1.86-.23-2.46-.48-3.58-1.67Z"/><path class="b" d="m223.28,432.86c6.52.89-4.99,1.49-7.63,2.14-5.44-.1-10.25-1.02-5.89-1.7,7.17.07,10.07-.38,13.53-.44Z"/><path class="b" d="m160.23,424.33c-3.27,1.46-22.13.59-20.24,1.96.82.59,1.63,1.18,3.91,1.54l9.51-.77c23.78.59-9.89,1.78,6.08,3.1,3.45-.06,5.17-.09,6.62-.32,7.8-.74,5.54-1.1,1-1.83,22.68-.2,14.05,3.77,26.4,3.75,16.95-.5,6.52-2.93,10.61-3.8-.18,2.41,30.66,4.28,55.59,4.44,11.67-.51,24.05-.17,37.01.1,6.48.14,13.11.26,19.86.25,6.73.02,13.76-.16,20.79-1.07,6.04-.29,13.09-.95,20.46-2.48,7.37-1.48,15.1-3.75,22.55-6.81.05.12.13.22.15.35.32-.25.5-.45.45-.58,2.89-.76,6.57-2.27,10.4-4.25,3.84-1.98,7.82-4.38,11.49-6.84,7.34-4.9,13.1-9.94,15.09-9.87.68-.7,1.34-1.42,2.01-2.13,2.63-2.51,3.92-3.78,4.56-4.29.64-.51.61-.27.46.12-.31.78-1.08,2.22,2.06-.6,2.28-2.49,4.81-5.18,7.27-7.98,2.46-2.8,4.86-5.72,6.97-8.61,4.24-5.75,7.23-11.39,7.77-15.03.63-.92.09.45.72-.48,1.5-3.37,2.9-6.81,4.08-10.31-.23-.89-.12-3.19-1.3-1.68.45-1.18.69-2.36,1-3.64.26-1.3.63-2.7,1.21-4.41.64-2.17,1-3.32,1.25-3.85.26-.53.4-.45.51-.19.22.53.32,1.79.96.25,1.29-5.64,2.2-11.55,2.76-17.56.29-3,.47-6.03.58-9.06.11-3.01.1-6.12.11-8.98.03-11.65.29-23.17.89-33.63,1.98.01,1.67-24.06,1.55-34.19,1.75-20.23-1.98-43.62-.31-58.96,1.27,9.08-.12,24.77,1.27,26.52l.64-4.18c.44-9.42,1.39-24.42-.08-30-.8,5.22-1.51,5.57-2.1,7.31-.36-4.19-.91-4.89-1.11-10.13-.16-7.67.12-16.06,1.11-16.06.36,4.2,0,8.73.08,12.57,1.11,1.41,1.19-12.21,1.55-16.74-2.54,8.02-3.61-13.28-5.24,8.35l-.51-11.87c-2.26-9.09-2.19,38.37-4.68,17.77-.68-2.1-1.43.69-2.02-6.3-.91,3.83-.76,11.52-.24,14.66-1.78,5.24-.2,29.65-2.62,30.36,1.94,19.91-1.47,29.3-1.91,47.45-.52,23.04,1.43,8.04,2.73,14.67-.75,11.52.47,23.05,1.07,30.03.04,6.28-.87,10.12-1.23,5.93-.13,2.94-.26,5.89-.39,8.84-.14,2.85-.3,5.65-.6,8.45-.54,5.6-1.47,11.13-2.76,16.54-1.29,5.42-2.99,10.7-5.05,15.83-2.09,5.11-4.54,10.09-7.36,14.86-2.81,4.77-5.96,9.32-9.42,13.62-1.73,2.15-3.54,4.23-5.42,6.26-1.89,2.03-3.86,4.02-5.87,5.93-4.02,3.82-8.27,7.36-12.73,10.56-2.23,1.6-4.51,3.12-6.84,4.55-2.35,1.43-4.76,2.83-7.19,4.11-8.27,3.57-16.15,6.92-24.36,9.35-4.09,1.19-8.29,2.13-12.51,2.68-4.21.53-8.54.66-12.98.26.98.09,1.97.16,2.95.23.45.24-1.78.57-3.56.81,2.96.32,5.82.56,8.56.73-5.22.48-10.57.68-15.9.86-1.47.52-4.13.82-7.45.94-3.38.12-7.43.11-11.51.11-8.18,0-16.56,0-20.51.96-30.94-.66-17.96-1.49-49.17-2.35-16.69.7-36.55,1.65-56.33,1.4-7.17-.08-13.71-.96-12.52-1.39-8.61.16-20.94.17-29.84.13-4.75.23-8.24.47-10.67.69-1.23.11-2.18.22-2.81.32-.66.11-1.11.19-1.36.3-.51.2-.25.41.59.62.42.11.99.2,1.67.3.74.09,1.61.18,2.58.26,7.77.67,22.08,1.12,29.24,1.19Z"/><path class="b" d="m464.41,293.61c1.11,1.4,1.55-8.02,2.02-11.16l-.36-4.19c-.39-10.47-1.66-10.82-2.34-4.19.95,2.44.91,13.6.67,19.54Z"/><path class="b" d="m442.86,379.38l-.07-1.87c-2.48,3.9-5.16,7.67-8.05,11.28.8.2,5.1-5.06,8.12-9.41Z"/><path class="b" d="m454.87,106.77c.93,6.11,1.04,10.42,1.05,14.82,0,2.2-.13,4.41-.18,6.87-.05,2.46-.05,5.19.03,8.42l2.03-2.43c.24-3.15.49-6.34.74-9.59.23-3.39.21-6.84.05-10.29-.31-6.94-1.33-14.28-3.57-21.76-2.58-4.7-1.39-.13-.41,5.09,1.02,5.23,1.61,11.16.27,8.86Z"/><path class="b" d="m453,133.37c-.24-2.78-.4-5.67-.51-8.51-.13-2.76-.38-5.57-.7-8.44-.61-5.73-1.5-11.45-2.83-16.99-2.64-11.07-7.13-21.31-13.18-28.28-.38,1.7.6,4.46,2.05,7.88,1.44,3.44,3.46,7.72,5.29,12.35,1.86,4.63,3.52,9.66,4.65,14.43,1.11,4.76,1.68,9.27,1.61,12.71.34,2.22.58,4.18.73,6.06.13,2.01.26,3.94.39,5.95.25,4.06.5,8.43.76,14.36.99,8.72,1.51-5.59,1.75-11.52Z"/><path class="b" d="m434.62,65.03c-1.26-2.06-2.98-4.28-3.85-5.39-1.28-1.25.9,2.76,1.74,4.67,1.27,2.04,5.43,6.79,2.1.71Z"/><path class="d" d="m346.3,238.1c-1.19,4.55-2.38,7.45-3.3,9.43-.93,1.97-1.67,3.01-2.27,3.7-1.24,1.36-1.99,1.35-3.76,4.22.99-2.89,1.86-5.81,2.61-8.75,2.14-5.62,4.17-13.07,5.23-18.82,1.1-5.72,1.53-9.65,2.17-7.78.1.61.48,3.13.53,6.51.07,3.38-.26,7.62-1.21,11.48Z"/><path class="d" d="m342.8,216.58c.07,1.68-.11,1.96-.1,3.64-.46-1.63-1.01-3.23-1.57-4.8l1.67,1.16Z"/><path class="d" d="m331.66,267.88c-1.37,2.52-2.85,4.98-4.44,7.38-1.26,1.55,1.25-2.65.91-2.53-1.93,2.58-3.98,5.05-6.14,7.41,2.15-2.44,3.56-4.43,4.59-5.97,1.03-1.54,1.65-2.66,2.15-3.48.97-1.66,1.41-2.11,2.93-2.81Z"/><path class="d" d="m239.39,318.04c-3.04-.15-1.92-.63.22-1.19,2.14-.57,5.28-1.35,6.42-1.88,4.9-.71,9.39-.87,5.63.67-6.51,1.24-9.12,1.97-12.28,2.4Z"/><path class="d" d="m298.47,305.13c.94-1.53,5.28-4.93,8.74-8.3,3.5-3.34,6.26-6.45,5.13-6.25-.98.16-1.95.32-3.78,1.6-2.01,2.32-4.15,4.55-6.38,6.7-4.61,3.53-6.69,4.56-7.15,4.64-.48.05.6-.92,1.78-2.13,1.21-1.17,2.5-2.58,2.72-3.13.21-.57-.64-.25-3.88,1.71-2.62,1.95-3.99,2.81-5.04,3.74-2.97,2.23-4.05,3.05-3.78,3.23.26.17,1.84-.36,3.91-1.18-4.74,2.84-8.02,4.14-10.37,4.96-2.36.78-3.81.92-4.96.92-1.16,0-2.03-.15-3.28-.02-1.26.13-2.84.53-5.57,1.48-3.7,1.41-5.91,2.26-7.15,2.94-1.25.66-1.53,1.13-1.45,1.5.17.76,1.86,1.18.06,2.09-.23-1.23-7.57-.22-17.74.15-5.09.18-10.88.13-16.84-.3-5.96-.44-12.08-1.17-17.71-2.32-5.35-.78-10.78-2.25-16.21-4.2-2.72-.97-5.41-2.07-8.1-3.27-2.68-1.22-5.33-2.57-7.96-4.02-10.5-5.86-20.41-13.58-29.71-22.64-3.64-4.17-7.42-9.33-10.85-15.17-3.43-5.83-6.46-12.39-8.81-19.17.12-.04.23-.11.35-.13-.21-.29-.4-.46-.52-.41-.47-2.63-1.37-6-2.22-9.72-.87-3.71-1.66-7.77-2.2-11.63-.25-1.93-.47-3.81-.58-5.56-.12-1.76-.18-3.38-.12-4.72.12-2.73.62-4.67,1.33-5.23-.03-.82-.04-1.65-.04-2.49.27-3.1.59-4.67.78-5.35.21-.69.32-.49.44-.14.24.72.44,2.1,1.31-1.42.2-1.44.49-2.95.83-4.49.36-1.52.71-3,1.17-4.5.86-2.99,2-5.92,3.09-8.66,2.24-5.47,4.56-10.07,4.98-13.21.59-.74.1.4.69-.34,1.39-2.76,2.9-5.47,4.58-8.11-.11-.82.43-2.78-.96-1.83,1.3-1.78,1.91-3.74,4.06-6.1,5.12-6.13,1.49,0,3.69-1.88,3.14-3.88,6.64-7.57,10.54-11.05,3.92-3.43,8.16-6.62,12.66-9.38,4.49-2.78,9.19-5.17,13.93-7.14,4.76-2,9.45-3.53,14.03-4.58.29.97,5.49-.25,11.83-1.17,3.19-.47,6.58-.88,9.89-1.12,3.47-.28,6.52-.5,8.73-.58,2.22.16,4.39.33,6.51.56,1.16.13,2.32.26,3.49.39,1.22.12,2.44.24,3.66.36,2.42.23,4.78.45,7.08.71,1.14.13,2.27.28,3.38.44,1.11.17,2.16.35,3.32.58,9.08,1.68,17.45,4.43,23.19,8.2-3.87-1.24-8.89-3.38-13.34-4.9-4.44-1.51-8.22-2.49-9.14-2,1.15.5,2.28,1.04,3.4,1.59,3.94,1.35,8.87,3.43,13.3,5.48,4.43,2.05,8.4,4,10.85,4.62-1.76-1.5-2.68-2.37-3.26-3.08-.59-.7-.84-1.23-1.41-1.82,3.47,1.38,4.31,1.16,8.45,3.4,2.99,1.71,5.92,3.82,8.01,5.59,2.06,1.81,3.32,3.22,2.99,3.61-3.1-2.08-6.12-4.74-9.01-6.54-.41.06-.1.53.65,1.24.75.7,1.92,1.64,3.19,2.73,1.3,1.04,2.66,2.26,3.91,3.34,1.22,1.12,2.3,2.14,2.99,2.86-1.84-3.23.98-2.07,2.58-1.65.8.2,1.31.17.77-.82-.26-.51-.8-1.23-1.73-2.26-.46-.51-1-1.13-1.68-1.8-.69-.66-1.48-1.41-2.38-2.27,2.98,2.09,5.87,4.31,8.65,6.7,3.81,2.14-2.09-4.62-7.97-9.64-.73-.63-1.45-1.24-2.12-1.83-.69-.57-1.34-1.11-1.94-1.59-1.17-1-2.12-1.78-2.58-2.29-.47-.52-.46-.76.23-.62.69.14,2.07.67,4.29,1.82,2.05.61.29-1.65,6.15,1.96-1.22-1.5-3.39-3.36-5.69-4.89-1.13-.79-2.31-1.47-3.37-2.04-1.05-.59-2.01-1.03-2.75-1.3-1.74-2.12-8.22-5.68-14.47-8.29-6.23-2.68-12.14-4.59-12.15-5.84-2.45-.48-4.72-.86-6.87-1.31-2.2-.4-4.27-.78-6.25-1.14-3.91-.68-7.4-1.31-10.76-2l-2.5-.52c-.84-.18-1.84-.36-2.75-.51-1.88-.31-3.77-.54-5.71-.7-3.89-.32-7.86-.34-12.24-.11-5.91.35-9.33,1.03-11.26,1.49-1.93.49-2.37.83-2.29,1.11.17.56,2.37.94-.75,2.25-5.72.84-11.26,2.64-16.01,4.73-4.77,2.1-8.69,4.41-11.66,6.19-5.5,2.79-9.21,4.02-5.76,1.63-10.53,5.18-20.47,12.06-29,20.57-8.46,8.4-15.79,18.16-21.3,29.06-2.73,5.45-5,11.15-6.76,17.01-.41,1.47-.84,2.94-1.21,4.42-.35,1.47-.73,3-1.02,4.41-.61,2.88-1.17,5.82-1.61,8.84-.44,3.02-.76,6.12-.87,9.3-.06,1.58-.07,3.19-.01,4.8.02.83.07,1.58.11,2.32.04.75.09,1.5.15,2.25.44,5.99,1.31,11.99,2.67,17.91.74,4.9,2.03,9.65,3.7,14.2,1.69,4.54,3.69,8.87,5.94,13.09,4.52,8.42,9.86,16.26,15.45,24.46-.62-.91-1.23-1.82-1.82-2.76-.1-.53,1.64,1.29,3.07,2.65-1.83-2.72-3.42-5.44-4.85-8.07,3.4,4.63,7.22,9.03,11.37,12.89,1.47.74,3.7,2.46,6.43,4.59,2.74,2.11,6,4.61,9.45,6.93,6.87,4.7,14.57,8.52,18.61,9.21,3.51,1.66,6.5,2.89,8.96,3.87,2.47.98,4.49,1.73,6.2,2.35,3.42,1.25,5.59,1.99,7.78,2.73,2.2.72,4.42,1.43,8.12,2.24,3.76.79,8.75,1.66,16.72,2.12,4.26-.07,8.73-.35,13.31-.89,4.59-.54,9.28-1.35,13.96-2.39,9.4-2.1,18.99-5.01,28.29-9.2,3.3-1.48,6.4-2.81,8.57-3.61.55-.19,1.04-.37,1.46-.52.45-.16.83-.28,1.12-.35.58-.15.82-.13.6.11,3.95-2.22,8.57-5.22,12.89-8.61,4.35-3.35,8.36-7.08,11.57-10.29,3.24-3.61,5.35-6.42,6.76-8.42,1.41-2,2.09-3.21,2.28-3.76.36-1.13-1.33.41-4.08,3.1-2.74,2.71-6.66,6.56-10.77,10.13-4.1,3.58-8.43,6.82-11.4,8.85Z"/><path class="d" d="m176.8,131.29c-.29.78,1.45.3,3.61-.42,2.16-.71,4.75-1.63,6.12-1.93,1.08-.6,2.16-1.16,3.22-1.71,4.13-1.78,6.26-2.81,6.6-3.4.35-.57-1.11-.67-3.98-.05-.87.81-3.56,1.99-6.66,3.42-3.11,1.4-6.54,2.97-8.91,4.09Z"/><path class="d" d="m129.68,185.36l-.62-1.51c-1.19,3.54-2.16,7.15-2.92,10.8.36-.07.9-1.41,1.46-3.23.3-.91.63-1.93.98-2.98.37-1.04.74-2.09,1.09-3.08Z"/><path class="d" d="m326.53,167.23c-2.76-5.03-4.88-8.47-7.15-11.93-1.19-1.69-2.36-3.43-3.87-5.21-1.45-1.84-3.23-3.72-5.39-5.89l.1,3.07c7.35,9.2,13.51,19.87,18.73,32.38,1.33,1.93,1.72,1.93,1.57.85-.07-.54-.28-1.34-.55-2.3-.31-.95-.73-2.03-1.14-3.15-.4-1.13-.9-2.27-1.36-3.32-.46-1.06-.83-2.05-1.15-2.84-.64-1.56-.77-2.41.22-1.66Z"/><path class="d" d="m314.43,144.74c4,3.67,7.8,7.94,11.09,12.68,3.3,4.73,6.16,9.85,8.55,15.06.57,1.32,1.2,2.6,1.71,3.92.52,1.32,1.04,2.63,1.55,3.93.46,1.32.92,2.63,1.38,3.92.47,1.29.82,2.6,1.25,3.87,1.57,5.13,2.95,10.05,4.2,14.63.51-.71.82-1.84.96-3.3.09-1.46-.03-3.24-.26-5.26-.65-4.01-1.92-8.98-4-13.93-2.03-4.97-4.63-9.98-7.27-14.41-2.68-4.41-5.22-8.37-7.04-11.45-2.96-3.69-5.56-6.39-8.38-9.25-1.41-1.43-2.96-2.83-4.61-4.43-.86-.77-1.77-1.59-2.74-2.45-.97-.86-2.04-1.72-3.15-2.67-3.58-2.45-2.75-1.26-.58,1.04,2.18,2.3,5.53,5.93,7.36,8.14Z"/><path class="d" d="m342.45,208.73c.13,2.36.35,5.08.52,6.44.42,1.69.7-2.72.97-4.81-.08-2.42-1.59-8.46-1.49-1.64Z"/><path class="b" d="m59.33,331.04c-1.11-3.9-1.44-6.61-1.5-8.5-.05-1.89.12-2.97.38-3.74.51-1.53,1.18-1.83,1.55-4.64.34,2.54.83,5.05,1.47,7.52.32,2.51.9,5.34,1.65,8.1.75,2.76,1.69,5.45,2.57,7.72,1.78,4.53,3.23,7.48,1.82,6.55-.36-.37-1.84-1.9-3.5-4.23-1.66-2.32-3.43-5.5-4.44-8.77Z"/><path class="b" d="m72.37,344.1c-.06-.08-.12-.16-.18-.23-.08-.11-.15-.21-.21-.3-.45-.73-.55-1.08-1.18-1.98l1.98,1.41c.63.47.9.48,1.1.55-.06-.01-.16-.02-.18-.01h-.08c-.07.02-.18.05-.33.11-.06.03-.18.07-.26.11-.09.04-.26.13-.29.15-.12.06-.24.13-.37.19Z"/><path class="b" d="m58.98,303.37l-.16-6.66c.16-1.55.45,2.24.65,2.03l.63-7.5c-.56,10.17.84,10.03-1.12,12.14Z"/><path class="b" d="m66.96,215.49c.89-5.05,1.5,3.86,2.15,5.9-.1,4.21-1.02,7.93-1.7,4.56.07-5.55-.38-7.79-.45-10.46Z"/><path class="b" d="m58.47,264.28c1.46,2.53.6,17.12,1.97,15.65.59-.63,1.18-1.27,1.54-3.03l-.77-7.35c.57-18.39,1.79,7.65,3.1-4.71-.06-2.67-.09-4-.32-5.12-.74-6.04-1.1-4.28-1.83-.77-.21-17.55,3.76-10.87,3.74-20.43-.51-13.11-2.93-5.04-3.81-8.2,2.41.14,4.27-23.72,4.42-43.01-1.02-18.05,1.31-38.33-.2-59.94.07-2.36.15-4.64.51-7.11.34-2.45.89-5,1.64-7.59,1.52-5.17,3.82-10.49,6.77-15.36.11.07.23.11.33.19.05-.29.04-.49-.07-.56,1.44-1.59,3.09-3.8,5-6.13,1.9-2.33,4.07-4.77,6.32-6.88,4.47-4.24,9.2-7.07,10.74-6.43.52-.43,1.06-.82,1.6-1.23,2.14-1.29,3.28-1.81,3.83-1.97.54-.16.49.03.33.3-.33.54-1.05,1.38,1.59.4,2.01-1.01,4.28-1.9,6.64-2.54,2.36-.64,4.77-1.13,7.06-1.47,4.58-.73,8.63-.97,10.94-2.21.74.14-.23.28.51.43l1.85-.13,2.02-.1,4.05-.2c.54-.56,2.17-1.23.82-1.82,1.88.04,3.52-.63,6.2-.43,6.75,0,.81,1.15,3.24,1.63,17.01-.63,36.46-.78,52.65.41-.01,1.98,18.61,1.67,26.45,1.55,15.65,1.75,33.75-1.97,45.62-.3-7.03,1.27-19.17-.13-20.52,1.26l3.23.64c7.29.44,18.89,1.39,23.21-.07-4.04-.8-4.31-1.51-5.66-2.1,3.24-.36,3.78-.91,7.84-1.11,5.94-.15,12.42.12,12.42,1.12-3.25.36-6.76,0-9.73.08-1.09,1.11,9.44,1.19,12.95,1.55-6.2-2.54,10.27-3.61-6.46-5.24l9.18-.51c7.03-2.26-29.68-2.19-13.75-4.68,1.62-.68-.53-1.43,4.87-2.02-2.96-.91-8.91-.76-11.34-.24-4.05-1.79-22.94-.2-23.48-2.62-15.4,1.94-22.67-1.47-36.7-1.92-17.82-.52-6.22,1.43-11.35,2.73-8.91-.75-17.83.47-23.23,1.06-4.86.04-7.82-.88-4.58-1.23-9.11-.55-18.25-1-27.41-1.37-4.58-.17-9.17-.33-13.75-.5l-6.88-.21c-2.51-.04-5.06-.03-7.6.17-10.17.66-20.37,3.51-29.46,8.26-4.56,2.38-8.82,5.09-12.87,8.3-4.05,3.18-7.77,6.83-11.08,10.84-5.97,6.1-9.88,13.64-12.55,21.26-1.34,3.83-2.43,7.8-3.32,11.9-.45,2.05-.83,4.14-1.18,6.27-.17,1.06-.34,2.14-.48,3.23-.08.58-.15.99-.23,1.45l-.25,1.36.48-2.45c.28-.3.4,1.54.52,3.02.13-.6.26-1.2.39-1.79l.2-.88.21-1c.28-1.36.61-2.68.98-3.95-.15,1.25-.26,2.5-.33,3.77l-.12,3.4c-.06,2.17-.09,4.34-.08,6.48,1.92,4.77-.02,24.63,1.93,30.74-.64,23.94-1.48,13.9-2.32,38.04.7,12.91,1.67,28.28,1.42,43.58-.07,5.55-.96,10.61-1.38,9.69.16,6.66.18,16.2.14,23.09,1.89,29.4,3.53-3.8,3.67-14.89Z"/><path class="b" d="m181.94,71.11c-1.08,1.11,6.21,1.55,8.63,2.02l3.24-.36c8.1-.39,8.38-1.66,3.24-2.34-1.89.95-10.52.91-15.12.67Z"/><path class="b" d="m118.74,73.19l.69-1.29c-2.84.68-5.61,1.57-8.29,2.65.45.57,4.39-.8,7.6-1.36Z"/><path class="b" d="m326.42,63.42c-9.43-.21-13.22-1.28-23.21-.93l1.88,2.03c4.86.46,9.85,1.02,15.07,1.47,2.6.24,5.34.39,7.92.59,2.61.21,5.31.45,7.98.78,3.76-.49.64-1.43-3.23-2.08-3.84-.65-8.3-.91-6.42-1.86Z"/><path class="b" d="m305.92,59.72c4.32-.47,8.83-.64,13.38-.68,2.29-.02,4.55,0,6.87.03,2.35.04,4.71.17,7.04.38,4.68.42,9.29,1.24,13.58,2.28,4.31,1.01,8.35,2.2,12.17,3.14-.45-1.53-2.49-3.13-5.59-4.52-3.09-1.39-7.24-2.52-11.7-3.12-2.22-.32-4.55-.47-6.8-.57-2.23-.07-4.44-.06-6.54-.03-1.04.02-2.06.05-3.05.07-.94.02-1.86.03-2.73.02-1.75-.02-3.35-.1-4.74-.29-7.3.55-11.62,1.03-20.81,1.54-6.75.99,4.32,1.51,8.91,1.75Z"/><path class="b" d="m362.21,69.02c1.69.94,3.71,1.88,4.72,2.36,1.38.38-1.49-1.81-2.82-2.9-1.71-1.02-6.65-2.38-1.9.54Z"/><path class="b" d="m45.71,398.84c-7.53-6.57-11.88-11.76-14.72-15.46-2.81-3.74-4.13-6.05-4.94-7.73-.81-1.68-1.14-2.74-1.69-4.17-.56-1.42-1.39-3.2-3-6.42,3.54,5.56,7.58,10.79,11.96,15.66,2.07,2.51,4.39,5.1,6.86,7.68,2.5,2.56,5.16,5.08,7.89,7.5,5.53,4.87,11.48,9.03,16.68,12.32,2.6,1.65,5.01,3.09,7.09,4.31.53.31,1.04.61,1.52.89.53.29,1.04.57,1.53.84.9.48,1.7.91,2.39,1.27,1.3.71,2.02,1.2,2.26,1.48.24.28.02.34-.79.15-.52-.19-1.82-.58-4.16-1.43-.58-.22-1.23-.47-1.95-.78-.62-.27-1.28-.56-1.98-.86-1.36-.61-2.85-1.29-4.42-2.06-6.29-3.05-14.02-7.6-20.55-13.19Z"/><path class="b" d="m87.41,416.93c-.66-.13-1.22-.34-1.74-.6-.26-.13-.5-.28-.75-.45-.13-.1-.26-.19-.38-.28-.42-.32-.8-.57-1.19-.83-.78-.5-1.59-.98-3.15-1.65,1.61.44,3.14.93,4.59,1.6l.54.26.37.2c.14.06.27.13.4.18.54.2,1.07.32,1.6.36,1.06.08,2.19-.14,3.08-.76-.7,1-1.99,1.72-3.39,1.98Z"/><path class="b" d="m8.94,338.7c-1.79-5.94-3.06-12.02-3.84-18.14-.18-2.14.12-.61.48,1.37.39,1.98.91,4.4.97,4.09-.95-6.86-1.29-13.75-1.13-20.58-.08,6.95.42,12.17.95,16.12.55,3.96,1.14,6.66,1.57,8.68.46,2.02.73,3.36.9,4.58.15,1.22.16,2.33.1,3.87Z"/><path class="b" d="m14.46,104.24c.88-3.17,1.33-4.09,1.42-3.65.1.44-.14,2.24-.43,4.62-.13,1.19-.29,2.52-.44,3.89-.14,1.33-.23,2.71-.3,4.02-.13,2.63-.11,5.04-.01,6.36-.31,5.37-.51,10.63-.85,13.4-.33,2.76-.73,2.99-1.07-1.5.01-14.76.37-20.21,1.67-27.13Z"/><path class="b" d="m3.8,233.53c1.46,6.74.58,45.65,1.95,41.74.59-1.69,1.18-3.37,1.54-8.08l-.77-19.61c.6-49.05,1.78,20.4,3.11-12.55-.06-7.11-.09-10.67-.31-13.66-.74-16.1-1.1-11.42-1.83-2.06-.19-46.79,3.78-28.98,3.76-54.46-.49-34.96-2.93-13.45-3.8-21.89.6.09,1.17-3.81,1.69-10.53.26-3.36.49-7.42.9-12,.41-4.59,1.06-9.64,2.33-15.01,1.21-5.38,2.79-11.08,5.05-16.74,2.29-5.66,5.15-11.39,8.48-16.92,3.36-5.52,7.22-10.84,11.49-15.75,4.27-4.91,8.91-9.44,13.74-13.47,8.81-7.8,19.22-14.37,30.73-19.24,11.49-4.89,24.04-8.15,37.03-8.94,6.57-.36,13.33-.56,20.06-.55,1.69,0,3.38.03,5.07.06,1.71.05,3.42.1,5.14.15,3.48.09,6.97.12,10.47.11,7-.01,14-.15,21.08-.21,7.09-.08,14.24-.21,21.44-.4,24.61.31,56.74.84,89.03,1.07,0,.13.06.25,0,.38.79-.1,1.27-.21,1.27-.34,5.93.47,13.83.67,22.44.76,4.31.02,8.79.05,13.29.07,4.42.04,8.77.28,12.95.78,2.09.25,4.12.56,6.08.94,2,.4,3.95.82,5.8,1.28,3.72.91,7.1,1.94,10,2.98,5.81,2.07,9.65,4.21,10.62,5.35,1.71.68,3.41,1.38,5.08,2.13,6.15,3.04,8.98,5.1,10.28,5.94,1.24.93.85.85.15.59-.7-.26-1.76-.65-1.79-.46-.02.1.22.35.87.84.64.51,1.67,1.3,3.28,2.43,5.29,3.45,10.61,7.75,15.42,12.58,4.83,4.82,9.17,10.16,12.81,15.5,7.27,10.71,11.64,21.35,14.71,27.05.49,1.97-.47-.53.02,1.44,2.17,6.36,3.68,12.95,4.48,19.64.69,1.27,1.65,5.35,2,1.9.16,2.39.44,4.61.59,7.12.17,2.52.27,5.47.17,9.03,0,18.01-1.15,2.16-1.62,8.63.64,45.36.81,97.23-.37,140.4-.99-.01-1.41,12.4-1.56,27.42-.03,3.4-.29,6.91-.79,10.49-.51,3.63-1.17,7.24-1.99,10.67-1.62,6.87-3.86,12.94-5.84,17.38-4.38,8.67-9.79,17.16-16.3,24.92-6.52,7.78-13.96,14.84-22.04,20.61-8.07,5.79-16.73,10.29-25.27,13.52-8.52,3.23-16.82,5.09-24.2,5.67,4.29-.91,9.33-2.03,14.47-3.54,5.14-1.48,10.39-3.33,15.1-5.33,9.43-3.92,16.49-8.55,17.5-10.02-2.35,1.26-4.74,2.45-7.16,3.55-3.98,2.06-8.67,4.18-13.74,6.03-5.06,1.87-10.42,3.47-15.6,4.67-5.18,1.2-10.18,2.03-14.55,2.56-4.39.55-8.04.84-10.78,1.22,5.04.4,7.64.51,9.52.73,1.86.19,2.89.4,4.6.49-3.99.69-6.34,1.06-8.95,1.39-1.31.17-2.68.29-4.37.4-1.77.09-3.9.16-6.59.21-15.83.15-33.12-.12-33.12-1.12,8.66-.36,18.02,0,25.94-.08,2.91-1.11-25.18-1.19-34.54-1.55,16.54,2.54-27.39,3.61,17.23,5.24l-24.49.51c-18.74,2.26,79.15,2.19,36.66,4.68-4.32.68,1.43,1.43-12.99,2.02,7.9.91,23.76.76,30.24.24,2.68.45,8.15.67,14.62.06,6.5-.57,14.04-2.03,21.09-4.05,7.07-2,13.6-4.54,18.51-6.56,4.92-2.01,8.19-3.5,8.83-3.13,9.22-5.65,16.64-11.4,23.05-17.1,6.39-5.72,11.81-11.34,16.75-17.31,4.92-5.98,9.33-12.31,13.24-19.57,3.88-7.22,7.32-15.58,9.57-25.37,1.41-6.23,2.08-11.2,2.42-15.32.33-4.05.23-7.27.17-9.13-.13-3.99-.37-5.01-.66-4.97-.58.09-1.4,4.4-2.05-2.44.75-23.76-.49-47.54-1.08-61.94-.04-12.95.87-20.86,1.23-12.22.54-24.29.98-48.67,1.35-73.1.09-6.11.17-12.22.26-18.33l.12-9.17c.04-3.22-.05-6.53-.28-9.79-.91-13.09-4.25-26.07-9.63-37.99-5.29-11.93-12.59-23.11-21.51-32.73-8.91-9.66-19.35-17.73-30.49-24.29-11.33-6.66-23.68-11.37-36.24-14.38-1.57-.37-3.15-.73-4.73-1.05-1.58-.34-3.28-.64-4.91-.9-3.29-.51-6.57-.86-9.81-1.08-1.62-.11-3.24-.19-4.85-.25l-2.39-.06-2.29-.02-9.15-.06c-9.92-.44-19.68-.66-29.32-.74-9.62-.06-19.14-.02-28.64-.01-19,0-37.89-.14-57.31-1.57l6.46.48c.93.28-4.05.4-7.97.52,6.43.55,12.63,1.07,18.57,1.57-11.54-.21-23.19-.37-34.63-.34-1.59.24-3.81.42-6.51.55-2.73.13-5.93.24-9.43.32-3.5.08-7.31.14-11.27.14-1.98,0-3.99-.01-6.02-.05-2.07-.05-4.16-.1-6.26-.15-8.72-.18-17.47.15-25.01.7-7.96.58-14.64,2.07-18.73,3.49-8.27,1.77-14.86,4.01-20.26,6.09-5.4,2.09-9.66,4.09-13.19,5.86-7.05,3.59-11.25,6.21-15.4,8.92-2.06,1.38-4.12,2.79-6.4,4.53-2.28,1.74-4.84,3.77-7.83,6.49-2.99,2.71-6.44,6.08-10.35,10.62-3.89,4.53-8.25,10.26-12.61,17.79-2.2,4.09-4.22,8.4-6.01,12.89-.89,2.21-1.78,4.61-2.53,7-.76,2.4-1.43,4.82-2.02,7.27-.59,2.45-1.1,4.91-1.55,7.39-.22,1.24-.43,2.48-.62,3.72-.19,1.22-.38,2.6-.54,3.89-.6,5.25-.75,10.44-.75,15.51.09,9.86.19,19.92.29,30.07.06,10.12.07,20.33,0,30.53-.08,14.79-.97,28.28-1.39,25.84.15,17.76.16,43.2.11,61.57,1.87,78.44,3.53-10.13,3.69-39.68Z"/><path class="b" d="m437.15,231.12c-1.11-2.89-1.54,16.55-2.02,23.03l.36,8.64c.4,21.6,1.67,22.34,2.34,8.65-.95-5.03-.92-28.06-.68-40.31Z"/><path class="b" d="m417.44,66.95c.84.48,1.61,1.01,2.42,1.54-1.14-1.71-2.43-3.3-3.66-4.94-1.32-1.57-2.58-3.18-3.97-4.68-2.71-3.07-5.64-5.94-8.72-8.66,0,.48,2.24,2.71,5.06,5.82,2.84,3.09,6.25,7.12,8.86,10.92Z"/><path class="b" d="m200.18,419.59c25.2.2,35.27,1.27,61.91.92l-5.02-2.03c-25.9-.91-53.23-2.26-84.19-2.23-20.89,2.1,37.4,1.43,27.3,3.34Z"/><path class="b" d="m254.86,423.29c-23.04.95-48.05.68-72.17.56-12.06-.06-23.89-.08-35.15.1-2.83.05-5.56.1-8.28.21-2.75.12-5.46.24-8.12.35-2.69.1-5.36.18-8.01.18-2.65,0-5.31-.12-7.75-.22.64.38,1.52.74,2.59,1.09,1.12.35,2.48.67,4.01.93,3.07.54,6.88.82,11.09.9,2.11.04,4.31.04,6.59.03,2.27,0,4.65-.02,7.1-.03,4.97-.03,10.27-.12,15.72-.24,21.79-.46,45.91-1.33,60.64-.58,19.47-.55,30.99-1.03,55.48-1.54,17.99-.99-11.53-1.51-23.76-1.75Z"/><path class="b" d="m103.4,420.33c-2.51-.54-5.21-1.15-7.64-1.8-2.43-.65-4.57-1.34-5.99-1.83-1.72-.48-.52.23,1.83,1.29,2.33,1.05,5.72,2.21,7.86,2.88,2.54.68,7.16,1.3,9.3,1.31,1.07.02,1.53-.09.82-.35-.71-.28-2.59-.66-6.18-1.5Z"/><path class="d" d="m71.68,363.84c-6.1-6.01-9.21-10.85-11.18-14.23-1.95-3.4-2.71-5.51-3.18-7.01-.41-1.53-.54-2.45-.77-3.74-.24-1.27-.67-2.86-1.52-5.75,1.09,2.53,2.33,4.98,3.71,7.34,1.36,2.37,2.84,4.66,4.44,6.85,2.87,4.56,6.67,9.44,11.02,13.74,4.33,4.32,9.21,7.99,13.62,10.74,8.39,5.39,15.02,8.19,11.62,7.6-1.04-.29-5.37-1.65-10.59-4.1-2.52-1.16-5.67-2.76-8.63-4.71-2.99-1.94-5.93-4.24-8.54-6.73Z"/><path class="d" d="m106.84,377.57c-2.89-.85-3.3-1.21-6.07-2.27,2.86.63,5.75,1.06,8.61,1.27-.83.34-1.68.69-2.54,1Z"/><path class="d" d="m49.58,309.36l-.18-14.57c.16-3.36.45,4.87.65,4.41l.62-16.31c-.28,11.06-.07,16.51-.03,19.77.02,1.63,0,2.71-.16,3.67-.15.98-.45,1.75-.9,3.02Z"/><path class="d" d="m57.79,118.58c.54-2.52.93-3.29,1.05-2.93.14.35.06,1.81.04,3.64,0,.92,0,1.92.07,2.94.08,1.13.16,2.28.24,3.39.16,2.27.32,4.31.49,5.43-.1,9.15-1.02,17.24-1.7,9.91.03-6.03-.06-10.27-.17-13.72-.06-1.71-.11-3.23-.16-4.69-.04-1.33.02-2.61.15-3.96Z"/><path class="d" d="m49.04,224.28c1.47,5.5.61,37.23,1.98,34.04.59-1.38,1.17-2.75,1.53-6.59l-.78-16c.57-40,1.79,16.63,3.1-10.24-.06-5.8-.09-8.7-.32-11.14-.75-13.13-1.11-9.31-1.83-1.68-.21-38.16,3.76-23.64,3.73-44.42-.51-28.51-2.93-10.97-3.81-17.85.6.08,1.17-3.11,1.69-8.59.26-2.74.5-6.05.73-9.81.1-1.88.21-3.88.33-5.97.05-1.05.1-2.12.16-3.21.05-1.05.15-2.13.3-3.22,1.35-8.74,4.24-18.75,9.69-27.58,5.32-8.94,13.11-16.58,21.44-22.37,3.81-2.82,7.95-5.31,12.4-7.33,4.45-1.99,9.17-3.6,14.09-4.61,4.91-1.04,10-1.59,15.17-1.61,5.23,0,10.69.11,16.12.16,21.81.26,44.58.46,68.08-.3,20.07.3,46.27.83,72.62,1.03,0,.13.05.25,0,.38.64-.1,1.04-.22,1.04-.35,9.69.87,25.83.67,40.14.59.44,0,.89,0,1.33,0,.39,0,.77.01,1.16.02.78.03,1.56.09,2.34.16,1.56.16,3.17.39,4.68.65,3.03.51,5.79,1.17,8.14,1.89,4.73,1.43,7.81,3.12,8.55,4.14,1.38.48,2.74,1,4.09,1.55,4.91,2.37,7.13,3.98,8.08,4.73.96.75.63.71.06.53-.57-.18-1.39-.49-1.44-.3-.03.09.14.31.62.74.48.4,1.27,1.07,2.49,2.05,4.13,2.88,8.19,6.48,11.68,10.55,3.5,4.06,6.41,8.57,8.58,13.06,2.19,4.49,3.64,8.95,4.71,12.89,1.11,3.93,1.69,7.38,2.5,9.87-.05,1.61-.28-.5-.37,1.12l.12,2c.04.68.1,1.3.1,2.06l.1,4.4.2,8.8c.56,1.17,1.23,4.7,1.83,1.77-.04,4.09.64,7.64.44,13.48,0,14.69-1.15,1.77-1.62,7.05.65,36.98.83,79.27-.34,114.47-.99-.01-1.4,10.11-1.55,22.35-.02,3.06-.04,6.26-.07,9.46-.01,2.83-.22,5.64-.61,8.32-.4,2.7-.94,5.19-1.63,7.56-.66,2.36-1.39,4.46-2.09,6.22-1.62,3.42-3.47,6.77-5.61,9.98-2.15,3.21-4.57,6.29-7.23,9.19-5.37,5.79-11.75,10.96-18.49,14.77-6.76,3.84-14,6.35-21.04,7.45-3.52.56-6.97.8-10.27.78-3.61-.06-7.05-.18-10.28-.39,1.91-.16,3.99-.28,6.18-.36,1.09-.04,2.22-.07,3.35-.11.59,0,1.11-.04,1.62-.07.52-.02,1.04-.05,1.57-.07,4.2-.23,8.49-.77,12.35-1.62,7.75-1.67,13.66-4.64,14.51-5.8-.96.38-1.96.67-2.94,1.01-.98.32-1.98.57-2.96.86-3.27,1.12-7.11,2.1-11.19,2.73-4.09.64-8.35.89-12.59.85-9.46-.1-18.12.03-22.81.76,8.79.79,9.38,1.51,12.31,2.1-7.04.36-8.22.92-17.03,1.12-12.91.16-27.01-.11-27.01-1.1,7.06-.36,14.69,0,21.15-.09,2.36-1.11-20.54-1.18-28.17-1.54,13.5,2.53-22.32,3.62,14.07,5.23l-19.97.52c-15.27,2.27,64.55,2.15,29.91,4.67-3.52.68,1.17,1.43-10.58,2.03,6.45.91,19.38.75,24.66.23,2.2.45,6.42.68,11.53.82,2.55.07,5.33.11,8.19.15,1.43.01,2.89.03,4.34.04,1.54-.04,3.08,0,4.6-.12,6.1-.3,11.92-1.29,16.27-2.25,4.35-.96,7.27-1.73,7.8-1.26,4.18-1.82,7.91-3.83,11.32-5.88,3.4-2.06,6.52-4.14,9.36-6.31,5.7-4.27,10.56-8.68,14.93-13.52,4.32-4.87,8.18-10.18,11.34-16.41,1.58-3.11,2.99-6.45,4.18-10.05,1.21-3.58,2.18-7.6,2.73-11.85.36-2.71.51-5.16.57-7.36,0-1.02.02-1.98.02-2.88,0-.86,0-1.67,0-2.43,0-3.04-.05-5.28-.11-6.91-.13-3.26-.37-4.09-.66-4.05-.58.07-1.4,3.59-2.05-1.99.74-19.38-.5-38.78-1.1-50.53-.04-10.57.86-17.02,1.22-9.97.54-19.82.97-39.71,1.33-59.64.16-9.97.32-19.94.48-29.92l.2-14.97c.02-5.39-.43-11-1.53-16.45-1.09-5.47-2.78-10.88-5.15-15.99-2.36-5.11-5.32-9.93-8.73-14.34-3.41-4.41-7.25-8.44-11.39-12.03-2.1-1.75-4.2-3.51-6.41-5.08-2.13-1.63-4.52-3.18-6.9-4.6-9.59-5.71-20.29-9.23-30.98-10.94-2.6-.42-5.4-.82-8.5-.92l-1.17-.02h-.95s-1.86,0-1.86,0h-3.72c-4.96-.02-9.92-.04-14.88-.05-32.27-1.58-62.23.69-93.91-2.16l5.27.48c.76.28-3.3.4-6.5.52,5.24.54,10.3,1.07,15.15,1.57-9.41-.2-18.91-.36-28.24-.33-10.38,1.92-53.57-.01-66.84,1.94-.41,0-.81,0-1.21-.01-.43,0-.85,0-1.27,0-.84,0-1.66,0-2.46.03-1.61.07-3.14.11-4.61.25-2.93.2-5.59.58-8,.96-4.83.8-8.68,1.85-11.86,2.85-3.19,1-5.74,1.97-7.96,2.9-2.22.93-4.13,1.81-6,2.75-3.74,1.91-7.44,3.99-12.84,8.05-2.69,2.06-5.83,4.65-9.34,8.33-3.52,3.65-7.39,8.45-11.12,14.92-1.83,3.55-3.42,7.31-4.73,11.23-.31.99-.62,1.98-.93,2.97-.27,1-.53,2.01-.8,3.03-.48,2.02-.94,4.13-1.28,6.09-.36,2.02-.69,4.15-.9,6.4-.1,1.13-.18,2.28-.21,3.47-.01.59-.02,1.19-.01,1.79l.03,1.51c.08,3.91.16,7.88.24,11.89.3,16.02.48,32.7.36,49.34-.07,12.06-.95,23.06-1.38,21.07.16,14.49.18,35.23.15,50.21,1.9,63.94,3.53-8.25,3.67-32.37Z"/><path class="d" d="m392.08,234.14c-1.11-2.35-1.54,13.49-2.01,18.77l.36,7.04c.4,17.61,1.67,18.21,2.34,7.05-.95-4.1-.92-22.87-.69-32.86Z"/><path class="d" d="m384.75,97.82l1.92,1.29c-2.9-5.56-6.59-10.72-11.18-15.2-.06.42,1.51,2.3,3.47,4.87,2.02,2.54,4.18,5.94,5.79,9.04Z"/><path class="d" d="m199.52,377.41c20.55.19,28.77,1.26,50.49.89l-4.1-2.02c-21.12-.9-43.41-2.24-68.66-2.19-17.03,2.11,30.5,1.41,22.27,3.32Z"/><path class="d" d="m244.12,381.08c-18.79.96-39.19.7-58.86.59-9.83-.06-19.49-.07-28.66.12-4.59.1-9.06.23-13.34.48-4.37.28-8.59.56-12.63.82,2.21,1.29,7.51,1.91,14.18,2.06,6.64.21,15.12.08,23.98-.16,17.77-.47,37.44-1.36,49.46-.61,15.88-.56,25.28-1.04,45.25-1.57,14.67-1-9.41-1.5-19.38-1.74Z"/><path class="d" d="m120.57,380.06c-4.15-.55-8.91-1.26-11.27-1.69-1.46-.14-.39.32,1.57.93,1.95.61,4.74,1.29,6.52,1.72,2.09.36,5.9.56,7.66.39.88-.08,1.25-.22.66-.42-.6-.2-2.16-.45-5.13-.92Z"/></svg>