<?xml version="1.0" encoding="UTF-8"?><svg id="a" xmlns="http://www.w3.org/2000/svg" viewBox="0 0 132.03 122.53"><defs><style>.b{fill:#00a591;}.c{fill:#b2ff39;}</style></defs><path class="c" d="m29.28,7.1c-7.95,9.6,1.68,23.04-6.05,31.24-4.67,4.96-9.46,1.38-15.48,6.61C-.45,52.07-2.68,68.32,3.67,75.17c7.27,7.84,24.06-.54,26.97,5.3,2.3,4.63-7.8,10.48-6.16,19.59,1.03,5.75,6.43,11.17,12.22,12.47,9.82,2.2,14.24-8.89,23.96-6.95,6.41,1.28,6.02,6.4,18.2,12.84,5.19,2.75,8.46,4.42,12.9,4.05,7.04-.59,14.59-6.12,15.2-12.18.5-4.97-4.04-6.76-3.14-12.19.58-3.47,3.17-7.23,6.66-8.36,4.6-1.49,6.98,2.84,11.82,1.73,6-1.38,8.6-9.47,8.88-10.4,1.49-4.85,1.25-11.7-2.67-16.13-5.26-5.95-14.11-4.06-15.52-9.18-.04-.13-.58-2.22.47-3.98,1.65-2.78,5.65-1.3,8.48-3.87,4.11-3.72,3.76-9.94,3.73-10.4-.48-6.93-6.61-12.7-12.66-14.22-7.97-2-13.86,3.87-16.26,1.37-2.79-2.91,5.48-10.91,2.71-17.32-3.13-7.26-19.48-10.22-26.88-3.87-5.13,4.4-3.44,11.11-7.14,12.18-5.57,1.6-10.15-13.4-21.32-14.68-5.32-.61-11.39,1.96-14.85,6.13Z"/><path class="b" d="m83.42,86.75c-8.29-.05-16.57.54-24.86,1.07-.97.04-3.71.22-4.66.25-7.94.91-15.19-5.92-14.67-13.89.25-8.29.9-16.57,1.02-24.86,0,0,.05-6.22.05-6.22.03-4.41,2.48-8.63,6.24-10.96,1.88-1.19,4.11-1.83,6.36-1.94,4.14-.17,8.29-.39,12.43-.51,5.14-.18,10.39-.24,15.54-.33.99,0,2.16-.07,3.2-.02,7.14.07,13.38,6.33,13.48,13.47-.03,8.58-.19,17.14-.8,25.71,0,0-.41,6.23-.41,6.23-.4,6.6-6.39,12.14-12.9,12h0Zm0-.4c6.13.06,11.55-5.5,11.08-11.63,0,0-.39-6.2-.39-6.2-.61-8.28-.73-16.57-.82-24.86.2-5.92-4.98-10.78-10.87-10.41-5.67-.09-11.43-.16-17.09-.35-4.14-.12-8.29-.34-12.43-.51-5.83-.38-11.43,4.73-11.38,10.73-.14,10.36.7,20.71,1.05,31.07-.04,5.5,4.42,10.3,9.86,10.75,10.28.51,20.74,1.49,31,1.41h0Z"/><path class="b" d="m76.81,72.04c-10.85,7.47-23.09-.26-20.37-13.31,2.47-12.73,17.38-16.34,25.03-5.66,4.58,6.72,1.64,14.88-4.66,18.97h0Zm-.23-.33c7.71-5.58,3.24-18.86-5.29-21.01-7.86-2.22-16.1,4.49-12.98,12.81,2.65,6.51,11.52,12.72,18.27,8.19h0Z"/><path class="b" d="m88.28,40.46c-.09,3.62-4.5,3.06-5.11,0-.15-3.43,5.2-3.58,5.11,0h0Zm-.1,0c-.21-2.14-4.11-2.09-4.46,0-.23,1.19,1.08,1.94,2.12,1.7.95-.15,2.32-.48,2.34-1.7h0Z"/></svg>