<?xml version="1.0" encoding="UTF-8"?><svg id="a" xmlns="http://www.w3.org/2000/svg" viewBox="0 0 1557.84 906.96"><defs><style>.b,.c,.d{fill:#f0c;}.b,.d{font-family:Synthemesc-Regular, Synthemesc;font-size:268.48px;}.e{letter-spacing:.05em;}.f,.d{letter-spacing:.1em;}.g{fill:#fff13e;}.h{fill:#099;}.i{fill:#b2ff39;}.j{letter-spacing:.08em;}</style></defs><path class="i" d="m774.92,104.84c-67.48,3.58-80.48-52.97-164.02-75.9-110.98-30.47-252.33,24.23-274.21,97.77-11.07,37.2,11.42,69.17-10.25,90.05-18.13,17.47-43.59,4.46-92.26,5.15-19.04.27-102.34.86-155.05,51.46-39.5,37.92-68.87,110.63-44.85,163.38,33.89,74.43,149.31,54.77,171.7,126.08,12.9,41.08-21.96,58.6-8.97,111.92,14.45,59.32,71,92.71,94.82,106.78,74.24,43.84,151.89,39.34,180.67,37.31,102.14-7.23,143.11-53.77,189.64-25.73,28.86,17.4,17.78,38.12,52.54,68.18,55.59,48.08,134.83,39.05,161.45,36.02,25.96-2.96,70.89-8.07,111.48-39.88,45.84-35.92,44.51-73.24,78.16-82.33,35.88-9.7,58.4,27.05,102.51,45.03,119.35,48.65,317.23-72.47,319.06-168.53.78-40.73-34.18-51.55-29.47-96.49,6.36-60.76,72.92-66.38,90.98-126.08,21.04-69.54-36.24-171.18-111.48-207.12-66.43-31.73-109.36,5.66-162.73-34.73-45.02-34.07-25.94-69.35-66.63-114.5C1143.59,1.19,1005.81-10.21,909.46,30.22c-72.38,30.38-77.48,71.59-134.54,74.62Z"/><path class="h" d="m743.95,102.04c-11.97-3.03-23.33-8.41-33.54-15.3-10.19-6.79-19.79-14.32-30-21.02-8.62-5.45-17.94-10.43-27.09-15.07-13.77-7-28.18-13.38-42.42-19.37-14.2-6-29.4-9.23-44.71-10.68-71.52-6.93-177.68,25.44-215.46,90.02-14.13,25.11-10.18,44.56-6.97,71.76,1.78,16.15-.64,31.73-13.65,42.82-16.54,14.37-39.73,9.61-59.26,8.29-67.96-5.77-152.68,5.71-197.16,62.59-26.88,34.15-46.13,85.22-32.97,128.03,20.69,62.92,99.43,61.1,145.34,97.14,18.56,14.04,30.87,36.75,30.51,60.27-.11,16.65-7.67,31.7-12.21,47.05-2.78,9.41-4.09,18.86-3.58,28.5,3.36,54.45,47.9,94.36,92.45,120.21,68.48,41.77,153.81,47.17,230.9,30.33,20.21-4.49,39.75-11.01,59.48-17.43,26.17-8.47,52.96-16.43,78.75-1.69,2.28,1.18,4.93,3.04,7.05,4.42,6.8,4.94,12.71,11.65,16.51,19.02,4.94,9.34,8.54,18.52,14.56,26.92,8.63,12.16,20.25,21.95,32.8,29.97,43.62,27.16,97.53,28.03,147.04,20.82,39.57-4.51,79.17-17.77,108.75-45.01,11-9.96,20.11-21.57,28.07-34.14,9.79-15.22,19.09-33.3,36.53-41.42,16.12-7.92,34.32-6.96,50.15.78,23.47,11.63,42.39,30.02,66.37,39.44,64.45,25.18,140.76.03,197.94-33.49,41.18-24.66,96.83-70.6,101.28-120.82,1.29-18.25-7.53-30.92-17.21-46.42-6.17-9.89-11.53-21.46-13.41-33.45-2.75-18.61.75-37.91,10.4-54.04,6.18-10.3,14.63-18.89,23.47-26.37,23.92-19.91,44.99-33.43,54.27-64.48,18.01-63.01-22.69-139.38-70.51-179.88-9.38-7.97-19.48-14.59-30.23-20.21-14.76-8.1-30.32-15.23-46.96-17.65-14.79-2.42-29.14-1.03-44.22-.07-11.11.7-22.93.34-34-2.18-16.67-3.87-32.59-11.29-46.03-21.92-17.96-13.81-30.26-34.32-37.52-55.18-3.49-9.68-6.29-19.97-9.85-29.26-7.24-17.83-20.97-32.7-36.52-44.23-47.98-34.95-115.2-49.31-173.9-46.06-9.98.6-20.72,1.9-30.49,3.82-9.89,1.79-20.22,4.78-29.83,7.78-25.76,8.12-50.93,18.99-73.48,33.95-11.68,7.73-21.42,17.63-32.61,26.2-25.72,20.61-55.39,25.41-86.85,16.72h0Zm.63-2.42c30.78,8.32,59.45,3.66,84.29-16.77,11.13-8.71,20.93-18.87,32.44-26.78,20.47-14.13,43.2-24.82,66.47-33.47,0,0,7.41-2.58,7.41-2.58,0,0,3.71-1.29,3.71-1.29,1.24-.42,2.5-.78,3.74-1.18,47.66-15.76,99.51-15.46,148.35-5.41,31.21,6.73,61.82,17.85,88.42,35.88,18.17,12.44,34.4,28.71,43.63,49.28,4.38,9.92,7.17,19.72,11.2,29.42,8.63,22.45,23.27,42.17,44.84,53.03,8.29,4.35,17.21,7.56,26.38,9.38,9.29,1.86,18.45,1.76,28.05.95,41.07-4.78,66.76-1.7,104.14,18.44,75.83,37.58,139.23,145.04,114.92,229.37-3.38,11.23-8.42,22.14-15.13,31.78-6.46,9.53-14.64,17.96-23.13,25.44-14.54,13.27-32.41,23.78-42.15,39.79-4.34,7.15-6.72,15.32-7.4,23.64-.76,8.52.47,16.3,3.81,24.17,6.09,14.12,16.86,26.5,22.24,41.67,8.9,22.85,4.57,49.05-6.01,70.54-45.29,90.73-191.18,163.28-290.98,144.28-21.7-3.78-43.13-13.23-61.15-25.54-13.15-8.57-24.46-18.18-37.85-24.97-10.43-5.36-21.89-6.44-32.51-1.49-9.08,4.06-14.92,12.34-20.65,20.73-11.23,17.49-24.26,36.38-40.69,50.08-32.96,28.86-76.01,42.49-118.91,46.21-52.3,6.24-109.33,3.41-154.62-26.32-13.43-8.96-25.93-20.04-35.1-33.48-6.05-8.63-10-19-14.61-28.1-3.31-6.56-7.89-11.84-13.61-16.2,0,0-3-2.03-3-2.03l-1.5-1.01c-.8-.43-2.38-1.35-3.17-1.79-22.17-12.45-47.49-4.67-70.4,2.47-29.76,9.67-60.01,18.85-91.25,22.76-20.86,2.67-41.79,3.89-62.8,3.4-49.94-1.16-100.16-13.32-143.49-38.64-29.94-17.07-58.42-37.62-78.37-66.53-12.31-17.92-20.87-38.96-22.72-60.81-.95-11.05.3-22.51,3.12-33.18,2.74-10.62,6.67-20.38,8.75-29.66,4.49-17.88-1.22-37.25-13.54-50.63-13.27-14.39-31.61-21.82-49.83-28.81-44.34-15.99-95.97-30.84-114.32-80.74-18.99-50.95,2.17-111.91,34.53-152.87,46.96-59.47,129.03-73.87,200.77-69.07,10.65.79,21.2,2.18,31.22,3.25,12.6,1.11,22.38,2.13,30.85-4.37,8.89-6.76,9.49-17.63,8.85-28.29-.28-4.91-.83-10.05-1.26-15.34-4.12-36.2,7.31-64.43,33.62-89.56,47.93-44.95,126.16-66.53,190.83-64,20.96.99,42.08,4.69,61.39,13.16,0,0,7.14,3.16,7.14,3.16,0,0,7.11,3.24,7.11,3.24,18.59,8.66,37.07,17.76,54.47,28.65,9.5,6.31,20.51,14.81,30.72,21.73,10.02,6.81,21.02,12,32.77,14.99h0Z"/><path class="c" d="m735.92,101.84c-9.05-2.22-17.82-6.22-25.45-11.69-3.81-2.68-7.09-5.9-11.01-8.46-11.49-7.78-23.42-14.94-35.22-22.27-5.87-3.71-11.84-7.19-18.03-10.27-18.58-9.27-38.24-16.36-58.19-22.03-17.72-5.04-35.9-8.19-54.33-8.55-16.06-.25-32.15,1.17-47.96,3.97-46.07,8.56-93.69,28.67-127.36,61.86-56.45,58.47-11.14,91.21-31.18,122.04-8.52,12.63-23.18,16.01-37.33,15.08-22.08-1.52-43.41-7.11-65.41-7.5-48.82.05-101.95,13.87-141.07,43.69-12.08,9.36-22.84,20.46-31.68,32.9-21.17,30.62-33.69,68.07-33.31,105.36.34,25.52,8.43,51.57,26.58,69.95,33.09,33.4,84.57,31.81,123.26,57.12,11.53,7.44,21.37,17.97,28.16,30,.9,1.67,2.5,5.02,3.37,6.7.8,2.12,2.15,4.82,2.79,6.96,3.9,10.55,5.24,22.16,4.82,33.09-.78,18.76-5.3,36.42-3.45,54.77,5.99,59.23,70.5,113.11,123.1,133.88,8.34,3.46,17.23,6.74,25.84,9.38,35.17,11.01,72.13,14.29,108.89,12.5,27.52-1.23,55.01-5.28,81.56-12.71,17.9-4.87,35.83-10.6,53.01-16.22,9.04-2.88,17.83-6.05,27.42-7.37,14.65-1.57,29.52,1.5,42.5,8.44,18.19,9.93,30.84,27.92,37.76,47.08,8.56,19.41,28.9,30.02,47.55,38.32,3.61,1.63,10.36,4.44,14.11,5.9,29.36,10.99,60.68,10.6,91.63,6.56,22.5-3,45.49-5.09,67.31-11.25,29.76-8.52,56.41-26.59,75.54-50.94,11.76-14.53,20.59-30.5,33.31-44.99,9.45-10.75,22.41-19.24,36.7-21.98,29.37-6.57,49.93,12.52,72.1,27.41,29.65,20.68,63.45,28.52,99.39,25.85,74.14-4.89,168.09-55.68,202.32-122.99,7.71-15.95,12.01-34.84,5.54-51.85-4.93-12.84-12.98-21.95-19.43-35.75-4.57-9.58-7.25-20.76-7.24-31.44-.07-6.56.72-13.34,2.13-19.74,4.13-19.66,15.98-35.96,30.57-49.14,10.21-9.39,21.78-18.02,31.53-27.1,27.33-24.18,34.98-54.83,28.54-90.56-11.05-57.92-54.16-116.02-107.68-141.52-15.76-7.41-32.44-11.34-49.88-12.37-8.79-.54-17.77-.48-27.09-.42-13.87.11-28.12-.17-41.78-3.2-25.06-5.57-47.43-20.94-62.53-41.45,0,0-.3-.42-.3-.42.2-.6-.32,1.71-1.83-5.23,0,0,1.63,4.94,1.63,4.94-6.73-9.39-11.98-20.4-14.93-31.49-2.88-10.49-4.62-20.76-8.08-30.74-6.77-21.21-22.26-36.6-38.67-51.33-22.19-20.34-49-35.46-77.79-44.31-71.85-22.88-150.66-9.65-213.5,31.32-18.02,11.58-34.79,26.05-49.07,41.63-3.1,2.22-6.37,4.19-9.7,6.02-23.78,13.58-53.07,13.03-78.48,4.56h0Zm.58-2.02c18.8,6.07,39.32,8.06,58.54,2.89,9.47-2.73,18.42-7.26,26.51-12.87,57.38-63.64,148.14-100.45,235.69-87.13,40.56,5.62,80.62,21.52,112.27,48.01,10.57,8.86,20.86,17.47,30.13,28.46,11.1,13.01,18.17,29.43,22.33,45.82,2.76,10.08,4.99,19.9,9.75,28.95,2.21,4.32,4.86,8.41,7.81,12.34,0,0,1.63,4.94,1.63,4.94-1.34-6.7-1.69-4.16-1.32-4.52,0,0,.21.28.21.28,14.08,18.06,34.97,30.91,57.63,34.12,20.48,2.87,40.56,0,61.42,1.08,34.84,1,67.75,14.86,94.97,36.31,54.09,42.56,100.61,123.42,81.5,193.49-8.68,30.89-30.99,50.14-54.68,69.35-10.16,8.59-19.41,16.61-26.24,27.4-3.39,5.34-5.91,11.25-7.48,17.35,0,0-.3,1.44-.3,1.44,0,0-.62,2.88-.62,2.88-5.82,32.34,13.47,43.99,23.97,71.53,7.52,20.05,4.64,42.78-3.64,62.07-13.55,31.64-38.53,57.26-65.22,77.91-59.84,44.88-141.71,75.12-216.54,56.71-18.88-4.82-37.01-13.83-52.85-24.87-17.44-11.25-33.88-28.95-55.53-26.03-21.97,2.37-34.87,20.57-47.03,37.74-5.36,7.52-10.93,15.24-17.06,22.62-24.41,30.02-60.02,50.72-98.1,57.36-18.6,3.44-36.96,4.97-55.65,6.98-35.83,3.85-71.37,2.9-104.81-12.73-19.36-8.95-39.86-18.59-52.44-36.93-2.76-3.91-4.99-8.8-6.64-13.27-2.35-6.35-5.11-12.2-8.82-17.76-6.06-9.1-13.85-17.23-23.43-22.58-11.32-6.25-24.98-9.28-37.87-8.02-8.8,1.1-17.58,4.22-26.16,6.84-15.18,4.96-31.46,9.55-46.8,14.07-47.09,13.66-96.88,17.83-145.66,13.24-25.62-2.7-51.01-8.56-75.08-17.79-28.73-10.44-55.61-26.09-78.65-46.24-21.76-18.92-41.38-41.97-52.29-69.08-7.12-17.72-8.62-36.68-6.75-55.39,2.84-28.49,5.15-47.84-11.82-72.51-35.75-48.67-115.63-29.6-158.61-87.67C7.69,446.57.65,421.23.04,396.42c-.88-41.49,12.72-82.76,36.23-116.71,9.89-13.98,22.12-26.5,35.7-36.88,38.61-29.26,87.13-42.7,134.96-45.45,9.54-.59,19.46-.3,29.04.73,18.28,1.61,37.04,6.56,54.81,8.24,11.12,1.04,22.76-1.08,26.97-12.38,2.6-7.25.56-16.42-.23-24.48-1.2-9.5-2.02-19.5-.91-29.2,3.94-34.59,29.43-62.1,57.04-80.89,45.67-30.85,105.16-47.19,160.17-45.22,18.71.71,37.24,4.33,55.12,9.73,20.08,5.99,39.74,13.48,58.43,22.97,6.21,3.18,12.32,6.78,18.13,10.52,8.82,5.71,26.99,16.77,35.2,22.51,3.86,2.52,7.26,5.82,11.03,8.5,7.44,5.34,15.83,9.21,24.79,11.43h0Z"/><text class="d" transform="translate(465.53 396)"><tspan x="0" y="0" xml:space="preserve">M   P</tspan></text><path class="h" d="m732.46,240.72c-6.06,1.49-15.76,4.87-24.71,13.07-5.6,5.13-13.71,12.54-14.92,24.56-1.19,11.69,4.87,20.67,6.96,23.5-1.88,2.05-4.39,5.03-6.95,8.88-3.84,5.77-8.71,13.12-9.52,21.16-1.32,13.21,8.42,27.57,21.38,33.68,11.08,5.22,21.64,3.07,25.49,2.08-2.03,3.44-4.62,8.56-6.43,15.15-2.03,7.39-4.68,16.99-1.02,25.07,4.28,9.48,16.33,14.9,29.87,14.88-.18,2.33-.15,5.79,1.03,9.66,3.48,11.36,14.67,18.62,24.47,20.36,13.43,2.39,27.82-4.98,35.78-18.56,1.3,2.13,3.35,5.03,6.44,7.83,9.73,8.82,27.55,14.66,42.22,6.25,13.01-7.46,16.19-21.91,16.73-24.56,1.53,1.48,3.91,3.45,7.21,4.96,9.72,4.44,20.73,1.82,27.29-2.36,11.55-7.36,16.89-24.41,11.57-41.27,2.36.58,5.73,1.05,9.53.26,13.92-2.9,24.78-20.97,23.16-37.62-1.52-15.51-13.38-24.72-15.97-26.63,2.01-1.16,12.27-7.33,15.44-20.12,4.26-17.2-8.33-30.16-9.25-31.08-10.3-10.25-23.5-9.77-25.78-9.65,1.32-2.26,3.05-5.71,4.12-10.19.96-4.03,4.04-19.95-6.71-32.12-10.32-11.7-25.38-10.84-27.29-10.7.65-2.24,3.28-12.24-2.07-22.2-5.39-10.04-16.85-16.23-28.58-14.62-10.36,1.42-19.18,8.69-22.91,18.81-2.19-3.92-6.47-10.04-13.91-13.58-12.98-6.16-30.19-1.88-42.99,10.98-3.23-2.02-8.9-4.91-16.22-5.22-15.7-.66-30.86,10.94-36.29,26.13-5.73,16.05,1.42,30.44,2.84,33.17Z"/><path class="g" d="m772.63,258.37c-1.99,1.79-5,4.55-7.02,9.14-3.09,7.01-.26,10.09-2.33,16.62-2.81,8.84-9.7,8.56-13.68,16.99-3.34,7.08-1.8,14.27-.53,20.09,0,0,8.86,40.83,66.63,62.93,7.43,2.84,14.75,1.78,16.25,1.14.96-.42,2.21-.98,2.21-.98,1.2-.54,2.17-1,2.8-1.31,0,0,4.9-2.35,9.9-5.18,21.71-12.32,31.68-21.38,31.68-21.38,8.51-7.73,17.95-16.31,22.32-30.7,1.59-5.23,4.6-15.16,0-23.38-3.24-5.77-7.28-5.43-11.71-11.14-6.99-9.01-2.65-17.25-5.59-25.75-7.46-21.54-54.29-23.53-77.53-20.8-1.65.19-21.11,2.67-33.39,13.71Z"/><path class="c" d="m829.79,338.26c-3.68-4.35-6.5-5.27-8.58-5.03-2.82.33-3.96,2.76-7.61,5.17-3.49,2.3-7.25,3.24-10.67,3.54,1.98,1.85,4.97,4.72,8.5,8.39,4.35,4.53,4.04,4.58,5.22,5.53,6.07,4.89,17.37,5.94,23.88.96,3.79-2.91,3.08-5.66,8.79-11.21,2.91-2.84,5.72-4.67,7.54-5.74-2.01-.59-5.06-1.63-8.54-3.45-4.93-2.58-6.34-4.45-9.07-4.56-2.18-.09-5.38.93-9.48,6.41Z"/><text class="b" transform="translate(444.04 665.3)"><tspan class="j" x="0" y="0">H</tspan><tspan class="e" x="186.87" y="0">E</tspan><tspan class="f" x="343.66" y="0">AD</tspan></text></svg>